{
.appVersion = "3221";
.formatVersion = 3;
axes = (
{
name = "Optical size";
tag = opsz;
},
{
name = Weight;
tag = wght;
}
);
customParameters = (
{
name = fsType;
value = (
);
},
{
name = "Use Typo Metrics";
value = 1;
},
{
name = "Variable Font Origin";
value = "F479A047-48C9-4D19-A0FD-B440837ED7E5";
},
{
name = "Axis Mappings";
value = {
opsz = {
6 = 6;
96 = 96;
};
wght = {
400 = 400;
500 = 500;
600 = 600;
700 = 700;
800 = 800;
900 = 900;
};
};
}
);
date = "2020-11-03 13:50:06 +0000";
familyName = "Bodoni Moda";
featurePrefixes = (
{
automatic = 1;
code = "languagesystem DFLT dflt;

languagesystem latn dflt;
languagesystem latn AZE;
languagesystem latn CRT;
languagesystem latn KAZ;
languagesystem latn TAT;
languagesystem latn TRK;
languagesystem latn ROM;
languagesystem latn MOL;
languagesystem latn CAT;
";
name = Languagesystems;
},
{
automatic = 1;
code = "table GDEF {
  # automatic
  GlyphClassDef
    [A B C D Eth E F G H I J K L M N O P Q R S T U V W X Y Z R.ss02 a b c d e f g h i idotless j jdotless k kgreenlandic l m n o p q r s t u v w x y z a.sc b.sc c.sc d.sc dcroat.sc e.sc f.sc g.sc h.sc i.sc k.sc l.sc m.sc n.sc o.sc p.sc thorn.sc q.sc r.sc s.sc t.sc u.sc v.sc w.sc x.sc y.sc z.sc ordfeminine ordmasculine cent yen micro copyright registered uniF8E8 uniF8E9], # Base
    , # Liga
    [dieresiscomb dotaccentcomb gravecomb acutecomb hungarumlautcomb caroncomb.alt circumflexcomb caroncomb brevecomb ringcomb tildecomb macroncomb breveinvertedcomb commaturnedabovecomb dotbelowcomb commaaccentcomb cedillacomb ogonekcomb], # Mark
    ;
} GDEF;
";
name = Prefix;
}
);
features = (
{
automatic = 1;
code = "feature locl;
feature sups;
feature frac;
feature ordn;
feature lnum;
feature pnum;
feature tnum;
feature onum;
feature c2sc;
feature smcp;
feature case;
feature ss01;
feature ss02;
feature ss03;
";
tag = aalt;
},
{
automatic = 1;
code = "lookup ccmp_Other_1 {

glyphs = (
{
color = (0,171,232,255);
glyphname = A;
lastChange = "2023-10-06 08:49:31 +0000";
layers = (
{
anchors = (
{
name = bottom;
pos = (546,0);
},
{
name = ogonek;
pos = (1126,0);
},
{
name = top;
pos = (1014,1500);
}
);
background = {
anchors = (
{
name = bottom;
pos = (546,0);
},
{
name = ogonek;
pos = (1126,0);
},
{
name = top;
pos = (1014,1500);
}
);
shapes = (
{
closed = 1;
nodes = (
(92,0,l),
(786,1200,l),
(910,0,l),
(1360,0,l),
(1170,1530,l),
(970,1530,l),
(88,0,l)
);
},
{
closed = 1;
nodes = (
(340,0,l),
(340,4,l),
(-100,4,l),
(-100,0,l)
);
},
{
closed = 1;
nodes = (
(1500,0,l),
(1500,4,l),
(680,4,l),
(680,0,l)
);
},
{
closed = 1;
nodes = (
(1020,488,l),
(1020,492,l),
(374,492,l),
(374,488,l)
);
}
);
};
layerId = "C8A05DAB-080B-4AF9-9351-1A1E2A671399";
shapes = (
{
closed = 1;
nodes = (
(92,0,l),
(786,1200,l),
(910,0,l),
(1360,0,l),
(1170,1530,l),
(970,1530,l),
(88,0,l)
);
},
{
closed = 1;
nodes = (
(340,0,l),
(340,4,l),
(-100,4,l),
(-100,0,l)
);
},
{
closed = 1;
nodes = (
(1500,0,l),
(1500,4,l),
(680,4,l),
(680,0,l)
);
},
{
closed = 1;
nodes = (
(1020,488,l),
(1020,492,l),
(374,492,l),
(374,488,l)
);
}
);
width = 1639;
},
{
anchors = (
{
name = bottom;
pos = (566,0);
},
{
name = ogonek;
pos = (1099,0);
},
{
name = top;
pos = (934,1500);
}
);
background = {
anchors = (
{
name = bottom;
pos = (566,0);
},
{
name = ogonek;
pos = (1099,0);
},
{
name = top;
pos = (934,1500);
}
);
shapes = (
{
closed = 1;
nodes = (
(107,0,l),
(832,1268,l),
(960,0,l),
(1170,0,l),
(980,1529,l),
(906,1529,l),
(23,0,l)
);
},
{
closed = 1;
nodes = (
(350,0,l),
(350,73,l),
(-90,73,l),
(-90,0,l)
);
},
{
closed = 1;
nodes = (
(1311,0,l),
(1311,73,l),
(730,73,l),
(730,0,l)
);
},
{
closed = 1;
nodes = (
(1029,453,l),
(1029,526,l),
(351,526,l),
(351,453,l)
);
}
);
};
layerId = "E7986948-7A43-4A74-AC0C-4472ECCDAB04";
shapes = (
{
closed = 1;
nodes = (
(107,0,l),
(832,1268,l),
(960,0,l),
(1170,0,l),
(980,1529,l),
(906,1529,l),
(23,0,l)
);
},
{
closed = 1;
nodes = (
(350,0,l),
(350,73,l),
(-90,73,l),
(-90,0,l)
);
},
{
closed = 1;
nodes = (
(1311,0,l),
(1311,73,l),
(730,73,l),
(730,0,l)
);
},
{
closed = 1;
nodes = (
(1029,453,l),
(1029,526,l),
(351,526,l),
(351,453,l)
);
}
);
width = 1449;
},
{
anchors = (
{
name = bottom;
pos = (566,0);
},
{
name = ogonek;
pos = (1066,0);
},
{
name = top;
pos = (934,1500);
}
);
background = {
anchors = (
{
name = bottom;
pos = (566,0);
},
{
name = ogonek;
pos = (1066,0);
},
{
name = top;
pos = (934,1500);
}
);
shapes = (
{
closed = 1;
nodes = (
(98,0,l),
(830,1268,l),
(960,0,l),
(1170,0,l),
(980,1530,l),
(976,1530,l),
(94,0,l)
);
},
{
closed = 1;
nodes = (
(350,0,l),
(350,4,l),
(-90,4,l),
(-90,0,l)
);
},
{
closed = 1;
nodes = (
(1310,0,l),
(1310,4,l),
(730,4,l),
(730,0,l)
);
},
{
closed = 1;
nodes = (
(1030,488,l),
(1030,492,l),
(378,492,l),
(378,488,l)
);
}
);
};
layerId = "F479A047-48C9-4D19-A0FD-B440837ED7E5";
shapes = (
{
closed = 1;
nodes = (
(98,0,l),
(830,1268,l),
(960,0,l),
(1170,0,l),
(980,1530,l),
(976,1530,l),
(94,0,l)
);
},
{
closed = 1;
nodes = (
(350,0,l),
(350,4,l),
(-90,4,l),
(-90,0,l)
);
},
{
closed = 1;
nodes = (
(1310,0,l),
(1310,4,l),
(730,4,l),
(730,0,l)
);
},
{
closed = 1;
nodes = (
(1030,488,l),
(1030,492,l),
(378,492,l),
(378,488,l)
);
}
);
width = 1449;
},
{
anchors = (
{
name = bottom;
pos = (546,0);
},
{
name = ogonek;
pos = (1126,0);
},
{
name = top;
pos = (1014,1500);
}
);
background = {
anchors = (
{
name = bottom;
pos = (546,0);
},
{
name = ogonek;
pos = (1126,0);
},
{
name = top;
pos = (1014,1500);
}
);
shapes = (
{
closed = 1;
nodes = (
(98,0,l),
(788,1200,l),
(910,0,l),
(1359,0,l),
(1170,1529,l),
(896,1529,l),
(14,0,l)
);
},
{
closed = 1;
nodes = (
(340,0,l),
(340,73,l),
(-100,73,l),
(-100,0,l)
);
},
{
closed = 1;
nodes = (
(1500,0,l),
(1500,73,l),
(680,73,l),
(680,0,l)
);
},
{
closed = 1;
nodes = (
(1020,453,l),
(1020,526,l),
(359,526,l),
(359,453,l)
);
}
);
};
layerId = "5A0F1DA2-36F1-48C5-B19D-79E54862F5ED";
shapes = (
{
closed = 1;
nodes = (
(98,0,l),
(788,1200,l),
(910,0,l),
(1359,0,l),
(1170,1529,l),
(896,1529,l),
(14,0,l)
);
},
{
closed = 1;
nodes = (
(340,0,l),
(340,73,l),
(-100,73,l),
(-100,0,l)
);
},
{
closed = 1;
nodes = (
(1500,0,l),
(1500,73,l),
(680,73,l),
(680,0,l)
);
},
{
closed = 1;
nodes = (
(1020,453,l),
(1020,526,l),
(359,526,l),
(359,453,l)
);
}
);
width = 1639;
}
);
unicode = 65;
},
{
color = 10;
glyphname = Aacute;
lastChange = "2023-10-05 13:59:28 +0000";
layers = (
{
background = {
anchors = (
{
name = bottom;
pos = (546,0);
},
{
name = ogonek;
pos = (1126,0);
},
{
name = top;
pos = (1014,1500);
}
);
shapes = (
{
closed = 1;
nodes = (
(92,0,l),
(786,1200,l),
(910,0,l),
(1360,0,l),
(1170,1530,l),
(970,1530,l),
(88,0,l)
);
},
{
closed = 1;
nodes = (
(340,0,l),
(340,4,l),
(-100,4,l),
(-100,0,l)
);
},
{
closed = 1;
nodes = (
(1500,0,l),
(1500,4,l),
(680,4,l),
(680,0,l)
);
},
{
closed = 1;
nodes = (
(1020,488,l),
(1020,492,l),
(374,492,l),
(374,488,l)
);
},
{
closed = 1;
nodes = (
(1240,1718,ls),
(1400,1737,o),
(1456,1905,o),
(1390,2001,cs),
(1336,2079,o),
(1158,2105,o),
(1085,1956,cs),
(952,1685,l),
(953,1683,l)
);
}
);
};
layerId = "C8A05DAB-080B-4AF9-9351-1A1E2A671399";
shapes = (
{
ref = A;
},
{
pos = (378,0);
ref = acutecomb;
}
);
width = 1639;
},
{
background = {
anchors = (
{
name = bottom;
pos = (566,0);
},
{
name = ogonek;
pos = (1099,0);
},
{
name = top;
pos = (934,1500);
}
);
shapes = (
{
closed = 1;
nodes = (
(107,0,l),
(832,1268,l),
(960,0,l),
(1170,0,l),
(980,1529,l),
(906,1529,l),
(23,0,l)
);
},
{
closed = 1;
nodes = (
(350,0,l),
(350,73,l),
(-90,73,l),
(-90,0,l)
);
},
{
closed = 1;
nodes = (
(1311,0,l),
(1311,73,l),
(730,73,l),
(730,0,l)
);
},
{
closed = 1;
nodes = (
(1029,453,l),
(1029,526,l),
(351,526,l),
(351,453,l)
);
},
{
closed = 1;
nodes = (
(1136,1817,ls),
(1168,1836,o),
(1182,1882,o),
(1163,1915,cs),
(1144,1948,o),
(1093,1967,o),
(1051,1926,cs),
(839,1719,l),
(884,1670,l)
);
}
);
};
layerId = "E7986948-7A43-4A74-AC0C-4472ECCDAB04";
shapes = (
{
ref = A;
},
{
pos = (196,0);
ref = acutecomb;
}
);
width = 1449;
},
{
background = {
anchors = (
{
name = bottom;
pos = (566,0);
},
{
name = ogonek;
pos = (1066,0);
},
{
name = top;
pos = (934,1500);
}
);
shapes = (
{
closed = 1;
nodes = (
(98,0,l),
(830,1268,l),
(960,0,l),
(1170,0,l),
(980,1530,l),
(976,1530,l),
(94,0,l)
);
},
{
closed = 1;
nodes = (
(350,0,l),
(350,4,l),
(-90,4,l),
(-90,0,l)
);
},
{
closed = 1;
nodes = (
(1310,0,l),
(1310,4,l),
(730,4,l),
(730,0,l)
);
},
{
closed = 1;
nodes = (
(1030,488,l),
(1030,492,l),
(378,492,l),
(378,488,l)
);
},
{
closed = 1;
nodes = (
(1136,1817,ls),
(1168,1836,o),
(1182,1882,o),
(1163,1915,cs),
(1144,1948,o),
(1093,1967,o),
(1051,1926,cs),
(862,1694,l),
(864,1692,l)
);
}
);
};
layerId = "F479A047-48C9-4D19-A0FD-B440837ED7E5";
shapes = (
{
ref = A;
},
{
pos = (211,0);
ref = acutecomb;
}
);
width = 1449;
},
{
background = {
anchors = (
{
name = bottom;
pos = (546,0);
},
{
name = ogonek;
pos = (1126,0);
},
{
name = top;
pos = (1014,1500);
}
);
shapes = (
{
closed = 1;
nodes = (
(98,0,l),
(788,1200,l),
(910,0,l),
(1359,0,l),
(1170,1529,l),
(896,1529,l),
(14,0,l)
);
},
{
closed = 1;
nodes = (
(340,0,l),
(340,73,l),
(-100,73,l),
(-100,0,l)
);
},
{
closed = 1;
nodes = (
(1500,0,l),
(1500,73,l),
(680,73,l),
(680,0,l)
);
},
{
closed = 1;
nodes = (
(1020,453,l),
(1020,526,l),
(359,526,l),
(359,453,l)
);
},
{
closed = 1;
nodes = (
(1240,1718,ls),
(1398,1752,o),
(1456,1905,o),
(1390,2001,cs),
(1336,2079,o),
(1171,2099,o),
(1085,1956,cs),
(936,1708,l),
(968,1660,l)
);
}
);
};
layerId = "5A0F1DA2-36F1-48C5-B19D-79E54862F5ED";
shapes = (
{
ref = A;
},
{
pos = (367,0);
ref = acutecomb;
}
);
width = 1639;
}
);
unicode = 193;
},
{
color = 10;
glyphname = Abreve;
lastChange = "2023-10-05 13:59:28 +0000";
layers = (
{
background = {
anchors = (
{
name = bottom;
pos = (546,0);
},
{
name = ogonek;
pos = (1126,0);
},
{
name = top;
pos = (1014,1500);
}
);
shapes = (
{
closed = 1;
nodes = (
(92,0,l),
(786,1200,l),
(910,0,l),
(1360,0,l),
(1170,1530,l),
(970,1530,l),
(88,0,l)
);
},
{
closed = 1;
nodes = (
(340,0,l),
(340,4,l),
(-100,4,l),
(-100,0,l)
);
},
{
closed = 1;
nodes = (
(1500,0,l),
(1500,4,l),
(680,4,l),
(680,0,l)
);
},
{
closed = 1;
nodes = (
(1020,488,l),
(1020,492,l),
(374,492,l),
(374,488,l)
);
},
{
closed = 1;
nodes = (
(1297,1682,o),
(1357,1938,o),
(1377,2060,c),
(1373,2060,l),
(1341,1962,o),
(1185,1952,o),
(1077,1952,cs),
(969,1952,o),
(851,1986,o),
(861,2060,c),
(857,2060,l),
(837,1938,o),
(837,1682,o),
(1057,1682,cs)
);
}
);
};
layerId = "C8A05DAB-080B-4AF9-9351-1A1E2A671399";
shapes = (
{
ref = A;
},
{
pos = (249,0);
ref = brevecomb;
}
);
width = 1639;
},
{
background = {
anchors = (
{
name = bottom;
pos = (566,0);
},
{
name = ogonek;
pos = (1099,0);
},
{
name = top;
pos = (934,1500);
}
);
shapes = (
{
closed = 1;
nodes = (
(107,0,l),
(832,1268,l),
(960,0,l),
(1170,0,l),
(980,1529,l),
(906,1529,l),
(23,0,l)
);
},
{
closed = 1;
nodes = (
(350,0,l),
(350,73,l),
(-90,73,l),
(-90,0,l)
);
},
{
closed = 1;
nodes = (
(1311,0,l),
(1311,73,l),
(730,73,l),
(730,0,l)
);
},
{
closed = 1;
nodes = (
(1029,453,l),
(1029,526,l),
(351,526,l),
(351,453,l)
);
},
{
closed = 1;
nodes = (
(1157,1682,o),
(1237,1818,o),
(1257,1940,c),
(1185,1940,l),
(1165,1842,o),
(1091,1792,o),
(997,1792,cs),
(903,1792,o),
(870,1842,o),
(890,1940,c),
(817,1940,l),
(797,1818,o),
(817,1682,o),
(977,1682,cs)
);
}
);
};
layerId = "E7986948-7A43-4A74-AC0C-4472ECCDAB04";
shapes = (
{
ref = A;
},
{
pos = (195,0);
ref = brevecomb;
}
);
width = 1449;
},
{
background = {
anchors = (
{
name = bottom;
pos = (566,0);
},
{
name = ogonek;
pos = (1066,0);
},
{
name = top;
pos = (934,1500);
}
);
shapes = (
{
closed = 1;
nodes = (
(98,0,l),
(830,1268,l),
(960,0,l),
(1170,0,l),
(980,1530,l),
(976,1530,l),
(94,0,l)
);
},
{
closed = 1;
nodes = (
(350,0,l),
(350,4,l),
(-90,4,l),
(-90,0,l)
);
},
{
closed = 1;
nodes = (
(1310,0,l),
(1310,4,l),
(730,4,l),
(730,0,l)
);
},
{
closed = 1;
nodes = (
(1030,488,l),
(1030,492,l),
(378,492,l),
(378,488,l)
);
},
{
closed = 1;
nodes = (
(1157,1682,o),
(1237,1818,o),
(1257,1940,c),
(1253,1940,l),
(1233,1842,o),
(1091,1792,o),
(997,1792,cs),
(903,1792,o),
(806,1842,o),
(821,1940,c),
(817,1940,l),
(797,1818,o),
(817,1682,o),
(977,1682,cs)
);
}
);
};
layerId = "F479A047-48C9-4D19-A0FD-B440837ED7E5";
shapes = (
{
ref = A;
},
{
pos = (195,0);
ref = brevecomb;
}
);
width = 1449;
},
{
background = {
anchors = (
{
name = bottom;
pos = (546,0);
},
{
name = ogonek;
pos = (1126,0);
},
{
name = top;
pos = (1014,1500);
}
);
shapes = (
{
closed = 1;
nodes = (
(98,0,l),
(788,1200,l),
(910,0,l),
(1359,0,l),
(1170,1529,l),
(896,1529,l),
(14,0,l)
);
},
{
closed = 1;
nodes = (
(340,0,l),
(340,73,l),
(-100,73,l),
(-100,0,l)
);
},
{
closed = 1;
nodes = (
(1500,0,l),
(1500,73,l),
(680,73,l),
(680,0,l)
);
},
{
closed = 1;
nodes = (
(1020,453,l),
(1020,526,l),
(359,526,l),
(359,453,l)
);
},
{
closed = 1;
nodes = (
(1297,1682,o),
(1357,1937,o),
(1377,2059,c),
(1304,2059,l),
(1272,1961,o),
(1184,1951,o),
(1077,1951,cs),
(970,1951,o),
(920,1985,o),
(930,2059,c),
(857,2059,l),
(837,1937,o),
(836,1682,o),
(1057,1682,cs)
);
}
);
};
layerId = "5A0F1DA2-36F1-48C5-B19D-79E54862F5ED";
shapes = (
{
ref = A;
},
{
pos = (249,0);
ref = brevecomb;
}
);
width = 1639;
}
);
unicode = 258;
},
{
color = 10;
glyphname = Acircumflex;
lastChange = "2023-10-05 13:59:28 +0000";
layers = (
{
background = {
anchors = (
{
name = bottom;
pos = (546,0);
},
{
name = ogonek;
pos = (1126,0);
},
{
name = top;
pos = (1014,1500);
}
);
shapes = (
{
closed = 1;
nodes = (
(92,0,l),
(786,1200,l),
(910,0,l),
(1360,0,l),
(1170,1530,l),
(970,1530,l),
(88,0,l)
);
},
{
closed = 1;
nodes = (
(340,0,l),
(340,4,l),
(-100,4,l),
(-100,0,l)
);
},
{
closed = 1;
nodes = (
(1500,0,l),
(1500,4,l),
(680,4,l),
(680,0,l)
);
},
{
closed = 1;
nodes = (
(1020,488,l),
(1020,492,l),
(374,492,l),
(374,488,l)
);
},
{
closed = 1;
nodes = (
(1102,1849,l),
(1446,1717,l),
(1448,1719,l),
(1212,2039,l),
(1002,2039,l),
(678,1719,l),
(680,1717,l)
);
}
);
};
layerId = "C8A05DAB-080B-4AF9-9351-1A1E2A671399";
shapes = (
{
ref = A;
},
{
pos = (272,0);
ref = circumflexcomb;
}
);
width = 1639;
},
{
background = {
anchors = (
{
name = bottom;
pos = (566,0);
},
{
name = ogonek;
pos = (1099,0);
},
{
name = top;
pos = (934,1500);
}
);
shapes = (
{
closed = 1;
nodes = (
(107,0,l),
(832,1268,l),
(960,0,l),
(1170,0,l),
(980,1529,l),
(906,1529,l),
(23,0,l)
);
},
{
closed = 1;
nodes = (
(350,0,l),
(350,73,l),
(-90,73,l),
(-90,0,l)
);
},
{
closed = 1;
nodes = (
(1311,0,l),
(1311,73,l),
(730,73,l),
(730,0,l)
);
},
{
closed = 1;
nodes = (
(1029,453,l),
(1029,526,l),
(351,526,l),
(351,453,l)
);
},
{
closed = 1;
nodes = (
(1021,1849,l),
(1219,1672,l),
(1267,1719,l),
(1090,1939,l),
(960,1939,l),
(696,1719,l),
(737,1677,l)
);
}
);
};
layerId = "E7986948-7A43-4A74-AC0C-4472ECCDAB04";
shapes = (
{
ref = A;
},
{
pos = (190,0);
ref = circumflexcomb;
}
);
width = 1449;
},
{
background = {
anchors = (
{
name = bottom;
pos = (566,0);
},
{
name = ogonek;
pos = (1066,0);
},
{
name = top;
pos = (934,1500);
}
);
shapes = (
{
closed = 1;
nodes = (
(98,0,l),
(830,1268,l),
(960,0,l),
(1170,0,l),
(980,1530,l),
(976,1530,l),
(94,0,l)
);
},
{
closed = 1;
nodes = (
(350,0,l),
(350,4,l),
(-90,4,l),
(-90,0,l)
);
},
{
closed = 1;
nodes = (
(1310,0,l),
(1310,4,l),
(730,4,l),
(730,0,l)
);
},
{
closed = 1;
nodes = (
(1030,488,l),
(1030,492,l),
(378,492,l),
(378,488,l)
);
},
{
closed = 1;
nodes = (
(1021,1849,l),
(1266,1716,l),
(1267,1719,l),
(1090,1939,l),
(960,1939,l),
(696,1719,l),
(699,1716,l)
);
}
);
};
layerId = "F479A047-48C9-4D19-A0FD-B440837ED7E5";
shapes = (
{
ref = A;
},
{
pos = (190,0);
ref = circumflexcomb;
}
);
width = 1449;
},
{
background = {
anchors = (
{
name = bottom;
pos = (546,0);
},
{
name = ogonek;
pos = (1126,0);
},
{
name = top;
pos = (1014,1500);
}
);
shapes = (
{
closed = 1;
nodes = (
(98,0,l),
(788,1200,l),
(910,0,l),
(1359,0,l),
(1170,1529,l),
(896,1529,l),
(14,0,l)
);
},
{
closed = 1;
nodes = (
(340,0,l),
(340,73,l),
(-100,73,l),
(-100,0,l)
);
},
{
closed = 1;
nodes = (
(1500,0,l),
(1500,73,l),
(680,73,l),
(680,0,l)
);
},
{
closed = 1;
nodes = (
(1020,453,l),
(1020,526,l),
(359,526,l),
(359,453,l)
);
},
{
closed = 1;
nodes = (
(1101,1849,l),
(1412,1685,l),
(1447,1720,l),
(1211,2039,l),
(1002,2039,l),
(677,1720,l),
(716,1680,l)
);
}
);
};
layerId = "5A0F1DA2-36F1-48C5-B19D-79E54862F5ED";
shapes = (
{
ref = A;
},
{
pos = (271,0);
ref = circumflexcomb;
}
);
width = 1639;
}
);
unicode = 194;
},
{
color = 10;
glyphname = Adieresis;
lastChange = "2023-10-05 13:59:28 +0000";
layers = (
{
background = {
anchors = (
{
name = bottom;
pos = (546,0);
},
{
name = ogonek;
pos = (1126,0);
},
{
name = top;
pos = (1014,1500);
}
);
shapes = (
{
closed = 1;
nodes = (
(92,0,l),
(786,1200,l),
(910,0,l),
(1360,0,l),
(1170,1530,l),
(970,1530,l),
(88,0,l)
);
},
{
closed = 1;
nodes = (
(340,0,l),
(340,4,l),
(-100,4,l),
(-100,0,l)
);
},
{
closed = 1;
nodes = (
(1500,0,l),
(1500,4,l),
(680,4,l),
(680,0,l)
);
},
{
closed = 1;
nodes = (
(1020,488,l),
(1020,492,l),
(374,492,l),
(374,488,l)
);
},
{
closed = 1;
nodes = (
(1385,1682,o),
(1461,1758,o),
(1461,1851,cs),
(1461,1943,o),
(1385,2018,o),
(1293,2018,cs),
(1200,2018,o),
(1125,1943,o),
(1125,1851,cs),
(1125,1758,o),
(1200,1682,o),
(1293,1682,cs)
);
},
{
closed = 1;
nodes = (
(925,1682,o),
(1001,1758,o),
(1001,1851,cs),
(1001,1943,o),
(925,2018,o),
(833,2018,cs),
(740,2018,o),
(665,1943,o),
(665,1851,cs),
(665,1758,o),
(740,1682,o),
(833,1682,cs)
);
}
);
};
layerId = "C8A05DAB-080B-4AF9-9351-1A1E2A671399";
shapes = (
{
ref = A;
},
{
pos = (242,0);
ref = dieresiscomb;
}
);
width = 1639;
},
{
background = {
anchors = (
{
name = bottom;
pos = (566,0);
},
{
name = ogonek;
pos = (1099,0);
},
{
name = top;
pos = (934,1500);
}
);
shapes = (
{
closed = 1;
nodes = (
(107,0,l),
(832,1268,l),
(960,0,l),
(1170,0,l),
(980,1529,l),
(906,1529,l),
(23,0,l)
);
},
{
closed = 1;
nodes = (
(350,0,l),
(350,73,l),
(-90,73,l),
(-90,0,l)
);
},
{
closed = 1;
nodes = (
(1311,0,l),
(1311,73,l),
(730,73,l),
(730,0,l)
);
},
{
closed = 1;
nodes = (
(1029,453,l),
(1029,526,l),
(351,526,l),
(351,453,l)
);
},
{
closed = 1;
nodes = (
(1181,1690,o),
(1223,1733,o),
(1223,1786,cs),
(1223,1839,o),
(1181,1883,o),
(1128,1883,cs),
(1075,1883,o),
(1031,1839,o),
(1031,1786,cs),
(1031,1733,o),
(1075,1690,o),
(1128,1690,cs)
);
},
{
closed = 1;
nodes = (
(861,1690,o),
(903,1733,o),
(903,1786,cs),
(903,1839,o),
(861,1883,o),
(808,1883,cs),
(755,1883,o),
(711,1839,o),
(711,1786,cs),
(711,1733,o),
(755,1690,o),
(808,1690,cs)
);
}
);
};
layerId = "E7986948-7A43-4A74-AC0C-4472ECCDAB04";
shapes = (
{
ref = A;
},
{
pos = (161,0);
ref = dieresiscomb;
}
);
width = 1449;
},
{
background = {
anchors = (
{
name = bottom;
pos = (566,0);
},
{
name = ogonek;
pos = (1066,0);
},
{
name = top;
pos = (934,1500);
}
);
shapes = (
{
closed = 1;
nodes = (
(98,0,l),
(830,1268,l),
(960,0,l),
(1170,0,l),
(980,1530,l),
(976,1530,l),
(94,0,l)
);
},
{
closed = 1;
nodes = (
(350,0,l),
(350,4,l),
(-90,4,l),
(-90,0,l)
);
},
{
closed = 1;
nodes = (
(1310,0,l),
(1310,4,l),
(730,4,l),
(730,0,l)
);
},
{
closed = 1;
nodes = (
(1030,488,l),
(1030,492,l),
(378,492,l),
(378,488,l)
);
},
{
closed = 1;
nodes = (
(1181,1690,o),
(1223,1733,o),
(1223,1786,cs),
(1223,1839,o),
(1181,1883,o),
(1128,1883,cs),
(1075,1883,o),
(1031,1839,o),
(1031,1786,cs),
(1031,1733,o),
(1075,1690,o),
(1128,1690,cs)
);
},
{
closed = 1;
nodes = (
(861,1690,o),
(903,1733,o),
(903,1786,cs),
(903,1839,o),
(861,1883,o),
(808,1883,cs),
(755,1883,o),
(711,1839,o),
(711,1786,cs),
(711,1733,o),
(755,1690,o),
(808,1690,cs)
);
}
);
};
layerId = "F479A047-48C9-4D19-A0FD-B440837ED7E5";
shapes = (
{
ref = A;
},
{
pos = (161,0);
ref = dieresiscomb;
}
);
width = 1449;
},
{
background = {
anchors = (
{
name = bottom;
pos = (546,0);
},
{
name = ogonek;
pos = (1126,0);
},
{
name = top;
pos = (1014,1500);
}
);
shapes = (
{
closed = 1;
nodes = (
(98,0,l),
(788,1200,l),
(910,0,l),
(1359,0,l),
(1170,1529,l),
(896,1529,l),
(14,0,l)
);
},
{
closed = 1;
nodes = (
(340,0,l),
(340,73,l),
(-100,73,l),
(-100,0,l)
);
},
{
closed = 1;
nodes = (
(1500,0,l),
(1500,73,l),
(680,73,l),
(680,0,l)
);
},
{
closed = 1;
nodes = (
(1020,453,l),
(1020,526,l),
(359,526,l),
(359,453,l)
);
},
{
closed = 1;
nodes = (
(1385,1682,o),
(1461,1758,o),
(1461,1851,cs),
(1461,1943,o),
(1385,2018,o),
(1293,2018,cs),
(1200,2018,o),
(1125,1943,o),
(1125,1851,cs),
(1125,1758,o),
(1200,1682,o),
(1293,1682,cs)
);
},
{
closed = 1;
nodes = (
(925,1682,o),
(1001,1758,o),
(1001,1851,cs),
(1001,1943,o),
(925,2018,o),
(833,2018,cs),
(740,2018,o),
(665,1943,o),
(665,1851,cs),
(665,1758,o),
(740,1682,o),
(833,1682,cs)
);
}
);
};
layerId = "5A0F1DA2-36F1-48C5-B19D-79E54862F5ED";
shapes = (
{
ref = A;
},
{
pos = (242,0);
ref = dieresiscomb;
}
);
width = 1639;
}
);
unicode = 196;
},
{
color = 10;
glyphname = Agrave;
lastChange = "2023-10-05 13:59:28 +0000";
layers = (
{
background = {
anchors = (
{
name = bottom;
pos = (546,0);
},
{
name = ogonek;
pos = (1126,0);
},
{
name = top;
pos = (1014,1500);
}
);
shapes = (
{
closed = 1;
nodes = (
(92,0,l),
(786,1200,l),
(910,0,l),
(1360,0,l),
(1170,1530,l),
(970,1530,l),
(88,0,l)
);
},
{
closed = 1;
nodes = (
(340,0,l),
(340,4,l),
(-100,4,l),
(-100,0,l)
);
},
{
closed = 1;
nodes = (
(1500,0,l),
(1500,4,l),
(680,4,l),
(680,0,l)
);
},
{
closed = 1;
nodes = (
(1020,488,l),
(1020,492,l),
(374,492,l),
(374,488,l)
);
},
{
closed = 1;
nodes = (
(1242,1686,l),
(1107,1956,ls),
(1032,2105,o),
(855,2079,o),
(802,2001,cs),
(736,1905,o),
(792,1737,o),
(952,1718,cs),
(1240,1684,l)
);
}
);
};
layerId = "C8A05DAB-080B-4AF9-9351-1A1E2A671399";
shapes = (
{
ref = A;
},
{
pos = (197,0);
ref = gravecomb;
}
);
width = 1639;
},
{
background = {
anchors = (
{
name = bottom;
pos = (566,0);
},
{
name = ogonek;
pos = (1099,0);
},
{
name = top;
pos = (934,1500);
}
);
shapes = (
{
closed = 1;
nodes = (
(107,0,l),
(832,1268,l),
(960,0,l),
(1170,0,l),
(980,1529,l),
(906,1529,l),
(23,0,l)
);
},
{
closed = 1;
nodes = (
(350,0,l),
(350,73,l),
(-90,73,l),
(-90,0,l)
);
},
{
closed = 1;
nodes = (
(1311,0,l),
(1311,73,l),
(730,73,l),
(730,0,l)
);
},
{
closed = 1;
nodes = (
(1029,453,l),
(1029,526,l),
(351,526,l),
(351,453,l)
);
},
{
closed = 1;
nodes = (
(1029,1719,l),
(817,1926,ls),
(775,1967,o),
(724,1948,o),
(705,1915,cs),
(686,1882,o),
(700,1836,o),
(732,1817,cs),
(984,1670,l)
);
}
);
};
layerId = "E7986948-7A43-4A74-AC0C-4472ECCDAB04";
shapes = (
{
ref = A;
},
{
pos = (52,0);
ref = gravecomb;
}
);
width = 1449;
},
{
background = {
anchors = (
{
name = bottom;
pos = (566,0);
},
{
name = ogonek;
pos = (1066,0);
},
{
name = top;
pos = (934,1500);
}
);
shapes = (
{
closed = 1;
nodes = (
(98,0,l),
(830,1268,l),
(960,0,l),
(1170,0,l),
(980,1530,l),
(976,1530,l),
(94,0,l)
);
},
{
closed = 1;
nodes = (
(350,0,l),
(350,4,l),
(-90,4,l),
(-90,0,l)
);
},
{
closed = 1;
nodes = (
(1310,0,l),
(1310,4,l),
(730,4,l),
(730,0,l)
);
},
{
closed = 1;
nodes = (
(1030,488,l),
(1030,492,l),
(378,492,l),
(378,488,l)
);
},
{
closed = 1;
nodes = (
(1157,1695,l),
(967,1926,ls),
(925,1967,o),
(874,1948,o),
(855,1915,cs),
(836,1882,o),
(850,1836,o),
(882,1817,cs),
(1155,1693,l)
);
}
);
};
layerId = "F479A047-48C9-4D19-A0FD-B440837ED7E5";
shapes = (
{
ref = A;
},
{
pos = (194,0);
ref = gravecomb;
}
);
width = 1449;
},
{
background = {
anchors = (
{
name = bottom;
pos = (546,0);
},
{
name = ogonek;
pos = (1126,0);
},
{
name = top;
pos = (1014,1500);
}
);
shapes = (
{
closed = 1;
nodes = (
(98,0,l),
(788,1200,l),
(910,0,l),
(1359,0,l),
(1170,1529,l),
(896,1529,l),
(14,0,l)
);
},
{
closed = 1;
nodes = (
(340,0,l),
(340,73,l),
(-100,73,l),
(-100,0,l)
);
},
{
closed = 1;
nodes = (
(1500,0,l),
(1500,73,l),
(680,73,l),
(680,0,l)
);
},
{
closed = 1;
nodes = (
(1020,453,l),
(1020,526,l),
(359,526,l),
(359,453,l)
);
},
{
closed = 1;
nodes = (
(1256,1708,l),
(1107,1956,ls),
(1021,2099,o),
(855,2079,o),
(802,2001,cs),
(736,1905,o),
(794,1752,o),
(952,1718,cs),
(1224,1660,l)
);
}
);
};
layerId = "5A0F1DA2-36F1-48C5-B19D-79E54862F5ED";
shapes = (
{
ref = A;
},
{
pos = (201,0);
ref = gravecomb;
}
);
width = 1639;
}
);
unicode = 192;
},
{
color = 10;
glyphname = Amacron;
lastChange = "2023-10-05 13:59:28 +0000";
layers = (
{
background = {
anchors = (
{
name = bottom;
pos = (546,0);
},
{
name = ogonek;
pos = (1126,0);
},
{
name = top;
pos = (1014,1500);
}
);
shapes = (
{
closed = 1;
nodes = (
(92,0,l),
(786,1200,l),
(910,0,l),
(1360,0,l),
(1170,1530,l),
(970,1530,l),
(88,0,l)
);
},
{
closed = 1;
nodes = (
(340,0,l),
(340,4,l),
(-100,4,l),
(-100,0,l)
);
},
{
closed = 1;
nodes = (
(1500,0,l),
(1500,4,l),
(680,4,l),
(680,0,l)
);
},
{
closed = 1;
nodes = (
(1020,488,l),
(1020,492,l),
(374,492,l),
(374,488,l)
);
},
{
closed = 1;
nodes = (
(1254,1700,l),
(1254,1704,l),
(774,1704,l),
(774,1700,l)
);
}
);
};
layerId = "C8A05DAB-080B-4AF9-9351-1A1E2A671399";
shapes = (
{
ref = A;
},
{
pos = (227,0);
ref = macroncomb;
}
);
width = 1639;
},
{
background = {
anchors = (
{
name = bottom;
pos = (566,0);
},
{
name = ogonek;
pos = (1099,0);
},
{
name = top;
pos = (934,1500);
}
);
shapes = (
{
closed = 1;
nodes = (
(107,0,l),
(832,1268,l),
(960,0,l),
(1170,0,l),
(980,1529,l),
(906,1529,l),
(23,0,l)
);
},
{
closed = 1;
nodes = (
(350,0,l),
(350,73,l),
(-90,73,l),
(-90,0,l)
);
},
{
closed = 1;
nodes = (
(1311,0,l),
(1311,73,l),
(730,73,l),
(730,0,l)
);
},
{
closed = 1;
nodes = (
(1029,453,l),
(1029,526,l),
(351,526,l),
(351,453,l)
);
},
{
closed = 1;
nodes = (
(1174,1700,l),
(1174,1772,l),
(694,1772,l),
(694,1700,l)
);
}
);
};
layerId = "E7986948-7A43-4A74-AC0C-4472ECCDAB04";
shapes = (
{
ref = A;
},
{
pos = (139,0);
ref = macroncomb;
}
);
width = 1449;
},
{
background = {
anchors = (
{
name = bottom;
pos = (566,0);
},
{
name = ogonek;
pos = (1066,0);
},
{
name = top;
pos = (934,1500);
}
);
shapes = (
{
closed = 1;
nodes = (
(98,0,l),
(830,1268,l),
(960,0,l),
(1170,0,l),
(980,1530,l),
(976,1530,l),
(94,0,l)
);
},
{
closed = 1;
nodes = (
(350,0,l),
(350,4,l),
(-90,4,l),
(-90,0,l)
);
},
{
closed = 1;
nodes = (
(1310,0,l),
(1310,4,l),
(730,4,l),
(730,0,l)
);
},
{
closed = 1;
nodes = (
(1030,488,l),
(1030,492,l),
(378,492,l),
(378,488,l)
);
},
{
closed = 1;
nodes = (
(1174,1700,l),
(1174,1704,l),
(694,1704,l),
(694,1700,l)
);
}
);
};
layerId = "F479A047-48C9-4D19-A0FD-B440837ED7E5";
shapes = (
{
ref = A;
},
{
pos = (147,0);
ref = macroncomb;
}
);
width = 1449;
},
{
background = {
anchors = (
{
name = bottom;
pos = (546,0);
},
{
name = ogonek;
pos = (1126,0);
},
{
name = top;
pos = (1014,1500);
}
);
shapes = (
{
closed = 1;
nodes = (
(98,0,l),
(788,1200,l),
(910,0,l),
(1359,0,l),
(1170,1529,l),
(896,1529,l),
(14,0,l)
);
},
{
closed = 1;
nodes = (
(340,0,l),
(340,73,l),
(-100,73,l),
(-100,0,l)
);
},
{
closed = 1;
nodes = (
(1500,0,l),
(1500,73,l),
(680,73,l),
(680,0,l)
);
},
{
closed = 1;
nodes = (
(1020,453,l),
(1020,526,l),
(359,526,l),
(359,453,l)
);
},
{
closed = 1;
nodes = (
(1254,1700,l),
(1254,1772,l),
(774,1772,l),
(774,1700,l)
);
}
);
};
layerId = "5A0F1DA2-36F1-48C5-B19D-79E54862F5ED";
shapes = (
{
ref = A;
},
{
pos = (219,0);
ref = macroncomb;
}
);
width = 1639;
}
);
unicode = 256;
},
{
color = 10;
glyphname = Aogonek;
lastChange = "2023-10-05 13:59:28 +0000";
layers = (
{
background = {
anchors = (
{
name = bottom;
pos = (546,0);
},
{
name = ogonek;
pos = (1126,0);
},
{
name = top;
pos = (1014,1500);
}
);
shapes = (
{
closed = 1;
nodes = (
(92,0,l),
(786,1200,l),
(910,0,l),
(1360,0,l),
(1170,1530,l),
(970,1530,l),
(88,0,l)
);
},
{
closed = 1;
nodes = (
(340,0,l),
(340,4,l),
(-100,4,l),
(-100,0,l)
);
},
{
closed = 1;
nodes = (
(1500,0,l),
(1500,4,l),
(680,4,l),
(680,0,l)
);
},
{
closed = 1;
nodes = (
(1020,488,l),
(1020,492,l),
(374,492,l),
(374,488,l)
);
},
{
closed = 1;
nodes = (
(1146,-474,o),
(1244,-344,o),
(1274,-288,c),
(1272,-286,l),
(1250,-328,o),
(1178,-420,o),
(1108,-420,cs),
(1070,-420,o),
(1054,-366,o),
(1054,-292,cs),
(1054,-166,o),
(1126,-20,o),
(1188,22,c),
(1186,24,l),
(984,-36,o),
(694,-164,o),
(694,-324,cs),
(694,-424,o),
(802,-474,o),
(944,-474,cs)
);
}
);
};
layerId = "C8A05DAB-080B-4AF9-9351-1A1E2A671399";
shapes = (
{
ref = A;
},
{
pos = (651,-32);
ref = ogonekcomb;
}
);
width = 1639;
},
{
background = {
anchors = (
{
name = bottom;
pos = (566,0);
},
{
name = ogonek;
pos = (1099,0);
},
{
name = top;
pos = (934,1500);
}
);
shapes = (
{
closed = 1;
nodes = (
(107,0,l),
(832,1268,l),
(960,0,l),
(1170,0,l),
(980,1529,l),
(906,1529,l),
(23,0,l)
);
},
{
closed = 1;
nodes = (
(350,0,l),
(350,73,l),
(-90,73,l),
(-90,0,l)
);
},
{
closed = 1;
nodes = (
(1311,0,l),
(1311,73,l),
(730,73,l),
(730,0,l)
);
},
{
closed = 1;
nodes = (
(1029,453,l),
(1029,526,l),
(351,526,l),
(351,453,l)
);
},
{
closed = 1;
nodes = (
(1159,-413,o),
(1218,-325,o),
(1247,-268,c),
(1190,-243,l),
(1169,-285,o),
(1136,-318,o),
(1083,-318,cs),
(1035,-318,o),
(997,-290,o),
(997,-224,cs),
(997,-115,o),
(1085,-32,o),
(1162,14,c),
(1143,42,l),
(1021,6,o),
(810,-102,o),
(810,-262,cs),
(810,-382,o),
(914,-413,o),
(1016,-413,cs)
);
}
);
};
layerId = "E7986948-7A43-4A74-AC0C-4472ECCDAB04";
shapes = (
{
ref = A;
},
{
pos = (686,-12);
ref = ogonekcomb;
}
);
width = 1449;
},
{
background = {
anchors = (
{
name = bottom;
pos = (566,0);
},
{
name = ogonek;
pos = (1066,0);
},
{
name = top;
pos = (934,1500);
}
);
shapes = (
{
closed = 1;
nodes = (
(98,0,l),
(830,1268,l),
(960,0,l),
(1170,0,l),
(980,1530,l),
(976,1530,l),
(94,0,l)
);
},
{
closed = 1;
nodes = (
(350,0,l),
(350,4,l),
(-90,4,l),
(-90,0,l)
);
},
{
closed = 1;
nodes = (
(1310,0,l),
(1310,4,l),
(730,4,l),
(730,0,l)
);
},
{
closed = 1;
nodes = (
(1030,488,l),
(1030,492,l),
(378,492,l),
(378,488,l)
);
},
{
closed = 1;
nodes = (
(1100,-454,o),
(1158,-364,o),
(1188,-308,c),
(1184,-306,l),
(1156,-358,o),
(1104,-432,o),
(1024,-432,cs),
(976,-432,o),
(938,-386,o),
(938,-292,cs),
(938,-126,o),
(1040,-34,o),
(1102,0,c),
(1100,4,l),
(978,-36,o),
(752,-142,o),
(752,-302,cs),
(752,-422,o),
(856,-454,o),
(958,-454,cs)
);
}
);
};
layerId = "F479A047-48C9-4D19-A0FD-B440837ED7E5";
shapes = (
{
ref = A;
},
{
pos = (637,-32);
ref = ogonekcomb;
}
);
width = 1449;
},
{
background = {
anchors = (
{
name = bottom;
pos = (546,0);
},
{
name = ogonek;
pos = (1126,0);
},
{
name = top;
pos = (1014,1500);
}
);
shapes = (
{
closed = 1;
nodes = (
(98,0,l),
(788,1200,l),
(910,0,l),
(1359,0,l),
(1170,1529,l),
(896,1529,l),
(14,0,l)
);
},
{
closed = 1;
nodes = (
(340,0,l),
(340,73,l),
(-100,73,l),
(-100,0,l)
);
},
{
closed = 1;
nodes = (
(1500,0,l),
(1500,73,l),
(680,73,l),
(680,0,l)
);
},
{
closed = 1;
nodes = (
(1020,453,l),
(1020,526,l),
(359,526,l),
(359,453,l)
);
},
{
closed = 1;
nodes = (
(1146,-473,o),
(1245,-345,o),
(1274,-288,c),
(1214,-258,l),
(1193,-300,o),
(1146,-356,o),
(1100,-356,cs),
(1071,-356,o),
(1056,-328,o),
(1056,-291,cs),
(1056,-177,o),
(1132,-64,o),
(1194,3,c),
(1181,39,l),
(944,-43,o),
(694,-163,o),
(694,-323,cs),
(694,-423,o),
(801,-473,o),
(944,-473,cs)
);
}
);
};
layerId = "5A0F1DA2-36F1-48C5-B19D-79E54862F5ED";
shapes = (
{
ref = A;
},
{
pos = (651,-32);
ref = ogonekcomb;
}
);
width = 1639;
}
);
unicode = 260;
},
{
color = 10;
glyphname = Aring;
lastChange = "2023-10-05 13:59:28 +0000";
layers = (
{
background = {
anchors = (
{
name = bottom;
pos = (546,0);
},
{
name = ogonek;
pos = (1126,0);
},
{
name = top;
pos = (1014,1500);
}
);
shapes = (
{
closed = 1;
nodes = (
(92,0,l),
(786,1200,l),
(910,0,l),
(1360,0,l),
(1170,1530,l),
(970,1530,l),
(88,0,l)
);
},
{
closed = 1;
nodes = (
(340,0,l),
(340,4,l),
(-100,4,l),
(-100,0,l)
);
},
{
closed = 1;
nodes = (
(1500,0,l),
(1500,4,l),
(680,4,l),
(680,0,l)
);
},
{
closed = 1;
nodes = (
(1020,488,l),
(1020,492,l),
(374,492,l),
(374,488,l)
);
},
{
closed = 1;
nodes = (
(1205,1679,o),
(1293,1757,o),
(1293,1859,cs),
(1293,1961,o),
(1205,2039,o),
(1063,2039,cs),
(921,2039,o),
(833,1961,o),
(833,1859,cs),
(833,1757,o),
(921,1679,o),
(1063,1679,cs)
);
},
{
closed = 1;
nodes = (
(999,1685,o),
(999,1725,o),
(999,1749,cs),
(999,1813,o),
(1039,2033,o),
(1093,2033,cs),
(1127,2033,o),
(1127,1993,o),
(1127,1969,cs),
(1127,1905,o),
(1087,1685,o),
(1033,1685,cs)
);
}
);
};
layerId = "C8A05DAB-080B-4AF9-9351-1A1E2A671399";
shapes = (
{
ref = A;
},
{
pos = (240,0);
ref = ringcomb;
}
);
width = 1639;
},
{
background = {
anchors = (
{
name = bottom;
pos = (566,0);
},
{
name = ogonek;
pos = (1099,0);
},
{
name = top;
pos = (934,1500);
}
);
shapes = (
{
closed = 1;
nodes = (
(107,0,l),
(832,1268,l),
(960,0,l),
(1170,0,l),
(980,1529,l),
(906,1529,l),
(23,0,l)
);
},
{
closed = 1;
nodes = (
(350,0,l),
(350,73,l),
(-90,73,l),
(-90,0,l)
);
},
{
closed = 1;
nodes = (
(1311,0,l),
(1311,73,l),
(730,73,l),
(730,0,l)
);
},
{
closed = 1;
nodes = (
(1029,453,l),
(1029,526,l),
(351,526,l),
(351,453,l)
);
},
{
closed = 1;
nodes = (
(1086,1680,o),
(1164,1757,o),
(1164,1859,cs),
(1164,1961,o),
(1086,2040,o),
(984,2040,cs),
(882,2040,o),
(805,1961,o),
(805,1859,cs),
(805,1757,o),
(882,1680,o),
(984,1680,cs)
);
},
{
closed = 1;
nodes = (
(929,1754,o),
(883,1790,o),
(883,1859,cs),
(883,1928,o),
(929,1967,o),
(984,1967,cs),
(1039,1967,o),
(1086,1928,o),
(1086,1859,cs),
(1086,1790,o),
(1039,1754,o),
(984,1754,cs)
);
}
);
};
layerId = "E7986948-7A43-4A74-AC0C-4472ECCDAB04";
shapes = (
{
ref = A;
},
{
pos = (161,0);
ref = ringcomb;
}
);
width = 1449;
},
{
background = {
anchors = (
{
name = bottom;
pos = (566,0);
},
{
name = ogonek;
pos = (1066,0);
},
{
name = top;
pos = (934,1500);
}
);
shapes = (
{
closed = 1;
nodes = (
(98,0,l),
(830,1268,l),
(960,0,l),
(1170,0,l),
(980,1530,l),
(976,1530,l),
(94,0,l)
);
},
{
closed = 1;
nodes = (
(350,0,l),
(350,4,l),
(-90,4,l),
(-90,0,l)
);
},
{
closed = 1;
nodes = (
(1310,0,l),
(1310,4,l),
(730,4,l),
(730,0,l)
);
},
{
closed = 1;
nodes = (
(1030,488,l),
(1030,492,l),
(378,492,l),
(378,488,l)
);
},
{
closed = 1;
nodes = (
(1087,1679,o),
(1165,1757,o),
(1165,1859,cs),
(1165,1961,o),
(1087,2039,o),
(985,2039,cs),
(883,2039,o),
(805,1961,o),
(805,1859,cs),
(805,1757,o),
(883,1679,o),
(985,1679,cs)
);
},
{
closed = 1;
nodes = (
(901,1683,o),
(875,1735,o),
(875,1819,cs),
(875,1903,o),
(921,2035,o),
(995,2035,cs),
(1069,2035,o),
(1095,1983,o),
(1095,1899,cs),
(1095,1815,o),
(1049,1683,o),
(975,1683,cs)
);
}
);
};
layerId = "F479A047-48C9-4D19-A0FD-B440837ED7E5";
shapes = (
{
ref = A;
},
{
pos = (162,0);
ref = ringcomb;
}
);
width = 1449;
},
{
background = {
anchors = (
{
name = bottom;
pos = (546,0);
},
{
name = ogonek;
pos = (1126,0);
},
{
name = top;
pos = (1014,1500);
}
);
shapes = (
{
closed = 1;
nodes = (
(98,0,l),
(788,1200,l),
(910,0,l),
(1359,0,l),
(1170,1529,l),
(896,1529,l),
(14,0,l)
);
},
{
closed = 1;
nodes = (
(340,0,l),
(340,73,l),
(-100,73,l),
(-100,0,l)
);
},
{
closed = 1;
nodes = (
(1500,0,l),
(1500,73,l),
(680,73,l),
(680,0,l)
);
},
{
closed = 1;
nodes = (
(1020,453,l),
(1020,526,l),
(359,526,l),
(359,453,l)
);
},
{
closed = 1;
nodes = (
(1207,1680,o),
(1293,1757,o),
(1293,1859,cs),
(1293,1961,o),
(1207,2040,o),
(1064,2040,cs),
(921,2040,o),
(833,1961,o),
(833,1859,cs),
(833,1757,o),
(921,1680,o),
(1064,1680,cs)
);
},
{
closed = 1;
nodes = (
(998,1721,o),
(999,1747,o),
(999,1770,cs),
(999,1834,o),
(1038,2000,o),
(1093,2000,cs),
(1127,2000,o),
(1127,1973,o),
(1127,1950,cs),
(1127,1886,o),
(1087,1721,o),
(1032,1721,cs)
);
}
);
};
layerId = "5A0F1DA2-36F1-48C5-B19D-79E54862F5ED";
shapes = (
{
ref = A;
},
{
pos = (240,0);
ref = ringcomb;
}
);
width = 1639;
}
);
unicode = 197;
},
{
color = 10;
glyphname = Atilde;
lastChange = "2023-10-05 13:59:28 +0000";
layers = (
{
background = {
anchors = (
{
name = bottom;
pos = (546,0);
},
{
name = ogonek;
pos = (1126,0);
},
{
name = top;
pos = (1014,1500);
}
);
shapes = (
{
closed = 1;
nodes = (
(92,0,l),
(786,1200,l),
(910,0,l),
(1360,0,l),
(1170,1530,l),
(970,1530,l),
(88,0,l)
);
},
{
closed = 1;
nodes = (
(340,0,l),
(340,4,l),
(-100,4,l),
(-100,0,l)
);
},
{
closed = 1;
nodes = (
(1500,0,l),
(1500,4,l),
(680,4,l),
(680,0,l)
);
},
{
closed = 1;
nodes = (
(1020,488,l),
(1020,492,l),
(374,492,l),
(374,488,l)
);
},
{
closed = 1;
nodes = (
(1402,1620,o),
(1452,1744,o),
(1492,1934,c),
(1488,1934,l),
(1448,1870,o),
(1402,1856,o),
(1356,1856,cs),
(1244,1856,o),
(1144,2014,o),
(1004,2014,cs),
(846,2014,o),
(776,1870,o),
(736,1700,c),
(740,1700,l),
(780,1764,o),
(826,1778,o),
(872,1778,cs),
(998,1778,o),
(1090,1620,o),
(1244,1620,cs)
);
}
);
};
layerId = "C8A05DAB-080B-4AF9-9351-1A1E2A671399";
shapes = (
{
ref = A;
},
{
pos = (301,0);
ref = tildecomb;
}
);
width = 1639;
},
{
background = {
anchors = (
{
name = bottom;
pos = (566,0);
},
{
name = ogonek;
pos = (1099,0);
},
{
name = top;
pos = (934,1500);
}
);
shapes = (
{
closed = 1;
nodes = (
(107,0,l),
(832,1268,l),
(960,0,l),
(1170,0,l),
(980,1529,l),
(906,1529,l),
(23,0,l)
);
},
{
closed = 1;
nodes = (
(350,0,l),
(350,73,l),
(-90,73,l),
(-90,0,l)
);
},
{
closed = 1;
nodes = (
(1311,0,l),
(1311,73,l),
(730,73,l),
(730,0,l)
);
},
{
closed = 1;
nodes = (
(1029,453,l),
(1029,526,l),
(351,526,l),
(351,453,l)
);
},
{
closed = 1;
nodes = (
(1274,1680,o),
(1389,1745,o),
(1429,1934,c),
(1356,1934,l),
(1326,1850,o),
(1287,1796,o),
(1221,1796,cs),
(1129,1796,o),
(1069,1954,o),
(915,1954,cs),
(817,1954,o),
(680,1870,o),
(640,1700,c),
(714,1700,l),
(749,1790,o),
(783,1838,o),
(849,1838,cs),
(954,1838,o),
(1008,1680,o),
(1176,1680,cs)
);
}
);
};
layerId = "E7986948-7A43-4A74-AC0C-4472ECCDAB04";
shapes = (
{
ref = A;
},
{
pos = (221,0);
ref = tildecomb;
}
);
width = 1449;
},
{
background = {
anchors = (
{
name = bottom;
pos = (566,0);
},
{
name = ogonek;
pos = (1066,0);
},
{
name = top;
pos = (934,1500);
}
);
shapes = (
{
closed = 1;
nodes = (
(98,0,l),
(830,1268,l),
(960,0,l),
(1170,0,l),
(980,1530,l),
(976,1530,l),
(94,0,l)
);
},
{
closed = 1;
nodes = (
(350,0,l),
(350,4,l),
(-90,4,l),
(-90,0,l)
);
},
{
closed = 1;
nodes = (
(1310,0,l),
(1310,4,l),
(730,4,l),
(730,0,l)
);
},
{
closed = 1;
nodes = (
(1030,488,l),
(1030,492,l),
(378,492,l),
(378,488,l)
);
},
{
closed = 1;
nodes = (
(1283,1680,o),
(1373,1744,o),
(1413,1934,c),
(1409,1934,l),
(1369,1830,o),
(1323,1796,o),
(1237,1796,cs),
(1125,1796,o),
(1045,1954,o),
(905,1954,cs),
(807,1954,o),
(697,1870,o),
(657,1700,c),
(661,1700,l),
(701,1804,o),
(747,1838,o),
(833,1838,cs),
(959,1838,o),
(1031,1680,o),
(1185,1680,cs)
);
}
);
};
layerId = "F479A047-48C9-4D19-A0FD-B440837ED7E5";
shapes = (
{
ref = A;
},
{
pos = (222,0);
ref = tildecomb;
}
);
width = 1449;
},
{
background = {
anchors = (
{
name = bottom;
pos = (546,0);
},
{
name = ogonek;
pos = (1126,0);
},
{
name = top;
pos = (1014,1500);
}
);
shapes = (
{
closed = 1;
nodes = (
(98,0,l),
(788,1200,l),
(910,0,l),
(1359,0,l),
(1170,1529,l),
(896,1529,l),
(14,0,l)
);
},
{
closed = 1;
nodes = (
(340,0,l),
(340,73,l),
(-100,73,l),
(-100,0,l)
);
},
{
closed = 1;
nodes = (
(1500,0,l),
(1500,73,l),
(680,73,l),
(680,0,l)
);
},
{
closed = 1;
nodes = (
(1020,453,l),
(1020,526,l),
(359,526,l),
(359,453,l)
);
},
{
closed = 1;
nodes = (
(1401,1620,o),
(1451,1745,o),
(1491,1934,c),
(1418,1934,l),
(1378,1870,o),
(1343,1855,o),
(1297,1855,cs),
(1205,1855,o),
(1145,2014,o),
(1004,2014,cs),
(846,2014,o),
(775,1870,o),
(735,1700,c),
(808,1700,l),
(848,1764,o),
(883,1777,o),
(929,1777,cs),
(1034,1777,o),
(1089,1620,o),
(1243,1620,cs)
);
}
);
};
layerId = "5A0F1DA2-36F1-48C5-B19D-79E54862F5ED";
shapes = (
{
ref = A;
},
{
pos = (300,0);
ref = tildecomb;
}
);
width = 1639;
}
);
unicode = 195;
},
{
color = (0,171,232,255);
glyphname = AE;
lastChange = "2023-10-05 13:59:01 +0000";
layers = (
{
background = {
shapes = (
{
closed = 1;
nodes = (
(87,0,l),
(1280,1500,l),
(1275,1500,l),
(82,0,l)
);
},
{
closed = 1;
nodes = (
(351,0,l),
(351,4,l),
(-90,4,l),
(-90,0,l)
);
},
{
closed = 1;
nodes = (
(1069,522,l),
(1069,526,l),
(503,526,l),
(500,522,l)
);
},
{
closed = 1;
nodes = (
(2029,0,l),
(2134,450,l),
(2130,450,l),
(2021,196,o),
(1750,4,o),
(1477,4,cs),
(760,4,l),
(760,0,l)
);
},
{
closed = 1;
nodes = (
(1360,0,l),
(1708,1500,l),
(1278,1500,l),
(931,0,l)
);
},
{
closed = 1;
nodes = (
(1809,497,l),
(1938,1046,l),
(1933,1046,l),
(1854,912,o),
(1689,778,o),
(1576,778,cs),
(1464,778,l),
(1464,774,l),
(1576,774,ls),
(1689,774,o),
(1784,631,o),
(1805,497,c)
);
},
{
closed = 1;
nodes = (
(2262,1090,l),
(2358,1500,l),
(1317,1500,l),
(1317,1496,l),
(1825,1496,ls),
(2059,1496,o),
(2258,1304,o),
(2258,1090,c)
);
}
);
};
layerId = "C8A05DAB-080B-4AF9-9351-1A1E2A671399";
shapes = (
{
closed = 1;
nodes = (
(87,0,l),
(1280,1500,l),
(1275,1500,l),
(82,0,l)
);
},
{
closed = 1;
nodes = (
(351,0,l),
(351,4,l),
(-90,4,l),
(-90,0,l)
);
},
{
closed = 1;
nodes = (
(1069,522,l),
(1069,526,l),
(503,526,l),
(500,522,l)
);
},
{
closed = 1;
nodes = (
(2029,0,l),
(2134,450,l),
(2130,450,l),
(2021,196,o),
(1750,4,o),
(1477,4,cs),
(760,4,l),
(760,0,l)
);
},
{
closed = 1;
nodes = (
(1360,0,l),
(1708,1500,l),
(1278,1500,l),
(931,0,l)
);
},
{
closed = 1;
nodes = (
(1809,497,l),
(1938,1046,l),
(1933,1046,l),
(1854,912,o),
(1689,778,o),
(1576,778,cs),
(1464,778,l),
(1464,774,l),
(1576,774,ls),
(1689,774,o),
(1784,631,o),
(1805,497,c)
);
},
{
closed = 1;
nodes = (
(2262,1090,l),
(2358,1500,l),
(1317,1500,l),
(1317,1496,l),
(1825,1496,ls),
(2059,1496,o),
(2258,1304,o),
(2258,1090,c)
);
}
);
width = 2212;
},
{
background = {
shapes = (
{
closed = 1;
nodes = (
(150,0,l),
(1351,1500,l),
(1262,1500,l),
(52,0,l)
);
},
{
closed = 1;
nodes = (
(391,0,l),
(391,73,l),
(-50,73,l),
(-50,0,l)
);
},
{
closed = 1;
nodes = (
(1109,453,l),
(1109,526,l),
(510,526,l),
(510,453,l)
);
},
{
closed = 1;
nodes = (
(1859,0,l),
(1964,450,l),
(1891,450,l),
(1832,196,o),
(1730,73,o),
(1457,73,cs),
(800,73,l),
(800,0,l)
);
},
{
closed = 1;
nodes = (
(1160,0,l),
(1508,1500,l),
(1318,1500,l),
(971,0,l)
);
},
{
closed = 1;
nodes = (
(1663,557,l),
(1762,986,l),
(1688,986,l),
(1659,852,o),
(1569,812,o),
(1456,812,cs),
(1314,812,l),
(1314,739,l),
(1456,739,ls),
(1569,739,o),
(1619,691,o),
(1590,557,c)
);
},
{
closed = 1;
nodes = (
(2092,1090,l),
(2188,1500,l),
(1357,1500,l),
(1357,1427,l),
(1805,1427,ls),
(2039,1427,o),
(2069,1304,o),
(2019,1090,c)
);
}
);
};
layerId = "E7986948-7A43-4A74-AC0C-4472ECCDAB04";
shapes = (
{
closed = 1;
nodes = (
(150,0,l),
(1351,1500,l),
(1262,1500,l),
(52,0,l)
);
},
{
closed = 1;
nodes = (
(391,0,l),
(391,73,l),
(-50,73,l),
(-50,0,l)
);
},
{
closed = 1;
nodes = (
(1109,453,l),
(1109,526,l),
(510,526,l),
(510,453,l)
);
},
{
closed = 1;
nodes = (
(1859,0,l),
(1964,450,l),
(1891,450,l),
(1832,196,o),
(1730,73,o),
(1457,73,cs),
(800,73,l),
(800,0,l)
);
},
{
closed = 1;
nodes = (
(1160,0,l),
(1508,1500,l),
(1318,1500,l),
(971,0,l)
);
},
{
closed = 1;
nodes = (
(1663,557,l),
(1762,986,l),
(1688,986,l),
(1659,852,o),
(1569,812,o),
(1456,812,cs),
(1314,812,l),
(1314,739,l),
(1456,739,ls),
(1569,739,o),
(1619,691,o),
(1590,557,c)
);
},
{
closed = 1;
nodes = (
(2092,1090,l),
(2188,1500,l),
(1357,1500,l),
(1357,1427,l),
(1805,1427,ls),
(2039,1427,o),
(2069,1304,o),
(2019,1090,c)
);
}
);
width = 2000;
},
{
background = {
shapes = (
{
closed = 1;
nodes = (
(112,0,l),
(1320,1500,l),
(1315,1500,l),
(107,0,l)
);
},
{
closed = 1;
nodes = (
(391,0,l),
(391,4,l),
(-50,4,l),
(-50,0,l)
);
},
{
closed = 1;
nodes = (
(1109,522,l),
(1109,526,l),
(531,526,l),
(531,522,l)
);
},
{
closed = 1;
nodes = (
(1859,0,l),
(1964,450,l),
(1960,450,l),
(1901,196,o),
(1730,4,o),
(1457,4,cs),
(800,4,l),
(800,0,l)
);
},
{
closed = 1;
nodes = (
(1160,0,l),
(1508,1500,l),
(1318,1500,l),
(971,0,l)
);
},
{
closed = 1;
nodes = (
(1593,557,l),
(1692,986,l),
(1688,986,l),
(1659,852,o),
(1569,777,o),
(1456,777,cs),
(1314,777,l),
(1314,773,l),
(1456,773,ls),
(1569,773,o),
(1619,691,o),
(1590,557,c)
);
},
{
closed = 1;
nodes = (
(2092,1090,l),
(2188,1500,l),
(1357,1500,l),
(1357,1496,l),
(1805,1496,ls),
(2039,1496,o),
(2138,1304,o),
(2088,1090,c)
);
}
);
};
layerId = "F479A047-48C9-4D19-A0FD-B440837ED7E5";
shapes = (
{
closed = 1;
nodes = (
(112,0,l),
(1320,1500,l),
(1315,1500,l),
(107,0,l)
);
},
{
closed = 1;
nodes = (
(391,0,l),
(391,4,l),
(-50,4,l),
(-50,0,l)
);
},
{
closed = 1;
nodes = (
(1109,522,l),
(1109,526,l),
(531,526,l),
(531,522,l)
);
},
{
closed = 1;
nodes = (
(1859,0,l),
(1964,450,l),
(1960,450,l),
(1901,196,o),
(1730,4,o),
(1457,4,cs),
(800,4,l),
(800,0,l)
);
},
{
closed = 1;
nodes = (
(1160,0,l),
(1508,1500,l),
(1318,1500,l),
(971,0,l)
);
},
{
closed = 1;
nodes = (
(1593,557,l),
(1692,986,l),
(1688,986,l),
(1659,852,o),
(1569,777,o),
(1456,777,cs),
(1314,777,l),
(1314,773,l),
(1456,773,ls),
(1569,773,o),
(1619,691,o),
(1590,557,c)
);
},
{
closed = 1;
nodes = (
(2092,1090,l),
(2188,1500,l),
(1357,1500,l),
(1357,1496,l),
(1805,1496,ls),
(2039,1496,o),
(2138,1304,o),
(2088,1090,c)
);
}
);
width = 2000;
},
{
background = {
shapes = (
{
closed = 1;
nodes = (
(110,0,l),
(1311,1500,l),
(1222,1500,l),
(12,0,l)
);
},
{
closed = 1;
nodes = (
(351,0,l),
(351,73,l),
(-90,73,l),
(-90,0,l)
);
},
{
closed = 1;
nodes = (
(1069,453,l),
(1069,526,l),
(470,526,l),
(470,453,l)
);
},
{
closed = 1;
nodes = (
(2029,0,l),
(2134,450,l),
(2061,450,l),
(1952,196,o),
(1750,73,o),
(1477,73,cs),
(760,73,l),
(760,0,l)
);
},
{
closed = 1;
nodes = (
(1360,0,l),
(1708,1500,l),
(1278,1500,l),
(931,0,l)
);
},
{
closed = 1;
nodes = (
(1848,497,l),
(1977,1046,l),
(1903,1046,l),
(1824,912,o),
(1689,812,o),
(1576,812,cs),
(1464,812,l),
(1464,739,l),
(1576,739,ls),
(1689,739,o),
(1754,631,o),
(1775,497,c)
);
},
{
closed = 1;
nodes = (
(2262,1090,l),
(2358,1500,l),
(1317,1500,l),
(1317,1427,l),
(1825,1427,ls),
(2059,1427,o),
(2189,1304,o),
(2189,1090,c)
);
}
);
};
layerId = "5A0F1DA2-36F1-48C5-B19D-79E54862F5ED";
shapes = (
{
closed = 1;
nodes = (
(110,0,l),
(1311,1500,l),
(1222,1500,l),
(12,0,l)
);
},
{
closed = 1;
nodes = (
(351,0,l),
(351,73,l),
(-90,73,l),
(-90,0,l)
);
},
{
closed = 1;
nodes = (
(1069,453,l),
(1069,526,l),
(470,526,l),
(470,453,l)
);
},
{
closed = 1;
nodes = (
(2029,0,l),
(2134,450,l),
(2061,450,l),
(1952,196,o),
(1750,73,o),
(1477,73,cs),
(760,73,l),
(760,0,l)
);
},
{
closed = 1;
nodes = (
(1360,0,l),
(1708,1500,l),
(1278,1500,l),
(931,0,l)
);
},
{
closed = 1;
nodes = (
(1848,497,l),
(1977,1046,l),
(1903,1046,l),
(1824,912,o),
(1689,812,o),
(1576,812,cs),
(1464,812,l),
(1464,739,l),
(1576,739,ls),
(1689,739,o),
(1754,631,o),
(1775,497,c)
);
},
{
closed = 1;
nodes = (
(2262,1090,l),
(2358,1500,l),
(1317,1500,l),
(1317,1427,l),
(1825,1427,ls),
(2059,1427,o),
(2189,1304,o),
(2189,1090,c)
);
}
);
width = 2212;
}
);
unicode = 198;
},
{
color = (0,171,232,255);
glyphname = B;
lastChange = "2023-10-05 13:59:01 +0000";
layers = (
{
anchors = (
{
name = bottom;
pos = (506,0);
},
{
name = top;
pos = (804,1500);
}
);
background = {
anchors = (
{
name = bottom;
pos = (506,0);
},
{
name = top;
pos = (804,1500);
}
);
shapes = (
{
closed = 1;
nodes = (
(640,0,ls),
(1002,0,o),
(1380,140,o),
(1380,440,cs),
(1380,683,o),
(1131,762,o),
(868,771,c),
(1169,791,o),
(1490,915,o),
(1490,1170,cs),
(1490,1410,o),
(1292,1500,o),
(930,1500,cs),
(250,1500,l),
(250,1496,l),
(429,1496,l),
(81,4,l),
(-100,4,l),
(-100,0,l)
);
},
{
closed = 1;
nodes = (
(859,1496,l),
(920,1496,ls),
(1012,1496,o),
(1050,1388,o),
(1050,1270,cs),
(1050,1012,o),
(932,772,o),
(780,772,cs),
(619,772,l),
(618,768,l),
(752,768,ls),
(864,768,o),
(920,698,o),
(920,520,cs),
(920,222,o),
(782,4,o),
(640,4,cs),
(511,4,l)
);
}
);
};
layerId = "C8A05DAB-080B-4AF9-9351-1A1E2A671399";
shapes = (
{
closed = 1;
nodes = (
(640,0,ls),
(1002,0,o),
(1380,140,o),
(1380,440,cs),
(1380,683,o),
(1131,762,o),
(868,771,c),
(1169,791,o),
(1490,915,o),
(1490,1170,cs),
(1490,1410,o),
(1292,1500,o),
(930,1500,cs),
(250,1500,l),
(250,1496,l),
(429,1496,l),
(81,4,l),
(-100,4,l),
(-100,0,l)
);
},
{
closed = 1;
nodes = (
(859,1496,l),
(920,1496,ls),
(1012,1496,o),
(1050,1388,o),
(1050,1270,cs),
(1050,1012,o),
(932,772,o),
(780,772,cs),
(619,772,l),
(618,768,l),
(752,768,ls),
(864,768,o),
(920,698,o),
(920,520,cs),
(920,222,o),
(782,4,o),
(640,4,cs),
(511,4,l)
);
}
);
width = 1479;
},
{
anchors = (
{
name = bottom;
pos = (416,0);
},
{
name = top;
pos = (714,1500);
}
);
background = {
anchors = (
{
name = bottom;
pos = (416,0);
},
{
name = top;
pos = (714,1500);
}
);
shapes = (
{
closed = 1;
nodes = (
(529,0,ls),
(871,0,o),
(1150,180,o),
(1150,480,cs),
(1150,653,o),
(1026,750,o),
(810,774,c),
(1066,824,o),
(1260,1006,o),
(1260,1210,cs),
(1260,1410,o),
(1142,1500,o),
(820,1500,cs),
(260,1500,l),
(260,1427,l),
(422,1427,l),
(107,73,l),
(-90,73,l),
(-90,0,l)
);
},
{
closed = 1;
nodes = (
(613,1427,l),
(820,1427,ls),
(992,1427,o),
(1061,1369,o),
(1061,1230,cs),
(1061,932,o),
(822,807,o),
(670,807,cs),
(452,807,l),
(435,733,l),
(682,733,ls),
(834,733,o),
(930,698,o),
(930,520,cs),
(930,262,o),
(771,73,o),
(529,73,cs),
(296,73,l)
);
}
);
};
layerId = "E7986948-7A43-4A74-AC0C-4472ECCDAB04";
shapes = (
{
closed = 1;
nodes = (
(529,0,ls),
(871,0,o),
(1150,180,o),
(1150,480,cs),
(1150,653,o),
(1026,750,o),
(810,774,c),
(1066,824,o),
(1260,1006,o),
(1260,1210,cs),
(1260,1410,o),
(1142,1500,o),
(820,1500,cs),
(260,1500,l),
(260,1427,l),
(422,1427,l),
(107,73,l),
(-90,73,l),
(-90,0,l)
);
},
{
closed = 1;
nodes = (
(613,1427,l),
(820,1427,ls),
(992,1427,o),
(1061,1369,o),
(1061,1230,cs),
(1061,932,o),
(822,807,o),
(670,807,cs),
(452,807,l),
(435,733,l),
(682,733,ls),
(834,733,o),
(930,698,o),
(930,520,cs),
(930,262,o),
(771,73,o),
(529,73,cs),
(296,73,l)
);
}
);
width = 1250;
},
{
anchors = (
{
name = bottom;
pos = (416,0);
},
{
name = top;
pos = (714,1500);
}
);
background = {
anchors = (
{
name = bottom;
pos = (416,0);
},
{
name = top;
pos = (714,1500);
}
);
shapes = (
{
closed = 1;
nodes = (
(530,0,ls),
(872,0,o),
(1150,180,o),
(1150,480,cs),
(1150,670,o),
(1000,763,o),
(742,771,c),
(1031,799,o),
(1260,988,o),
(1260,1210,cs),
(1260,1410,o),
(1142,1500,o),
(820,1500,cs),
(260,1500,l),
(260,1496,l),
(439,1496,l),
(91,4,l),
(-90,4,l),
(-90,0,l)
);
},
{
closed = 1;
nodes = (
(629,1496,l),
(820,1496,ls),
(992,1496,o),
(1060,1368,o),
(1060,1230,cs),
(1060,932,o),
(822,772,o),
(670,772,cs),
(399,772,l),
(398,768,l),
(682,768,ls),
(834,768,o),
(930,698,o),
(930,520,cs),
(930,262,o),
(772,4,o),
(530,4,cs),
(281,4,l)
);
}
);
};
layerId = "F479A047-48C9-4D19-A0FD-B440837ED7E5";
shapes = (
{
closed = 1;
nodes = (
(530,0,ls),
(872,0,o),
(1150,180,o),
(1150,480,cs),
(1150,670,o),
(1000,763,o),
(742,771,c),
(1031,799,o),
(1260,988,o),
(1260,1210,cs),
(1260,1410,o),
(1142,1500,o),
(820,1500,cs),
(260,1500,l),
(260,1496,l),
(439,1496,l),
(91,4,l),
(-90,4,l),
(-90,0,l)
);
},
{
closed = 1;
nodes = (
(629,1496,l),
(820,1496,ls),
(992,1496,o),
(1060,1368,o),
(1060,1230,cs),
(1060,932,o),
(822,772,o),
(670,772,cs),
(399,772,l),
(398,768,l),
(682,768,ls),
(834,768,o),
(930,698,o),
(930,520,cs),
(930,262,o),
(772,4,o),
(530,4,cs),
(281,4,l)
);
}
);
width = 1250;
},
{
anchors = (
{
name = bottom;
pos = (506,0);
},
{
name = top;
pos = (804,1500);
}
);
background = {
anchors = (
{
name = bottom;
pos = (506,0);
},
{
name = top;
pos = (804,1500);
}
);
shapes = (
{
closed = 1;
nodes = (
(641,0,ls),
(1002,0,o),
(1380,139,o),
(1380,439,cs),
(1380,656,o),
(1181,748,o),
(951,772,c),
(1225,810,o),
(1490,940,o),
(1490,1170,cs),
(1490,1410,o),
(1291,1500,o),
(930,1500,cs),
(250,1500,l),
(250,1427,l),
(413,1427,l),
(97,73,l),
(-100,73,l),
(-100,0,l)
);
},
{
closed = 1;
nodes = (
(842,1427,l),
(920,1427,ls),
(1012,1427,o),
(1050,1388,o),
(1050,1270,cs),
(1050,1012,o),
(931,807,o),
(779,807,cs),
(682,807,l),
(665,733,l),
(752,733,ls),
(863,733,o),
(920,698,o),
(920,520,cs),
(920,222,o),
(784,73,o),
(641,73,cs),
(527,73,l)
);
}
);
};
layerId = "5A0F1DA2-36F1-48C5-B19D-79E54862F5ED";
shapes = (
{
closed = 1;
nodes = (
(641,0,ls),
(1002,0,o),
(1380,139,o),
(1380,439,cs),
(1380,656,o),
(1181,748,o),
(951,772,c),
(1225,810,o),
(1490,940,o),
(1490,1170,cs),
(1490,1410,o),
(1291,1500,o),
(930,1500,cs),
(250,1500,l),
(250,1427,l),
(413,1427,l),
(97,73,l),
(-100,73,l),
(-100,0,l)
);
},
{
closed = 1;
nodes = (
(842,1427,l),
(920,1427,ls),
(1012,1427,o),
(1050,1388,o),
(1050,1270,cs),
(1050,1012,o),
(931,807,o),
(779,807,cs),
(682,807,l),
(665,733,l),
(752,733,ls),
(863,733,o),
(920,698,o),
(920,520,cs),
(920,222,o),
(784,73,o),
(641,73,cs),
(527,73,l)
);
}
);
width = 1479;
}
);
unicode = 66;
},
{
color = (0,171,232,255);
glyphname = C;
lastChange = "2023-10-05 13:59:01 +0000";
layers = (
{
anchors = (
{
name = _top;
pos = (686,0);
},
{
name = bottom;
pos = (686,0);
},
{
name = ogonek;
pos = (686,0);
},
{
name = top;
pos = (1006,1501);
}
);
background = {
anchors = (
{
name = _top;
pos = (686,0);
},
{
name = bottom;
pos = (686,0);
},
{
name = ogonek;
pos = (686,0);
},
{
name = top;
pos = (1006,1501);
}
);
shapes = (
{
closed = 1;
nodes = (
(996,-20,o),
(1210,224,o),
(1370,470,c),
(1366,470,l),
(1186,196,o),
(974,-4,o),
(766,-4,cs),
(558,-4,o),
(540,166,o),
(540,350,cs),
(540,714,o),
(722,1500,o),
(1090,1500,cs),
(1218,1500,o),
(1410,1382,o),
(1476,1030,c),
(1480,1030,l),
(1424,1316,o),
(1286,1520,o),
(1010,1520,cs),
(504,1520,o),
(100,1056,o),
(100,510,cs),
(100,184,o),
(344,-20,o),
(710,-20,cs)
);
},
{
closed = 1;
nodes = (
(1260,0,l),
(1370,470,l),
(1366,470,l),
(1318,396,l),
(1235,281,o),
(1154,192,o),
(1074,126,c),
(1256,0,l)
);
},
{
closed = 1;
nodes = (
(1480,1030,l),
(1586,1500,l),
(1582,1500,l),
(1338,1364,l),
(1396,1294,o),
(1426,1222,o),
(1462,1106,c),
(1476,1030,l)
);
}
);
};
layerId = "C8A05DAB-080B-4AF9-9351-1A1E2A671399";
shapes = (
{
closed = 1;
nodes = (
(996,-20,o),
(1210,224,o),
(1370,470,c),
(1366,470,l),
(1186,196,o),
(974,-4,o),
(766,-4,cs),
(558,-4,o),
(540,166,o),
(540,350,cs),
(540,714,o),
(722,1500,o),
(1090,1500,cs),
(1218,1500,o),
(1410,1382,o),
(1476,1030,c),
(1480,1030,l),
(1424,1316,o),
(1286,1520,o),
(1010,1520,cs),
(504,1520,o),
(100,1056,o),
(100,510,cs),
(100,184,o),
(344,-20,o),
(710,-20,cs)
);
},
{
closed = 1;
nodes = (
(1260,0,l),
(1370,470,l),
(1366,470,l),
(1318,396,l),
(1235,281,o),
(1154,192,o),
(1074,126,c),
(1256,0,l)
);
},
{
closed = 1;
nodes = (
(1480,1030,l),
(1586,1500,l),
(1582,1500,l),
(1338,1364,l),
(1396,1294,o),
(1426,1222,o),
(1462,1106,c),
(1476,1030,l)
);
}
);
width = 1455;
},
{
anchors = (
{
name = _top;
pos = (636,0);
},
{
name = bottom;
pos = (636,0);
},
{
name = ogonek;
pos = (636,0);
},
{
name = top;
pos = (966,1500);
}
);
background = {
anchors = (
{
name = _top;
pos = (636,0);
},
{
name = bottom;
pos = (636,0);
},
{
name = ogonek;
pos = (636,0);
},
{
name = top;
pos = (966,1500);
}
);
shapes = (
{
closed = 1;
nodes = (
(906,-20,o),
(1141,164,o),
(1221,410,c),
(1180,410,l),
(1080,206,o),
(909,61,o),
(641,61,cs),
(433,61,o),
(330,187,o),
(330,391,cs),
(330,855,o),
(572,1439,o),
(1000,1439,cs),
(1168,1439,o),
(1356,1354,o),
(1320,1090,c),
(1359,1090,l),
(1395,1376,o),
(1216,1520,o),
(980,1520,cs),
(514,1520,o),
(109,1056,o),
(109,510,cs),
(109,184,o),
(313,-20,o),
(620,-20,cs)
);
},
{
closed = 1;
nodes = (
(1143,0,l),
(1254,410,l),
(1180,410,l),
(1150,286,l),
(1127,244,o),
(1077,190,o),
(1040,141,c),
(1080,0,l)
);
},
{
closed = 1;
nodes = (
(1393,1090,l),
(1489,1500,l),
(1426,1500,l),
(1300,1350,l),
(1324,1287,o),
(1331,1256,o),
(1344,1214,c),
(1320,1090,l)
);
}
);
};
layerId = "E7986948-7A43-4A74-AC0C-4472ECCDAB04";
shapes = (
{
closed = 1;
nodes = (
(906,-20,o),
(1141,164,o),
(1221,410,c),
(1180,410,l),
(1080,206,o),
(909,61,o),
(641,61,cs),
(433,61,o),
(330,187,o),
(330,391,cs),
(330,855,o),
(572,1439,o),
(1000,1439,cs),
(1168,1439,o),
(1356,1354,o),
(1320,1090,c),
(1359,1090,l),
(1395,1376,o),
(1216,1520,o),
(980,1520,cs),
(514,1520,o),
(109,1056,o),
(109,510,cs),
(109,184,o),
(313,-20,o),
(620,-20,cs)
);
},
{
closed = 1;
nodes = (
(1143,0,l),
(1254,410,l),
(1180,410,l),
(1150,286,l),
(1127,244,o),
(1077,190,o),
(1040,141,c),
(1080,0,l)
);
},
{
closed = 1;
nodes = (
(1393,1090,l),
(1489,1500,l),
(1426,1500,l),
(1300,1350,l),
(1324,1287,o),
(1331,1256,o),
(1344,1214,c),
(1320,1090,l)
);
}
);
width = 1358;
},
{
anchors = (
{
name = _top;
pos = (636,0);
},
{
name = bottom;
pos = (636,0);
},
{
name = ogonek;
pos = (636,0);
},
{
name = top;
pos = (966,1500);
}
);
background = {
anchors = (
{
name = _top;
pos = (636,0);
},
{
name = bottom;
pos = (636,0);
},
{
name = ogonek;
pos = (636,0);
},
{
name = top;
pos = (966,1500);
}
);
shapes = (
{
closed = 1;
nodes = (
(906,-20,o),
(1140,164,o),
(1220,410,c),
(1216,410,l),
(1136,172,o),
(908,-12,o),
(640,-12,cs),
(432,-12,o),
(330,186,o),
(330,390,cs),
(330,854,o),
(572,1512,o),
(1000,1512,cs),
(1224,1512,o),
(1392,1364,o),
(1356,1090,c),
(1360,1090,l),
(1396,1376,o),
(1216,1520,o),
(980,1520,cs),
(514,1520,o),
(110,1056,o),
(110,510,cs),
(110,184,o),
(314,-20,o),
(620,-20,cs)
);
},
{
closed = 1;
nodes = (
(1110,0,l),
(1220,410,l),
(1216,410,l),
(1194,348,l),
(1142,238,o),
(1092,192,o),
(1040,140,c),
(1106,0,l)
);
},
{
closed = 1;
nodes = (
(1360,1090,l),
(1456,1500,l),
(1452,1500,l),
(1310,1360,l),
(1352,1300,o),
(1366,1222,o),
(1362,1130,c),
(1356,1090,l)
);
}
);
};
layerId = "F479A047-48C9-4D19-A0FD-B440837ED7E5";
shapes = (
{
closed = 1;
nodes = (
(906,-20,o),
(1140,164,o),
(1220,410,c),
(1216,410,l),
(1136,172,o),
(908,-12,o),
(640,-12,cs),
(432,-12,o),
(330,186,o),
(330,390,cs),
(330,854,o),
(572,1512,o),
(1000,1512,cs),
(1224,1512,o),
(1392,1364,o),
(1356,1090,c),
(1360,1090,l),
(1396,1376,o),
(1216,1520,o),
(980,1520,cs),
(514,1520,o),
(110,1056,o),
(110,510,cs),
(110,184,o),
(314,-20,o),
(620,-20,cs)
);
},
{
closed = 1;
nodes = (
(1110,0,l),
(1220,410,l),
(1216,410,l),
(1194,348,l),
(1142,238,o),
(1092,192,o),
(1040,140,c),
(1106,0,l)
);
},
{
closed = 1;
nodes = (
(1360,1090,l),
(1456,1500,l),
(1452,1500,l),
(1310,1360,l),
(1352,1300,o),
(1366,1222,o),
(1362,1130,c),
(1356,1090,l)
);
}
);
width = 1325;
},
{
anchors = (
{
name = _top;
pos = (686,0);
},
{
name = bottom;
pos = (686,0);
},
{
name = ogonek;
pos = (686,0);
},
{
name = top;
pos = (1006,1501);
}
);
background = {
anchors = (
{
name = _top;
pos = (686,0);
},
{
name = bottom;
pos = (686,0);
},
{
name = ogonek;
pos = (686,0);
},
{
name = top;
pos = (1006,1501);
}
);
shapes = (
{
closed = 1;
nodes = (
(996,-20,o),
(1210,225,o),
(1370,471,c),
(1330,471,l),
(1150,267,o),
(974,69,o),
(766,69,cs),
(558,69,o),
(540,166,o),
(540,350,cs),
(540,713,o),
(722,1427,o),
(1090,1427,cs),
(1218,1427,o),
(1357,1334,o),
(1439,1029,c),
(1480,1029,l),
(1453,1315,o),
(1285,1520,o),
(1010,1520,cs),
(504,1520,o),
(100,1056,o),
(100,510,cs),
(100,184,o),
(344,-20,o),
(710,-20,cs)
);
},
{
closed = 1;
nodes = (
(1293,0,l),
(1403,471,l),
(1330,471,l),
(1221,286,l),
(1165,221,o),
(1108,177,o),
(1050,141,c),
(1230,0,l)
);
},
{
closed = 1;
nodes = (
(1514,1029,l),
(1619,1500,l),
(1557,1500,l),
(1311,1350,l),
(1352,1311,o),
(1388,1268,o),
(1414,1214,c),
(1439,1029,l)
);
}
);
};
layerId = "5A0F1DA2-36F1-48C5-B19D-79E54862F5ED";
shapes = (
{
closed = 1;
nodes = (
(996,-20,o),
(1210,225,o),
(1370,471,c),
(1330,471,l),
(1150,267,o),
(974,69,o),
(766,69,cs),
(558,69,o),
(540,166,o),
(540,350,cs),
(540,713,o),
(722,1427,o),
(1090,1427,cs),
(1218,1427,o),
(1357,1334,o),
(1439,1029,c),
(1480,1029,l),
(1453,1315,o),
(1285,1520,o),
(1010,1520,cs),
(504,1520,o),
(100,1056,o),
(100,510,cs),
(100,184,o),
(344,-20,o),
(710,-20,cs)
);
},
{
closed = 1;
nodes = (
(1293,0,l),
(1403,471,l),
(1330,471,l),
(1221,286,l),
(1165,221,o),
(1108,177,o),
(1050,141,c),
(1230,0,l)
);
},
{
closed = 1;
nodes = (
(1514,1029,l),
(1619,1500,l),
(1557,1500,l),
(1311,1350,l),
(1352,1311,o),
(1388,1268,o),
(1414,1214,c),
(1439,1029,l)
);
}
);
width = 1455;
}
);
unicode = 67;
},
{
color = 10;
glyphname = Cacute;
lastChange = "2023-10-05 13:59:28 +0000";
layers = (
{
background = {
anchors = (
{
name = ogonek;
pos = (686,0);
},
{
name = top;
pos = (1006,1501);
}
);
shapes = (
{
closed = 1;
nodes = (
(996,-20,o),
(1210,224,o),
(1370,470,c),
(1366,470,l),
(1186,196,o),
(974,-4,o),
(766,-4,cs),
(558,-4,o),
(540,166,o),
(540,350,cs),
(540,714,o),
(722,1500,o),
(1090,1500,cs),
(1218,1500,o),
(1410,1382,o),
(1476,1030,c),
(1480,1030,l),
(1424,1316,o),
(1286,1520,o),
(1010,1520,cs),
(504,1520,o),
(100,1056,o),
(100,510,cs),
(100,184,o),
(344,-20,o),
(710,-20,cs)
);
},
{
closed = 1;
nodes = (
(1260,0,l),
(1370,470,l),
(1366,470,l),
(1318,396,l),
(1235,281,o),
(1154,192,o),
(1074,126,c),
(1256,0,l)
);
},
{
closed = 1;
nodes = (
(1480,1030,l),
(1586,1500,l),
(1582,1500,l),
(1338,1364,l),
(1396,1294,o),
(1426,1222,o),
(1462,1106,c),
(1476,1030,l)
);
},
{
closed = 1;
nodes = (
(1232,1719,ls),
(1392,1738,o),
(1448,1906,o),
(1382,2002,cs),
(1328,2080,o),
(1150,2106,o),
(1077,1957,cs),
(944,1686,l),
(945,1684,l)
);
}
);
};
layerId = "C8A05DAB-080B-4AF9-9351-1A1E2A671399";
shapes = (
{
ref = C;
},
{
pos = (370,1);
ref = acutecomb;
}
);
width = 1455;
},
{
background = {
anchors = (
{
name = ogonek;
pos = (636,0);
},
{
name = top;
pos = (966,1500);
}
);
shapes = (
{
closed = 1;
nodes = (
(906,-20,o),
(1141,164,o),
(1221,410,c),
(1180,410,l),
(1080,206,o),
(909,61,o),
(641,61,cs),
(433,61,o),
(330,187,o),
(330,391,cs),
(330,855,o),
(572,1439,o),
(1000,1439,cs),
(1168,1439,o),
(1356,1354,o),
(1320,1090,c),
(1359,1090,l),
(1395,1376,o),
(1216,1520,o),
(980,1520,cs),
(514,1520,o),
(109,1056,o),
(109,510,cs),
(109,184,o),
(313,-20,o),
(620,-20,cs)
);
},
{
closed = 1;
nodes = (
(1143,0,l),
(1254,410,l),
(1180,410,l),
(1150,286,l),
(1127,244,o),
(1077,190,o),
(1040,141,c),
(1080,0,l)
);
},
{
closed = 1;
nodes = (
(1393,1090,l),
(1489,1500,l),
(1426,1500,l),
(1300,1350,l),
(1324,1287,o),
(1331,1256,o),
(1344,1214,c),
(1320,1090,l)
);
},
{
closed = 1;
nodes = (
(1168,1817,ls),
(1200,1836,o),
(1214,1882,o),
(1195,1915,cs),
(1176,1948,o),
(1125,1967,o),
(1083,1926,cs),
(871,1719,l),
(916,1670,l)
);
}
);
};
layerId = "E7986948-7A43-4A74-AC0C-4472ECCDAB04";
shapes = (
{
ref = C;
},
{
pos = (228,0);
ref = acutecomb;
}
);
width = 1358;
},
{
background = {
anchors = (
{
name = ogonek;
pos = (636,0);
},
{
name = top;
pos = (966,1500);
}
);
shapes = (
{
closed = 1;
nodes = (
(906,-20,o),
(1140,164,o),
(1220,410,c),
(1216,410,l),
(1136,172,o),
(908,-12,o),
(640,-12,cs),
(432,-12,o),
(330,186,o),
(330,390,cs),
(330,854,o),
(572,1512,o),
(1000,1512,cs),
(1224,1512,o),
(1392,1364,o),
(1356,1090,c),
(1360,1090,l),
(1396,1376,o),
(1216,1520,o),
(980,1520,cs),
(514,1520,o),
(110,1056,o),
(110,510,cs),
(110,184,o),
(314,-20,o),
(620,-20,cs)
);
},
{
closed = 1;
nodes = (
(1110,0,l),
(1220,410,l),
(1216,410,l),
(1194,348,l),
(1142,238,o),
(1092,192,o),
(1040,140,c),
(1106,0,l)
);
},
{
closed = 1;
nodes = (
(1360,1090,l),
(1456,1500,l),
(1452,1500,l),
(1310,1360,l),
(1352,1300,o),
(1366,1222,o),
(1362,1130,c),
(1356,1090,l)
);
},
{
closed = 1;
nodes = (
(1168,1817,ls),
(1200,1836,o),
(1214,1882,o),
(1195,1915,cs),
(1176,1948,o),
(1125,1967,o),
(1083,1926,cs),
(894,1694,l),
(896,1692,l)
);
}
);
};
layerId = "F479A047-48C9-4D19-A0FD-B440837ED7E5";
shapes = (
{
ref = C;
},
{
pos = (243,0);
ref = acutecomb;
}
);
width = 1325;
},
{
background = {
anchors = (
{
name = ogonek;
pos = (686,0);
},
{
name = top;
pos = (1006,1501);
}
);
shapes = (
{
closed = 1;
nodes = (
(996,-20,o),
(1210,225,o),
(1370,471,c),
(1330,471,l),
(1150,267,o),
(974,69,o),
(766,69,cs),
(558,69,o),
(540,166,o),
(540,350,cs),
(540,713,o),
(722,1427,o),
(1090,1427,cs),
(1218,1427,o),
(1357,1334,o),
(1439,1029,c),
(1480,1029,l),
(1453,1315,o),
(1285,1520,o),
(1010,1520,cs),
(504,1520,o),
(100,1056,o),
(100,510,cs),
(100,184,o),
(344,-20,o),
(710,-20,cs)
);
},
{
closed = 1;
nodes = (
(1293,0,l),
(1403,471,l),
(1330,471,l),
(1221,286,l),
(1165,221,o),
(1108,177,o),
(1050,141,c),
(1230,0,l)
);
},
{
closed = 1;
nodes = (
(1514,1029,l),
(1619,1500,l),
(1557,1500,l),
(1311,1350,l),
(1352,1311,o),
(1388,1268,o),
(1414,1214,c),
(1439,1029,l)
);
},
{
closed = 1;
nodes = (
(1232,1719,ls),
(1390,1753,o),
(1448,1906,o),
(1382,2002,cs),
(1328,2080,o),
(1163,2100,o),
(1077,1957,cs),
(928,1709,l),
(960,1661,l)
);
}
);
};
layerId = "5A0F1DA2-36F1-48C5-B19D-79E54862F5ED";
shapes = (
{
ref = C;
},
{
pos = (359,1);
ref = acutecomb;
}
);
width = 1455;
}
);
unicode = 262;
},
{
color = 10;
glyphname = Ccaron;
lastChange = "2023-10-05 13:59:28 +0000";
layers = (
{
background = {
anchors = (
{
name = ogonek;
pos = (686,0);
},
{
name = top;
pos = (1006,1501);
}
);
shapes = (
{
closed = 1;
nodes = (
(996,-20,o),
(1210,224,o),
(1370,470,c),
(1366,470,l),
(1186,196,o),
(974,-4,o),
(766,-4,cs),
(558,-4,o),
(540,166,o),
(540,350,cs),
(540,714,o),
(722,1500,o),
(1090,1500,cs),
(1218,1500,o),
(1410,1382,o),
(1476,1030,c),
(1480,1030,l),
(1424,1316,o),
(1286,1520,o),
(1010,1520,cs),
(504,1520,o),
(100,1056,o),
(100,510,cs),
(100,184,o),
(344,-20,o),
(710,-20,cs)
);
},
{
closed = 1;
nodes = (
(1260,0,l),
(1370,470,l),
(1366,470,l),
(1318,396,l),
(1235,281,o),
(1154,192,o),
(1074,126,c),
(1256,0,l)
);
},
{
closed = 1;
nodes = (
(1480,1030,l),
(1586,1500,l),
(1582,1500,l),
(1338,1364,l),
(1396,1294,o),
(1426,1222,o),
(1462,1106,c),
(1476,1030,l)
);
},
{
closed = 1;
nodes = (
(1161,1701,l),
(1485,2021,l),
(1483,2023,l),
(1061,1891,l),
(717,2023,l),
(715,2021,l),
(951,1701,l)
);
}
);
};
layerId = "C8A05DAB-080B-4AF9-9351-1A1E2A671399";
shapes = (
{
ref = C;
},
{
pos = (240,1);
ref = caroncomb;
}
);
width = 1455;
},
{
background = {
anchors = (
{
name = ogonek;
pos = (636,0);
},
{
name = top;
pos = (966,1500);
}
);
shapes = (
{
closed = 1;
nodes = (
(906,-20,o),
(1141,164,o),
(1221,410,c),
(1180,410,l),
(1080,206,o),
(909,61,o),
(641,61,cs),
(433,61,o),
(330,187,o),
(330,391,cs),
(330,855,o),
(572,1439,o),
(1000,1439,cs),
(1168,1439,o),
(1356,1354,o),
(1320,1090,c),
(1359,1090,l),
(1395,1376,o),
(1216,1520,o),
(980,1520,cs),
(514,1520,o),
(109,1056,o),
(109,510,cs),
(109,184,o),
(313,-20,o),
(620,-20,cs)
);
},
{
closed = 1;
nodes = (
(1143,0,l),
(1254,410,l),
(1180,410,l),
(1150,286,l),
(1127,244,o),
(1077,190,o),
(1040,141,c),
(1080,0,l)
);
},
{
closed = 1;
nodes = (
(1393,1090,l),
(1489,1500,l),
(1426,1500,l),
(1300,1350,l),
(1324,1287,o),
(1331,1256,o),
(1344,1214,c),
(1320,1090,l)
);
},
{
closed = 1;
nodes = (
(1080,1700,l),
(1345,1921,l),
(1303,1962,l),
(1021,1790,l),
(823,1967,l),
(775,1921,l),
(952,1700,l)
);
}
);
};
layerId = "E7986948-7A43-4A74-AC0C-4472ECCDAB04";
shapes = (
{
ref = C;
},
{
pos = (223,0);
ref = caroncomb;
}
);
width = 1358;
},
{
background = {
anchors = (
{
name = ogonek;
pos = (636,0);
},
{
name = top;
pos = (966,1500);
}
);
shapes = (
{
closed = 1;
nodes = (
(906,-20,o),
(1140,164,o),
(1220,410,c),
(1216,410,l),
(1136,172,o),
(908,-12,o),
(640,-12,cs),
(432,-12,o),
(330,186,o),
(330,390,cs),
(330,854,o),
(572,1512,o),
(1000,1512,cs),
(1224,1512,o),
(1392,1364,o),
(1356,1090,c),
(1360,1090,l),
(1396,1376,o),
(1216,1520,o),
(980,1520,cs),
(514,1520,o),
(110,1056,o),
(110,510,cs),
(110,184,o),
(314,-20,o),
(620,-20,cs)
);
},
{
closed = 1;
nodes = (
(1110,0,l),
(1220,410,l),
(1216,410,l),
(1194,348,l),
(1142,238,o),
(1092,192,o),
(1040,140,c),
(1106,0,l)
);
},
{
closed = 1;
nodes = (
(1360,1090,l),
(1456,1500,l),
(1452,1500,l),
(1310,1360,l),
(1352,1300,o),
(1366,1222,o),
(1362,1130,c),
(1356,1090,l)
);
},
{
closed = 1;
nodes = (
(1080,1700,l),
(1345,1921,l),
(1341,1925,l),
(1021,1790,l),
(779,1925,l),
(775,1921,l),
(952,1700,l)
);
}
);
};
layerId = "F479A047-48C9-4D19-A0FD-B440837ED7E5";
shapes = (
{
ref = C;
},
{
pos = (223,0);
ref = caroncomb;
}
);
width = 1325;
},
{
background = {
anchors = (
{
name = ogonek;
pos = (686,0);
},
{
name = top;
pos = (1006,1501);
}
);
shapes = (
{
closed = 1;
nodes = (
(996,-20,o),
(1210,225,o),
(1370,471,c),
(1330,471,l),
(1150,267,o),
(974,69,o),
(766,69,cs),
(558,69,o),
(540,166,o),
(540,350,cs),
(540,713,o),
(722,1427,o),
(1090,1427,cs),
(1218,1427,o),
(1357,1334,o),
(1439,1029,c),
(1480,1029,l),
(1453,1315,o),
(1285,1520,o),
(1010,1520,cs),
(504,1520,o),
(100,1056,o),
(100,510,cs),
(100,184,o),
(344,-20,o),
(710,-20,cs)
);
},
{
closed = 1;
nodes = (
(1293,0,l),
(1403,471,l),
(1330,471,l),
(1221,286,l),
(1165,221,o),
(1108,177,o),
(1050,141,c),
(1230,0,l)
);
},
{
closed = 1;
nodes = (
(1514,1029,l),
(1619,1500,l),
(1557,1500,l),
(1311,1350,l),
(1352,1311,o),
(1388,1268,o),
(1414,1214,c),
(1439,1029,l)
);
},
{
closed = 1;
nodes = (
(1161,1701,l),
(1486,2022,l),
(1451,2057,l),
(1061,1893,l),
(755,2062,l),
(715,2022,l),
(951,1701,l)
);
}
);
};
layerId = "5A0F1DA2-36F1-48C5-B19D-79E54862F5ED";
shapes = (
{
ref = C;
},
{
pos = (240,1);
ref = caroncomb;
}
);
width = 1455;
}
);
unicode = 268;
},
{
color = 10;
glyphname = Ccedilla;
lastChange = "2023-10-05 13:59:28 +0000";
layers = (
{
background = {
anchors = (
{
name = ogonek;
pos = (686,0);
},
{
name = top;
pos = (1006,1501);
}
);
shapes = (
{
closed = 1;
nodes = (
(996,-20,o),
(1210,224,o),
(1370,470,c),
(1366,470,l),
(1186,196,o),
(974,-4,o),
(766,-4,cs),
(558,-4,o),
(540,166,o),
(540,350,cs),
(540,714,o),
(722,1500,o),
(1090,1500,cs),
(1218,1500,o),
(1410,1382,o),
(1476,1030,c),
(1480,1030,l),
(1424,1316,o),
(1286,1520,o),
(1010,1520,cs),
(504,1520,o),
(100,1056,o),
(100,510,cs),
(100,184,o),
(344,-20,o),
(710,-20,cs)
);
},
{
closed = 1;
nodes = (
(1260,0,l),
(1370,470,l),
(1366,470,l),
(1318,396,l),
(1235,281,o),
(1154,192,o),
(1074,126,c),
(1256,0,l)
);
},
{
closed = 1;
nodes = (
(1480,1030,l),
(1586,1500,l),
(1582,1500,l),
(1338,1364,l),
(1396,1294,o),
(1426,1222,o),
(1462,1106,c),
(1476,1030,l)
);
},
{
closed = 1;
nodes = (
(629,-510,o),
(873,-450,o),
(873,-290,cs),
(873,-170,o),
(704,-148,o),
(523,-148,c),
(672,2,l),
(668,2,l),
(439,-228,l),
(529,-228,o),
(563,-264,o),
(563,-330,cs),
(563,-444,o),
(481,-506,o),
(367,-506,c),
(367,-510,l)
);
}
);
};
layerId = "C8A05DAB-080B-4AF9-9351-1A1E2A671399";
shapes = (
{
ref = C;
},
{
pos = (320,0);
ref = cedillacomb;
}
);
width = 1455;
},
{
background = {
anchors = (
{
name = ogonek;
pos = (636,0);
},
{
name = top;
pos = (966,1500);
}
);
shapes = (
{
closed = 1;
nodes = (
(906,-20,o),
(1141,164,o),
(1221,410,c),
(1180,410,l),
(1080,206,o),
(909,61,o),
(641,61,cs),
(433,61,o),
(330,187,o),
(330,391,cs),
(330,855,o),
(572,1439,o),
(1000,1439,cs),
(1168,1439,o),
(1356,1354,o),
(1320,1090,c),
(1359,1090,l),
(1395,1376,o),
(1216,1520,o),
(980,1520,cs),
(514,1520,o),
(109,1056,o),
(109,510,cs),
(109,184,o),
(313,-20,o),
(620,-20,cs)
);
},
{
closed = 1;
nodes = (
(1143,0,l),
(1254,410,l),
(1180,410,l),
(1150,286,l),
(1127,244,o),
(1077,190,o),
(1040,141,c),
(1080,0,l)
);
},
{
closed = 1;
nodes = (
(1393,1090,l),
(1489,1500,l),
(1426,1500,l),
(1300,1350,l),
(1324,1287,o),
(1331,1256,o),
(1344,1214,c),
(1320,1090,l)
);
},
{
closed = 1;
nodes = (
(695,-509,o),
(791,-410,o),
(791,-310,cs),
(791,-199,o),
(719,-154,o),
(574,-148,c),
(694,12,l),
(604,12,l),
(425,-228,l),
(555,-228,o),
(649,-254,o),
(649,-336,cs),
(649,-395,o),
(571,-437,o),
(453,-437,c),
(453,-509,l)
);
}
);
};
layerId = "E7986948-7A43-4A74-AC0C-4472ECCDAB04";
shapes = (
{
ref = C;
},
{
pos = (278,0);
ref = cedillacomb;
}
);
width = 1358;
},
{
background = {
anchors = (
{
name = ogonek;
pos = (636,0);
},
{
name = top;
pos = (966,1500);
}
);
shapes = (
{
closed = 1;
nodes = (
(906,-20,o),
(1140,164,o),
(1220,410,c),
(1216,410,l),
(1136,172,o),
(908,-12,o),
(640,-12,cs),
(432,-12,o),
(330,186,o),
(330,390,cs),
(330,854,o),
(572,1512,o),
(1000,1512,cs),
(1224,1512,o),
(1392,1364,o),
(1356,1090,c),
(1360,1090,l),
(1396,1376,o),
(1216,1520,o),
(980,1520,cs),
(514,1520,o),
(110,1056,o),
(110,510,cs),
(110,184,o),
(314,-20,o),
(620,-20,cs)
);
},
{
closed = 1;
nodes = (
(1110,0,l),
(1220,410,l),
(1216,410,l),
(1194,348,l),
(1142,238,o),
(1092,192,o),
(1040,140,c),
(1106,0,l)
);
},
{
closed = 1;
nodes = (
(1360,1090,l),
(1456,1500,l),
(1452,1500,l),
(1310,1360,l),
(1352,1300,o),
(1366,1222,o),
(1362,1130,c),
(1356,1090,l)
);
},
{
closed = 1;
nodes = (
(627,-510,o),
(791,-410,o),
(791,-290,cs),
(791,-190,o),
(683,-148,o),
(521,-148,c),
(681,12,l),
(677,12,l),
(437,-228,l),
(567,-228,o),
(641,-244,o),
(641,-330,cs),
(641,-444,o),
(539,-506,o),
(425,-506,c),
(425,-510,l)
);
}
);
};
layerId = "F479A047-48C9-4D19-A0FD-B440837ED7E5";
shapes = (
{
ref = C;
},
{
pos = (282,0);
ref = cedillacomb;
}
);
width = 1325;
},
{
background = {
anchors = (
{
name = ogonek;
pos = (686,0);
},
{
name = top;
pos = (1006,1501);
}
);
shapes = (
{
closed = 1;
nodes = (
(996,-20,o),
(1210,225,o),
(1370,471,c),
(1330,471,l),
(1150,267,o),
(974,69,o),
(766,69,cs),
(558,69,o),
(540,166,o),
(540,350,cs),
(540,713,o),
(722,1427,o),
(1090,1427,cs),
(1218,1427,o),
(1357,1334,o),
(1439,1029,c),
(1480,1029,l),
(1453,1315,o),
(1285,1520,o),
(1010,1520,cs),
(504,1520,o),
(100,1056,o),
(100,510,cs),
(100,184,o),
(344,-20,o),
(710,-20,cs)
);
},
{
closed = 1;
nodes = (
(1293,0,l),
(1403,471,l),
(1330,471,l),
(1221,286,l),
(1165,221,o),
(1108,177,o),
(1050,141,c),
(1230,0,l)
);
},
{
closed = 1;
nodes = (
(1514,1029,l),
(1619,1500,l),
(1557,1500,l),
(1311,1350,l),
(1352,1311,o),
(1388,1268,o),
(1414,1214,c),
(1439,1029,l)
);
},
{
closed = 1;
nodes = (
(629,-509,o),
(873,-451,o),
(873,-291,cs),
(873,-187,o),
(745,-156,o),
(606,-149,c),
(768,12,l),
(654,12,l),
(414,-228,l),
(504,-228,o),
(563,-264,o),
(563,-330,cs),
(563,-426,o),
(474,-437,o),
(367,-437,c),
(367,-509,l)
);
}
);
};
layerId = "5A0F1DA2-36F1-48C5-B19D-79E54862F5ED";
shapes = (
{
ref = C;
},
{
pos = (311,0);
ref = cedillacomb;
}
);
width = 1455;
}
);
unicode = 199;
},
{
color = 10;
glyphname = Ccircumflex;
lastChange = "2023-10-05 13:59:28 +0000";
layers = (
{
background = {
anchors = (
{
name = ogonek;
pos = (686,0);
},
{
name = top;
pos = (1006,1501);
}
);
shapes = (
{
closed = 1;
nodes = (
(996,-20,o),
(1210,224,o),
(1370,470,c),
(1366,470,l),
(1186,196,o),
(974,-4,o),
(766,-4,cs),
(558,-4,o),
(540,166,o),
(540,350,cs),
(540,714,o),
(722,1500,o),
(1090,1500,cs),
(1218,1500,o),
(1410,1382,o),
(1476,1030,c),
(1480,1030,l),
(1424,1316,o),
(1286,1520,o),
(1010,1520,cs),
(504,1520,o),
(100,1056,o),
(100,510,cs),
(100,184,o),
(344,-20,o),
(710,-20,cs)
);
},
{
closed = 1;
nodes = (
(1260,0,l),
(1370,470,l),
(1366,470,l),
(1318,396,l),
(1235,281,o),
(1154,192,o),
(1074,126,c),
(1256,0,l)
);
},
{
closed = 1;
nodes = (
(1480,1030,l),
(1586,1500,l),
(1582,1500,l),
(1338,1364,l),
(1396,1294,o),
(1426,1222,o),
(1462,1106,c),
(1476,1030,l)
);
},
{
closed = 1;
nodes = (
(1094,1850,l),
(1438,1718,l),
(1440,1720,l),
(1204,2040,l),
(994,2040,l),
(670,1720,l),
(672,1718,l)
);
}
);
};
layerId = "C8A05DAB-080B-4AF9-9351-1A1E2A671399";
shapes = (
{
ref = C;
},
{
pos = (264,1);
ref = circumflexcomb;
}
);
width = 1455;
},
{
background = {
anchors = (
{
name = ogonek;
pos = (636,0);
},
{
name = top;
pos = (966,1500);
}
);
shapes = (
{
closed = 1;
nodes = (
(906,-20,o),
(1141,164,o),
(1221,410,c),
(1180,410,l),
(1080,206,o),
(909,61,o),
(641,61,cs),
(433,61,o),
(330,187,o),
(330,391,cs),
(330,855,o),
(572,1439,o),
(1000,1439,cs),
(1168,1439,o),
(1356,1354,o),
(1320,1090,c),
(1359,1090,l),
(1395,1376,o),
(1216,1520,o),
(980,1520,cs),
(514,1520,o),
(109,1056,o),
(109,510,cs),
(109,184,o),
(313,-20,o),
(620,-20,cs)
);
},
{
closed = 1;
nodes = (
(1143,0,l),
(1254,410,l),
(1180,410,l),
(1150,286,l),
(1127,244,o),
(1077,190,o),
(1040,141,c),
(1080,0,l)
);
},
{
closed = 1;
nodes = (
(1393,1090,l),
(1489,1500,l),
(1426,1500,l),
(1300,1350,l),
(1324,1287,o),
(1331,1256,o),
(1344,1214,c),
(1320,1090,l)
);
},
{
closed = 1;
nodes = (
(1053,1849,l),
(1251,1672,l),
(1299,1719,l),
(1122,1939,l),
(992,1939,l),
(728,1719,l),
(769,1677,l)
);
}
);
};
layerId = "E7986948-7A43-4A74-AC0C-4472ECCDAB04";
shapes = (
{
ref = C;
},
{
pos = (222,0);
ref = circumflexcomb;
}
);
width = 1358;
},
{
background = {
anchors = (
{
name = ogonek;
pos = (636,0);
},
{
name = top;
pos = (966,1500);
}
);
shapes = (
{
closed = 1;
nodes = (
(906,-20,o),
(1140,164,o),
(1220,410,c),
(1216,410,l),
(1136,172,o),
(908,-12,o),
(640,-12,cs),
(432,-12,o),
(330,186,o),
(330,390,cs),
(330,854,o),
(572,1512,o),
(1000,1512,cs),
(1224,1512,o),
(1392,1364,o),
(1356,1090,c),
(1360,1090,l),
(1396,1376,o),
(1216,1520,o),
(980,1520,cs),
(514,1520,o),
(110,1056,o),
(110,510,cs),
(110,184,o),
(314,-20,o),
(620,-20,cs)
);
},
{
closed = 1;
nodes = (
(1110,0,l),
(1220,410,l),
(1216,410,l),
(1194,348,l),
(1142,238,o),
(1092,192,o),
(1040,140,c),
(1106,0,l)
);
},
{
closed = 1;
nodes = (
(1360,1090,l),
(1456,1500,l),
(1452,1500,l),
(1310,1360,l),
(1352,1300,o),
(1366,1222,o),
(1362,1130,c),
(1356,1090,l)
);
},
{
closed = 1;
nodes = (
(1053,1849,l),
(1298,1716,l),
(1299,1719,l),
(1122,1939,l),
(992,1939,l),
(728,1719,l),
(731,1716,l)
);
}
);
};
layerId = "F479A047-48C9-4D19-A0FD-B440837ED7E5";
shapes = (
{
ref = C;
},
{
pos = (222,0);
ref = circumflexcomb;
}
);
width = 1325;
},
{
background = {
anchors = (
{
name = ogonek;
pos = (686,0);
},
{
name = top;
pos = (1006,1501);
}
);
shapes = (
{
closed = 1;
nodes = (
(996,-20,o),
(1210,225,o),
(1370,471,c),
(1330,471,l),
(1150,267,o),
(974,69,o),
(766,69,cs),
(558,69,o),
(540,166,o),
(540,350,cs),
(540,713,o),
(722,1427,o),
(1090,1427,cs),
(1218,1427,o),
(1357,1334,o),
(1439,1029,c),
(1480,1029,l),
(1453,1315,o),
(1285,1520,o),
(1010,1520,cs),
(504,1520,o),
(100,1056,o),
(100,510,cs),
(100,184,o),
(344,-20,o),
(710,-20,cs)
);
},
{
closed = 1;
nodes = (
(1293,0,l),
(1403,471,l),
(1330,471,l),
(1221,286,l),
(1165,221,o),
(1108,177,o),
(1050,141,c),
(1230,0,l)
);
},
{
closed = 1;
nodes = (
(1514,1029,l),
(1619,1500,l),
(1557,1500,l),
(1311,1350,l),
(1352,1311,o),
(1388,1268,o),
(1414,1214,c),
(1439,1029,l)
);
},
{
closed = 1;
nodes = (
(1093,1850,l),
(1404,1686,l),
(1439,1721,l),
(1203,2040,l),
(994,2040,l),
(669,1721,l),
(708,1681,l)
);
}
);
};
layerId = "5A0F1DA2-36F1-48C5-B19D-79E54862F5ED";
shapes = (
{
ref = C;
},
{
pos = (263,1);
ref = circumflexcomb;
}
);
width = 1455;
}
);
unicode = 264;
},
{
color = 10;
glyphname = Cdotaccent;
lastChange = "2023-10-05 13:59:28 +0000";
layers = (
{
background = {
anchors = (
{
name = ogonek;
pos = (686,0);
},
{
name = top;
pos = (1006,1501);
}
);
shapes = (
{
closed = 1;
nodes = (
(996,-20,o),
(1210,224,o),
(1370,470,c),
(1366,470,l),
(1186,196,o),
(974,-4,o),
(766,-4,cs),
(558,-4,o),
(540,166,o),
(540,350,cs),
(540,714,o),
(722,1500,o),
(1090,1500,cs),
(1218,1500,o),
(1410,1382,o),
(1476,1030,c),
(1480,1030,l),
(1424,1316,o),
(1286,1520,o),
(1010,1520,cs),
(504,1520,o),
(100,1056,o),
(100,510,cs),
(100,184,o),
(344,-20,o),
(710,-20,cs)
);
},
{
closed = 1;
nodes = (
(1260,0,l),
(1370,470,l),
(1366,470,l),
(1318,396,l),
(1235,281,o),
(1154,192,o),
(1074,126,c),
(1256,0,l)
);
},
{
closed = 1;
nodes = (
(1480,1030,l),
(1586,1500,l),
(1582,1500,l),
(1338,1364,l),
(1396,1294,o),
(1426,1222,o),
(1462,1106,c),
(1476,1030,l)
);
},
{
closed = 1;
nodes = (
(1220,1660,o),
(1315,1765,o),
(1315,1881,cs),
(1315,1997,o),
(1220,2101,o),
(1094,2101,cs),
(968,2101,o),
(875,1997,o),
(875,1881,cs),
(875,1765,o),
(968,1660,o),
(1094,1660,cs)
);
}
);
};
layerId = "C8A05DAB-080B-4AF9-9351-1A1E2A671399";
shapes = (
{
ref = C;
},
{
pos = (400,581);
ref = dotaccentcomb;
}
);
width = 1455;
},
{
background = {
anchors = (
{
name = ogonek;
pos = (636,0);
},
{
name = top;
pos = (966,1500);
}
);
shapes = (
{
closed = 1;
nodes = (
(906,-20,o),
(1141,164,o),
(1221,410,c),
(1180,410,l),
(1080,206,o),
(909,61,o),
(641,61,cs),
(433,61,o),
(330,187,o),
(330,391,cs),
(330,855,o),
(572,1439,o),
(1000,1439,cs),
(1168,1439,o),
(1356,1354,o),
(1320,1090,c),
(1359,1090,l),
(1395,1376,o),
(1216,1520,o),
(980,1520,cs),
(514,1520,o),
(109,1056,o),
(109,510,cs),
(109,184,o),
(313,-20,o),
(620,-20,cs)
);
},
{
closed = 1;
nodes = (
(1143,0,l),
(1254,410,l),
(1180,410,l),
(1150,286,l),
(1127,244,o),
(1077,190,o),
(1040,141,c),
(1080,0,l)
);
},
{
closed = 1;
nodes = (
(1393,1090,l),
(1489,1500,l),
(1426,1500,l),
(1300,1350,l),
(1324,1287,o),
(1331,1256,o),
(1344,1214,c),
(1320,1090,l)
);
},
{
closed = 1;
nodes = (
(1132,1851,o),
(1187,1906,o),
(1187,1972,cs),
(1187,2038,o),
(1132,2092,o),
(1066,2092,cs),
(1000,2092,o),
(947,2038,o),
(947,1972,cs),
(947,1906,o),
(1000,1851,o),
(1066,1851,cs)
);
}
);
};
layerId = "E7986948-7A43-4A74-AC0C-4472ECCDAB04";
shapes = (
{
ref = C;
},
{
pos = (360,580);
ref = dotaccentcomb;
}
);
width = 1358;
},
{
background = {
anchors = (
{
name = ogonek;
pos = (636,0);
},
{
name = top;
pos = (966,1500);
}
);
shapes = (
{
closed = 1;
nodes = (
(906,-20,o),
(1140,164,o),
(1220,410,c),
(1216,410,l),
(1136,172,o),
(908,-12,o),
(640,-12,cs),
(432,-12,o),
(330,186,o),
(330,390,cs),
(330,854,o),
(572,1512,o),
(1000,1512,cs),
(1224,1512,o),
(1392,1364,o),
(1356,1090,c),
(1360,1090,l),
(1396,1376,o),
(1216,1520,o),
(980,1520,cs),
(514,1520,o),
(110,1056,o),
(110,510,cs),
(110,184,o),
(314,-20,o),
(620,-20,cs)
);
},
{
closed = 1;
nodes = (
(1110,0,l),
(1220,410,l),
(1216,410,l),
(1194,348,l),
(1142,238,o),
(1092,192,o),
(1040,140,c),
(1106,0,l)
);
},
{
closed = 1;
nodes = (
(1360,1090,l),
(1456,1500,l),
(1452,1500,l),
(1310,1360,l),
(1352,1300,o),
(1366,1222,o),
(1362,1130,c),
(1356,1090,l)
);
},
{
closed = 1;
nodes = (
(1142,1850,o),
(1197,1905,o),
(1197,1971,cs),
(1197,2037,o),
(1142,2091,o),
(1076,2091,cs),
(1010,2091,o),
(957,2037,o),
(957,1971,cs),
(957,1905,o),
(1009,1850,o),
(1076,1850,cs)
);
}
);
};
layerId = "F479A047-48C9-4D19-A0FD-B440837ED7E5";
shapes = (
{
ref = C;
},
{
pos = (360,580);
ref = dotaccentcomb;
}
);
width = 1325;
},
{
background = {
anchors = (
{
name = ogonek;
pos = (686,0);
},
{
name = top;
pos = (1006,1501);
}
);
shapes = (
{
closed = 1;
nodes = (
(996,-20,o),
(1210,225,o),
(1370,471,c),
(1330,471,l),
(1150,267,o),
(974,69,o),
(766,69,cs),
(558,69,o),
(540,166,o),
(540,350,cs),
(540,713,o),
(722,1427,o),
(1090,1427,cs),
(1218,1427,o),
(1357,1334,o),
(1439,1029,c),
(1480,1029,l),
(1453,1315,o),
(1285,1520,o),
(1010,1520,cs),
(504,1520,o),
(100,1056,o),
(100,510,cs),
(100,184,o),
(344,-20,o),
(710,-20,cs)
);
},
{
closed = 1;
nodes = (
(1293,0,l),
(1403,471,l),
(1330,471,l),
(1221,286,l),
(1165,221,o),
(1108,177,o),
(1050,141,c),
(1230,0,l)
);
},
{
closed = 1;
nodes = (
(1514,1029,l),
(1619,1500,l),
(1557,1500,l),
(1311,1350,l),
(1352,1311,o),
(1388,1268,o),
(1414,1214,c),
(1439,1029,l)
);
},
{
closed = 1;
nodes = (
(1221,1660,o),
(1316,1765,o),
(1316,1881,cs),
(1316,1997,o),
(1221,2101,o),
(1095,2101,cs),
(969,2101,o),
(876,1997,o),
(876,1881,cs),
(876,1765,o),
(969,1660,o),
(1095,1660,cs)
);
}
);
};
layerId = "5A0F1DA2-36F1-48C5-B19D-79E54862F5ED";
shapes = (
{
ref = C;
},
{
pos = (400,581);
ref = dotaccentcomb;
}
);
width = 1455;
}
);
unicode = 266;
},
{
color = (0,171,232,255);
glyphname = D;
lastChange = "2023-10-05 13:59:01 +0000";
layers = (
{
anchors = (
{
name = bottom;
pos = (613,0);
},
{
name = cedilla;
pos = (613,0);
},
{
name = top;
pos = (904,1500);
}
);
background = {
anchors = (
{
name = bottom;
pos = (613,0);
},
{
name = cedilla;
pos = (613,0);
},
{
name = top;
pos = (904,1500);
}
);
shapes = (
{
closed = 1;
nodes = (
(730,0,ls),
(1276,0,o),
(1640,464,o),
(1640,950,cs),
(1640,1336,o),
(1356,1500,o),
(1030,1500,cs),
(240,1500,l),
(240,1496,l),
(970,1496,ls),
(1158,1496,o),
(1182,1314,o),
(1182,1130,cs),
(1182,806,o),
(1018,4,o),
(650,4,cs),
(-80,4,l),
(-80,0,l)
);
},
{
closed = 1;
nodes = (
(530,0,l),
(870,1500,l),
(440,1500,l),
(100,0,l)
);
}
);
};
layerId = "C8A05DAB-080B-4AF9-9351-1A1E2A671399";
shapes = (
{
closed = 1;
nodes = (
(730,0,ls),
(1276,0,o),
(1640,464,o),
(1640,950,cs),
(1640,1336,o),
(1356,1500,o),
(1030,1500,cs),
(240,1500,l),
(240,1496,l),
(970,1496,ls),
(1158,1496,o),
(1182,1314,o),
(1182,1130,cs),
(1182,806,o),
(1018,4,o),
(650,4,cs),
(-80,4,l),
(-80,0,l)
);
},
{
closed = 1;
nodes = (
(530,0,l),
(870,1500,l),
(440,1500,l),
(100,0,l)
);
}
);
width = 1639;
},
{
anchors = (
{
name = bottom;
pos = (443,0);
},
{
name = cedilla;
pos = (443,0);
},
{
name = top;
pos = (734,1500);
}
);
background = {
anchors = (
{
name = bottom;
pos = (443,0);
},
{
name = cedilla;
pos = (443,0);
},
{
name = top;
pos = (734,1500);
}
);
shapes = (
{
closed = 1;
nodes = (
(500,0,ls),
(986,0,o),
(1391,444,o),
(1391,990,cs),
(1391,1316,o),
(1166,1500,o),
(840,1500,cs),
(250,1500,l),
(250,1427,l),
(840,1427,ls),
(1088,1427,o),
(1170,1254,o),
(1170,1070,cs),
(1170,646,o),
(928,73,o),
(500,73,cs),
(-70,73,l),
(-70,0,l)
);
},
{
closed = 1;
nodes = (
(300,0,l),
(641,1500,l),
(450,1500,l),
(109,0,l)
);
}
);
};
layerId = "E7986948-7A43-4A74-AC0C-4472ECCDAB04";
shapes = (
{
closed = 1;
nodes = (
(500,0,ls),
(986,0,o),
(1391,444,o),
(1391,990,cs),
(1391,1316,o),
(1166,1500,o),
(840,1500,cs),
(250,1500,l),
(250,1427,l),
(840,1427,ls),
(1088,1427,o),
(1170,1254,o),
(1170,1070,cs),
(1170,646,o),
(928,73,o),
(500,73,cs),
(-70,73,l),
(-70,0,l)
);
},
{
closed = 1;
nodes = (
(300,0,l),
(641,1500,l),
(450,1500,l),
(109,0,l)
);
}
);
width = 1389;
},
{
anchors = (
{
name = bottom;
pos = (443,0);
},
{
name = cedilla;
pos = (443,0);
},
{
name = top;
pos = (734,1500);
}
);
background = {
anchors = (
{
name = bottom;
pos = (443,0);
},
{
name = cedilla;
pos = (443,0);
},
{
name = top;
pos = (734,1500);
}
);
shapes = (
{
closed = 1;
nodes = (
(500,0,ls),
(986,0,o),
(1390,444,o),
(1390,990,cs),
(1390,1316,o),
(1166,1500,o),
(840,1500,cs),
(250,1500,l),
(250,1496,l),
(840,1496,ls),
(1088,1496,o),
(1170,1254,o),
(1170,1070,cs),
(1170,646,o),
(928,4,o),
(500,4,cs),
(-70,4,l),
(-70,0,l)
);
},
{
closed = 1;
nodes = (
(300,0,l),
(640,1500,l),
(450,1500,l),
(110,0,l)
);
}
);
};
layerId = "F479A047-48C9-4D19-A0FD-B440837ED7E5";
shapes = (
{
closed = 1;
nodes = (
(500,0,ls),
(986,0,o),
(1390,444,o),
(1390,990,cs),
(1390,1316,o),
(1166,1500,o),
(840,1500,cs),
(250,1500,l),
(250,1496,l),
(840,1496,ls),
(1088,1496,o),
(1170,1254,o),
(1170,1070,cs),
(1170,646,o),
(928,4,o),
(500,4,cs),
(-70,4,l),
(-70,0,l)
);
},
{
closed = 1;
nodes = (
(300,0,l),
(640,1500,l),
(450,1500,l),
(110,0,l)
);
}
);
width = 1389;
},
{
anchors = (
{
name = bottom;
pos = (613,0);
},
{
name = cedilla;
pos = (613,0);
},
{
name = top;
pos = (904,1500);
}
);
background = {
anchors = (
{
name = bottom;
pos = (613,0);
},
{
name = cedilla;
pos = (613,0);
},
{
name = top;
pos = (904,1500);
}
);
shapes = (
{
closed = 1;
nodes = (
(730,0,ls),
(1276,0,o),
(1641,464,o),
(1641,950,cs),
(1641,1337,o),
(1355,1500,o),
(1029,1500,cs),
(240,1500,l),
(240,1427,l),
(971,1427,ls),
(1159,1427,o),
(1182,1314,o),
(1182,1130,cs),
(1182,806,o),
(1018,73,o),
(650,73,cs),
(-80,73,l),
(-80,0,l)
);
},
{
closed = 1;
nodes = (
(529,0,l),
(870,1500,l),
(439,1500,l),
(100,0,l)
);
}
);
};
layerId = "5A0F1DA2-36F1-48C5-B19D-79E54862F5ED";
shapes = (
{
closed = 1;
nodes = (
(730,0,ls),
(1276,0,o),
(1641,464,o),
(1641,950,cs),
(1641,1337,o),
(1355,1500,o),
(1029,1500,cs),
(240,1500,l),
(240,1427,l),
(971,1427,ls),
(1159,1427,o),
(1182,1314,o),
(1182,1130,cs),
(1182,806,o),
(1018,73,o),
(650,73,cs),
(-80,73,l),
(-80,0,l)
);
},
{
closed = 1;
nodes = (
(529,0,l),
(870,1500,l),
(439,1500,l),
(100,0,l)
);
}
);
width = 1639;
}
);
unicode = 68;
},
{
color = 10;
glyphname = Dcaron;
lastChange = "2023-10-05 13:59:28 +0000";
layers = (
{
background = {
anchors = (
{
name = bottom;
pos = (613,0);
},
{
name = cedilla;
pos = (613,0);
},
{
name = top;
pos = (904,1500);
}
);
shapes = (
{
closed = 1;
nodes = (
(730,0,ls),
(1276,0,o),
(1640,464,o),
(1640,950,cs),
(1640,1336,o),
(1356,1500,o),
(1030,1500,cs),
(240,1500,l),
(240,1496,l),
(970,1496,ls),
(1158,1496,o),
(1182,1314,o),
(1182,1130,cs),
(1182,806,o),
(1018,4,o),
(650,4,cs),
(-80,4,l),
(-80,0,l)
);
},
{
closed = 1;
nodes = (
(530,0,l),
(870,1500,l),
(440,1500,l),
(100,0,l)
);
},
{
closed = 1;
nodes = (
(1059,1700,l),
(1383,2020,l),
(1381,2022,l),
(959,1890,l),
(615,2022,l),
(613,2020,l),
(849,1700,l)
);
}
);
};
layerId = "C8A05DAB-080B-4AF9-9351-1A1E2A671399";
shapes = (
{
ref = D;
},
{
pos = (138,0);
ref = caroncomb;
}
);
width = 1639;
},
{
background = {
anchors = (
{
name = bottom;
pos = (443,0);
},
{
name = cedilla;
pos = (443,0);
},
{
name = top;
pos = (734,1500);
}
);
shapes = (
{
closed = 1;
nodes = (
(500,0,ls),
(986,0,o),
(1391,444,o),
(1391,990,cs),
(1391,1316,o),
(1166,1500,o),
(840,1500,cs),
(250,1500,l),
(250,1427,l),
(840,1427,ls),
(1088,1427,o),
(1170,1254,o),
(1170,1070,cs),
(1170,646,o),
(928,73,o),
(500,73,cs),
(-70,73,l),
(-70,0,l)
);
},
{
closed = 1;
nodes = (
(300,0,l),
(641,1500,l),
(450,1500,l),
(109,0,l)
);
},
{
closed = 1;
nodes = (
(848,1700,l),
(1113,1921,l),
(1071,1962,l),
(789,1790,l),
(591,1967,l),
(543,1921,l),
(720,1700,l)
);
}
);
};
layerId = "E7986948-7A43-4A74-AC0C-4472ECCDAB04";
shapes = (
{
ref = D;
},
{
pos = (-9,0);
ref = caroncomb;
}
);
width = 1389;
},
{
background = {
anchors = (
{
name = bottom;
pos = (443,0);
},
{
name = cedilla;
pos = (443,0);
},
{
name = top;
pos = (734,1500);
}
);
shapes = (
{
closed = 1;
nodes = (
(500,0,ls),
(986,0,o),
(1390,444,o),
(1390,990,cs),
(1390,1316,o),
(1166,1500,o),
(840,1500,cs),
(250,1500,l),
(250,1496,l),
(840,1496,ls),
(1088,1496,o),
(1170,1254,o),
(1170,1070,cs),
(1170,646,o),
(928,4,o),
(500,4,cs),
(-70,4,l),
(-70,0,l)
);
},
{
closed = 1;
nodes = (
(300,0,l),
(640,1500,l),
(450,1500,l),
(110,0,l)
);
},
{
closed = 1;
nodes = (
(848,1700,l),
(1113,1921,l),
(1109,1925,l),
(789,1790,l),
(547,1925,l),
(543,1921,l),
(720,1700,l)
);
}
);
};
layerId = "F479A047-48C9-4D19-A0FD-B440837ED7E5";
shapes = (
{
ref = D;
},
{
pos = (-9,0);
ref = caroncomb;
}
);
width = 1389;
},
{
background = {
anchors = (
{
name = bottom;
pos = (613,0);
},
{
name = cedilla;
pos = (613,0);
},
{
name = top;
pos = (904,1500);
}
);
shapes = (
{
closed = 1;
nodes = (
(730,0,ls),
(1276,0,o),
(1641,464,o),
(1641,950,cs),
(1641,1337,o),
(1355,1500,o),
(1029,1500,cs),
(240,1500,l),
(240,1427,l),
(971,1427,ls),
(1159,1427,o),
(1182,1314,o),
(1182,1130,cs),
(1182,806,o),
(1018,73,o),
(650,73,cs),
(-80,73,l),
(-80,0,l)
);
},
{
closed = 1;
nodes = (
(529,0,l),
(870,1500,l),
(439,1500,l),
(100,0,l)
);
},
{
closed = 1;
nodes = (
(1059,1700,l),
(1384,2021,l),
(1349,2056,l),
(959,1892,l),
(653,2061,l),
(613,2021,l),
(849,1700,l)
);
}
);
};
layerId = "5A0F1DA2-36F1-48C5-B19D-79E54862F5ED";
shapes = (
{
ref = D;
},
{
pos = (138,0);
ref = caroncomb;
}
);
width = 1639;
}
);
unicode = 270;
},
{
color = (247,255,0,255);
glyphname = Dcroat;
lastChange = "2023-10-05 14:13:38 +0000";
layers = (
{
background = {
anchors = (
{
name = bottom;
pos = (613,0);
},
{
name = cedilla;
pos = (613,0);
},
{
name = top;
pos = (904,1500);
}
);
shapes = (
{
closed = 1;
nodes = (
(899.997,728,l),
(899.997,732,l),
(114.967,732,l),
(114.967,728,l)
);
},
{
closed = 1;
nodes = (
(730,0,ls),
(1276,0,o),
(1640,464,o),
(1640,950,cs),
(1640,1336,o),
(1356,1500,o),
(1030,1500,cs),
(240,1500,l),
(240,1496,l),
(970,1496,ls),
(1158,1496,o),
(1182,1314,o),
(1182,1130,cs),
(1182,806,o),
(1018,4,o),
(650,4,cs),
(-80,4,l),
(-80,0,l)
);
},
{
closed = 1;
nodes = (
(530,0,l),
(870,1500,l),
(440,1500,l),
(100,0,l)
);
}
);
};
layerId = "C8A05DAB-080B-4AF9-9351-1A1E2A671399";
shapes = (
{
closed = 1;
nodes = (
(900,728,l),
(900,732,l),
(115,732,l),
(115,728,l)
);
},
{
ref = D;
}
);
width = 1639;
},
{
background = {
anchors = (
{
name = bottom;
pos = (443,0);
},
{
name = cedilla;
pos = (443,0);
},
{
name = top;
pos = (734,1500);
}
);
shapes = (
{
closed = 1;
nodes = (
(739,694,l),
(739,766,l),
(144.967,766,l),
(144.967,694,l)
);
},
{
closed = 1;
nodes = (
(500,0,ls),
(986,0,o),
(1391,444,o),
(1391,990,cs),
(1391,1316,o),
(1166,1500,o),
(840,1500,cs),
(250,1500,l),
(250,1427,l),
(840,1427,ls),
(1088,1427,o),
(1170,1254,o),
(1170,1070,cs),
(1170,646,o),
(928,73,o),
(500,73,cs),
(-70,73,l),
(-70,0,l)
);
},
{
closed = 1;
nodes = (
(300,0,l),
(641,1500,l),
(450,1500,l),
(109,0,l)
);
}
);
};
layerId = "E7986948-7A43-4A74-AC0C-4472ECCDAB04";
shapes = (
{
closed = 1;
nodes = (
(739,694,l),
(739,766,l),
(145,766,l),
(145,694,l)
);
},
{
ref = D;
}
);
width = 1389;
},
{
background = {
anchors = (
{
name = bottom;
pos = (443,0);
},
{
name = cedilla;
pos = (443,0);
},
{
name = top;
pos = (734,1500);
}
);
shapes = (
{
closed = 1;
nodes = (
(728.969,728,l),
(728.969,732,l),
(144.967,732,l),
(144.967,728,l)
);
},
{
closed = 1;
nodes = (
(500,0,ls),
(986,0,o),
(1390,444,o),
(1390,990,cs),
(1390,1316,o),
(1166,1500,o),
(840,1500,cs),
(250,1500,l),
(250,1496,l),
(840,1496,ls),
(1088,1496,o),
(1170,1254,o),
(1170,1070,cs),
(1170,646,o),
(928,4,o),
(500,4,cs),
(-70,4,l),
(-70,0,l)
);
},
{
closed = 1;
nodes = (
(300,0,l),
(640,1500,l),
(450,1500,l),
(110,0,l)
);
}
);
};
layerId = "F479A047-48C9-4D19-A0FD-B440837ED7E5";
shapes = (
{
closed = 1;
nodes = (
(729,728,l),
(729,732,l),
(145,732,l),
(145,728,l)
);
},
{
ref = D;
}
);
width = 1389;
},
{
background = {
anchors = (
{
name = bottom;
pos = (613,0);
},
{
name = cedilla;
pos = (613,0);
},
{
name = top;
pos = (904,1500);
}
);
shapes = (
{
closed = 1;
nodes = (
(899.997,694,l),
(899.997,766,l),
(114.967,766,l),
(114.967,694,l)
);
},
{
closed = 1;
nodes = (
(730,0,ls),
(1276,0,o),
(1641,464,o),
(1641,950,cs),
(1641,1337,o),
(1355,1500,o),
(1029,1500,cs),
(240,1500,l),
(240,1427,l),
(971,1427,ls),
(1159,1427,o),
(1182,1314,o),
(1182,1130,cs),
(1182,806,o),
(1018,73,o),
(650,73,cs),
(-80,73,l),
(-80,0,l)
);
},
{
closed = 1;
nodes = (
(529,0,l),
(870,1500,l),
(439,1500,l),
(100,0,l)
);
}
);
};
layerId = "5A0F1DA2-36F1-48C5-B19D-79E54862F5ED";
shapes = (
{
closed = 1;
nodes = (
(900,694,l),
(900,766,l),
(115,766,l),
(115,694,l)
);
},
{
ref = D;
}
);
width = 1639;
}
);
unicode = 272;
},
{
color = (247,255,0,255);
glyphname = Eth;
lastChange = "2023-10-05 13:59:28 +0000";
layers = (
{
anchors = (
{
name = bottom;
pos = (613,0);
},
{
name = cedilla;
pos = (613,0);
},
{
name = top;
pos = (904,1500);
}
);
background = {
anchors = (
{
name = bottom;
pos = (613,0);
},
{
name = cedilla;
pos = (613,0);
},
{
name = top;
pos = (904,1500);
}
);
shapes = (
{
closed = 1;
nodes = (
(900,728,l),
(900,732,l),
(115,732,l),
(115,728,l)
);
},
{
closed = 1;
nodes = (
(730,0,ls),
(1276,0,o),
(1640,464,o),
(1640,950,cs),
(1640,1336,o),
(1356,1500,o),
(1030,1500,cs),
(240,1500,l),
(240,1496,l),
(970,1496,ls),
(1158,1496,o),
(1182,1314,o),
(1182,1130,cs),
(1182,806,o),
(1018,4,o),
(650,4,cs),
(-80,4,l),
(-80,0,l)
);
},
{
closed = 1;
nodes = (
(530,0,l),
(870,1500,l),
(440,1500,l),
(100,0,l)
);
}
);
};
layerId = "C8A05DAB-080B-4AF9-9351-1A1E2A671399";
shapes = (
{
closed = 1;
nodes = (
(900,728,l),
(900,732,l),
(115,732,l),
(115,728,l)
);
},
{
ref = D;
}
);
width = 1639;
},
{
anchors = (
{
name = bottom;
pos = (443,0);
},
{
name = cedilla;
pos = (443,0);
},
{
name = top;
pos = (734,1500);
}
);
background = {
anchors = (
{
name = bottom;
pos = (443,0);
},
{
name = cedilla;
pos = (443,0);
},
{
name = top;
pos = (734,1500);
}
);
shapes = (
{
closed = 1;
nodes = (
(739,694,l),
(739,766,l),
(145,766,l),
(145,694,l)
);
},
{
closed = 1;
nodes = (
(500,0,ls),
(986,0,o),
(1391,444,o),
(1391,990,cs),
(1391,1316,o),
(1166,1500,o),
(840,1500,cs),
(250,1500,l),
(250,1427,l),
(840,1427,ls),
(1088,1427,o),
(1170,1254,o),
(1170,1070,cs),
(1170,646,o),
(928,73,o),
(500,73,cs),
(-70,73,l),
(-70,0,l)
);
},
{
closed = 1;
nodes = (
(300,0,l),
(641,1500,l),
(450,1500,l),
(109,0,l)
);
}
);
};
layerId = "E7986948-7A43-4A74-AC0C-4472ECCDAB04";
shapes = (
{
closed = 1;
nodes = (
(739,694,l),
(739,766,l),
(145,766,l),
(145,694,l)
);
},
{
ref = D;
}
);
width = 1389;
},
{
anchors = (
{
name = bottom;
pos = (443,0);
},
{
name = cedilla;
pos = (443,0);
},
{
name = top;
pos = (734,1500);
}
);
background = {
anchors = (
{
name = bottom;
pos = (443,0);
},
{
name = cedilla;
pos = (443,0);
},
{
name = top;
pos = (734,1500);
}
);
shapes = (
{
closed = 1;
nodes = (
(729,728,l),
(729,732,l),
(145,732,l),
(145,728,l)
);
},
{
closed = 1;
nodes = (
(500,0,ls),
(986,0,o),
(1390,444,o),
(1390,990,cs),
(1390,1316,o),
(1166,1500,o),
(840,1500,cs),
(250,1500,l),
(250,1496,l),
(840,1496,ls),
(1088,1496,o),
(1170,1254,o),
(1170,1070,cs),
(1170,646,o),
(928,4,o),
(500,4,cs),
(-70,4,l),
(-70,0,l)
);
},
{
closed = 1;
nodes = (
(300,0,l),
(640,1500,l),
(450,1500,l),
(110,0,l)
);
}
);
};
layerId = "F479A047-48C9-4D19-A0FD-B440837ED7E5";
shapes = (
{
closed = 1;
nodes = (
(729,728,l),
(729,732,l),
(145,732,l),
(145,728,l)
);
},
{
ref = D;
}
);
width = 1389;
},
{
anchors = (
{
name = bottom;
pos = (613,0);
},
{
name = cedilla;
pos = (613,0);
},
{
name = top;
pos = (904,1500);
}
);
background = {
anchors = (
{
name = bottom;
pos = (613,0);
},
{
name = cedilla;
pos = (613,0);
},
{
name = top;
pos = (904,1500);
}
);
shapes = (
{
closed = 1;
nodes = (
(900,694,l),
(900,766,l),
(115,766,l),
(115,694,l)
);
},
{
closed = 1;
nodes = (
(730,0,ls),
(1276,0,o),
(1641,464,o),
(1641,950,cs),
(1641,1337,o),
(1355,1500,o),
(1029,1500,cs),
(240,1500,l),
(240,1427,l),
(971,1427,ls),
(1159,1427,o),
(1182,1314,o),
(1182,1130,cs),
(1182,806,o),
(1018,73,o),
(650,73,cs),
(-80,73,l),
(-80,0,l)
);
},
{
closed = 1;
nodes = (
(529,0,l),
(870,1500,l),
(439,1500,l),
(100,0,l)
);
}
);
};
layerId = "5A0F1DA2-36F1-48C5-B19D-79E54862F5ED";
shapes = (
{
closed = 1;
nodes = (
(900,694,l),
(900,766,l),
(115,766,l),
(115,694,l)
);
},
{
ref = D;
}
);
width = 1639;
}
);
unicode = 208;
},
{
color = (0,171,232,255);
glyphname = E;
lastChange = "2023-10-05 13:59:01 +0000";
layers = (
{
anchors = (
{
name = bottom;
pos = (586,0);
},
{
name = ogonek;
pos = (996,0);
},
{
name = top;
pos = (904,1500);
}
);
background = {
anchors = (
{
name = bottom;
pos = (586,0);
},
{
name = ogonek;
pos = (996,0);
},
{
name = top;
pos = (904,1500);
}
);
shapes = (
{
closed = 1;
nodes = (
(500,0,l),
(848,1500,l),
(418,1500,l),
(70,0,l)
);
},
{
closed = 1;
nodes = (
(1140,0,l),
(1244,450,l),
(1240,450,l),
(1122,196,o),
(904,4,o),
(630,4,cs),
(-100,4,l),
(-100,0,l)
);
},
{
closed = 1;
nodes = (
(954,496,l),
(1082,1046,l),
(1078,1046,l),
(988,912,o),
(830,778,o),
(716,778,cs),
(594,778,l),
(594,774,l),
(716,774,ls),
(830,774,o),
(920,630,o),
(950,496,c)
);
},
{
closed = 1;
nodes = (
(1372,1090,l),
(1468,1500,l),
(238,1500,l),
(238,1496,l),
(978,1496,ls),
(1212,1496,o),
(1358,1304,o),
(1368,1090,c)
);
}
);
};
layerId = "C8A05DAB-080B-4AF9-9351-1A1E2A671399";
shapes = (
{
closed = 1;
nodes = (
(500,0,l),
(848,1500,l),
(418,1500,l),
(70,0,l)
);
},
{
closed = 1;
nodes = (
(1140,0,l),
(1244,450,l),
(1240,450,l),
(1122,196,o),
(904,4,o),
(630,4,cs),
(-100,4,l),
(-100,0,l)
);
},
{
closed = 1;
nodes = (
(954,496,l),
(1082,1046,l),
(1078,1046,l),
(988,912,o),
(830,778,o),
(716,778,cs),
(594,778,l),
(594,774,l),
(716,774,ls),
(830,774,o),
(920,630,o),
(950,496,c)
);
},
{
closed = 1;
nodes = (
(1372,1090,l),
(1468,1500,l),
(238,1500,l),
(238,1496,l),
(978,1496,ls),
(1212,1496,o),
(1358,1304,o),
(1368,1090,c)
);
}
);
width = 1317;
},
{
anchors = (
{
name = bottom;
pos = (516,0);
},
{
name = ogonek;
pos = (796,0);
},
{
name = top;
pos = (834,1500);
}
);
background = {
anchors = (
{
name = bottom;
pos = (516,0);
},
{
name = ogonek;
pos = (796,0);
},
{
name = top;
pos = (834,1500);
}
);
shapes = (
{
closed = 1;
nodes = (
(270,0,l),
(618,1500,l),
(428,1500,l),
(80,0,l)
);
},
{
closed = 1;
nodes = (
(1004,0,l),
(1107,450,l),
(1034,450,l),
(975,196,o),
(873,73,o),
(600,73,cs),
(-90,73,l),
(-90,0,l)
);
},
{
closed = 1;
nodes = (
(773,557,l),
(871,986,l),
(798,986,l),
(769,852,o),
(679,812,o),
(566,812,cs),
(424,812,l),
(424,739,l),
(566,739,ls),
(679,739,o),
(729,691,o),
(700,557,c)
);
},
{
closed = 1;
nodes = (
(1235,1090,l),
(1331,1500,l),
(248,1500,l),
(248,1427,l),
(948,1427,ls),
(1182,1427,o),
(1212,1304,o),
(1162,1090,c)
);
}
);
};
layerId = "E7986948-7A43-4A74-AC0C-4472ECCDAB04";
shapes = (
{
closed = 1;
nodes = (
(270,0,l),
(618,1500,l),
(428,1500,l),
(80,0,l)
);
},
{
closed = 1;
nodes = (
(1004,0,l),
(1107,450,l),
(1034,450,l),
(975,196,o),
(873,73,o),
(600,73,cs),
(-90,73,l),
(-90,0,l)
);
},
{
closed = 1;
nodes = (
(773,557,l),
(871,986,l),
(798,986,l),
(769,852,o),
(679,812,o),
(566,812,cs),
(424,812,l),
(424,739,l),
(566,739,ls),
(679,739,o),
(729,691,o),
(700,557,c)
);
},
{
closed = 1;
nodes = (
(1235,1090,l),
(1331,1500,l),
(248,1500,l),
(248,1427,l),
(948,1427,ls),
(1182,1427,o),
(1212,1304,o),
(1162,1090,c)
);
}
);
width = 1180;
},
{
anchors = (
{
name = bottom;
pos = (516,0);
},
{
name = ogonek;
pos = (806,0);
},
{
name = top;
pos = (834,1500);
}
);
background = {
anchors = (
{
name = bottom;
pos = (516,0);
},
{
name = ogonek;
pos = (806,0);
},
{
name = top;
pos = (834,1500);
}
);
shapes = (
{
closed = 1;
nodes = (
(270,0,l),
(618,1500,l),
(428,1500,l),
(80,0,l)
);
},
{
closed = 1;
nodes = (
(970,0,l),
(1074,450,l),
(1070,450,l),
(1012,196,o),
(874,4,o),
(600,4,cs),
(-90,4,l),
(-90,0,l)
);
},
{
closed = 1;
nodes = (
(740,556,l),
(838,986,l),
(834,986,l),
(804,852,o),
(680,778,o),
(566,778,cs),
(424,778,l),
(424,774,l),
(566,774,ls),
(680,774,o),
(766,690,o),
(736,556,c)
);
},
{
closed = 1;
nodes = (
(1202,1090,l),
(1298,1500,l),
(248,1500,l),
(248,1496,l),
(948,1496,ls),
(1182,1496,o),
(1248,1304,o),
(1198,1090,c)
);
}
);
};
layerId = "F479A047-48C9-4D19-A0FD-B440837ED7E5";
shapes = (
{
closed = 1;
nodes = (
(270,0,l),
(618,1500,l),
(428,1500,l),
(80,0,l)
);
},
{
closed = 1;
nodes = (
(970,0,l),
(1074,450,l),
(1070,450,l),
(1012,196,o),
(874,4,o),
(600,4,cs),
(-90,4,l),
(-90,0,l)
);
},
{
closed = 1;
nodes = (
(740,556,l),
(838,986,l),
(834,986,l),
(804,852,o),
(680,778,o),
(566,778,cs),
(424,778,l),
(424,774,l),
(566,774,ls),
(680,774,o),
(766,690,o),
(736,556,c)
);
},
{
closed = 1;
nodes = (
(1202,1090,l),
(1298,1500,l),
(248,1500,l),
(248,1496,l),
(948,1496,ls),
(1182,1496,o),
(1248,1304,o),
(1198,1090,c)
);
}
);
width = 1147;
},
{
anchors = (
{
name = bottom;
pos = (586,0);
},
{
name = ogonek;
pos = (996,0);
},
{
name = top;
pos = (904,1500);
}
);
background = {
anchors = (
{
name = bottom;
pos = (586,0);
},
{
name = ogonek;
pos = (996,0);
},
{
name = top;
pos = (904,1500);
}
);
shapes = (
{
closed = 1;
nodes = (
(500,0,l),
(848,1500,l),
(418,1500,l),
(70,0,l)
);
},
{
closed = 1;
nodes = (
(1174,0,l),
(1277,450,l),
(1204,450,l),
(1086,196,o),
(903,73,o),
(630,73,cs),
(-100,73,l),
(-100,0,l)
);
},
{
closed = 1;
nodes = (
(987,496,l),
(1115,1046,l),
(1042,1046,l),
(952,912,o),
(829,812,o),
(716,812,cs),
(594,812,l),
(594,739,l),
(716,739,ls),
(829,739,o),
(885,630,o),
(914,496,c)
);
},
{
closed = 1;
nodes = (
(1405,1090,l),
(1501,1500,l),
(238,1500,l),
(238,1427,l),
(979,1427,ls),
(1213,1427,o),
(1322,1304,o),
(1332,1090,c)
);
}
);
};
layerId = "5A0F1DA2-36F1-48C5-B19D-79E54862F5ED";
shapes = (
{
closed = 1;
nodes = (
(500,0,l),
(848,1500,l),
(418,1500,l),
(70,0,l)
);
},
{
closed = 1;
nodes = (
(1174,0,l),
(1277,450,l),
(1204,450,l),
(1086,196,o),
(903,73,o),
(630,73,cs),
(-100,73,l),
(-100,0,l)
);
},
{
closed = 1;
nodes = (
(987,496,l),
(1115,1046,l),
(1042,1046,l),
(952,912,o),
(829,812,o),
(716,812,cs),
(594,812,l),
(594,739,l),
(716,739,ls),
(829,739,o),
(885,630,o),
(914,496,c)
);
},
{
closed = 1;
nodes = (
(1405,1090,l),
(1501,1500,l),
(238,1500,l),
(238,1427,l),
(979,1427,ls),
(1213,1427,o),
(1322,1304,o),
(1332,1090,c)
);
}
);
width = 1350;
}
);
unicode = 69;
},
{
color = 10;
glyphname = Eacute;
lastChange = "2023-10-05 13:59:28 +0000";
layers = (
{
background = {
anchors = (
{
name = bottom;
pos = (586,0);
},
{
name = ogonek;
pos = (996,0);
},
{
name = top;
pos = (904,1500);
}
);
shapes = (
{
closed = 1;
nodes = (
(500,0,l),
(848,1500,l),
(418,1500,l),
(70,0,l)
);
},
{
closed = 1;
nodes = (
(1140,0,l),
(1244,450,l),
(1240,450,l),
(1122,196,o),
(904,4,o),
(630,4,cs),
(-100,4,l),
(-100,0,l)
);
},
{
closed = 1;
nodes = (
(954,496,l),
(1082,1046,l),
(1078,1046,l),
(988,912,o),
(830,778,o),
(716,778,cs),
(594,778,l),
(594,774,l),
(716,774,ls),
(830,774,o),
(920,630,o),
(950,496,c)
);
},
{
closed = 1;
nodes = (
(1372,1090,l),
(1468,1500,l),
(238,1500,l),
(238,1496,l),
(978,1496,ls),
(1212,1496,o),
(1358,1304,o),
(1368,1090,c)
);
},
{
closed = 1;
nodes = (
(1130,1718,ls),
(1290,1737,o),
(1346,1905,o),
(1280,2001,cs),
(1226,2079,o),
(1048,2105,o),
(975,1956,cs),
(842,1685,l),
(843,1683,l)
);
}
);
};
layerId = "C8A05DAB-080B-4AF9-9351-1A1E2A671399";
shapes = (
{
ref = E;
},
{
pos = (268,0);
ref = acutecomb;
}
);
width = 1317;
},
{
background = {
anchors = (
{
name = bottom;
pos = (516,0);
},
{
name = ogonek;
pos = (796,0);
},
{
name = top;
pos = (834,1500);
}
);
shapes = (
{
closed = 1;
nodes = (
(270,0,l),
(618,1500,l),
(428,1500,l),
(80,0,l)
);
},
{
closed = 1;
nodes = (
(1004,0,l),
(1107,450,l),
(1034,450,l),
(975,196,o),
(873,73,o),
(600,73,cs),
(-90,73,l),
(-90,0,l)
);
},
{
closed = 1;
nodes = (
(773,557,l),
(871,986,l),
(798,986,l),
(769,852,o),
(679,812,o),
(566,812,cs),
(424,812,l),
(424,739,l),
(566,739,ls),
(679,739,o),
(729,691,o),
(700,557,c)
);
},
{
closed = 1;
nodes = (
(1235,1090,l),
(1331,1500,l),
(248,1500,l),
(248,1427,l),
(948,1427,ls),
(1182,1427,o),
(1212,1304,o),
(1162,1090,c)
);
},
{
closed = 1;
nodes = (
(1036,1817,ls),
(1068,1836,o),
(1082,1882,o),
(1063,1915,cs),
(1044,1948,o),
(993,1967,o),
(951,1926,cs),
(739,1719,l),
(784,1670,l)
);
}
);
};
layerId = "E7986948-7A43-4A74-AC0C-4472ECCDAB04";
shapes = (
{
ref = E;
},
{
pos = (96,0);
ref = acutecomb;
}
);
width = 1180;
},
{
background = {
anchors = (
{
name = bottom;
pos = (516,0);
},
{
name = ogonek;
pos = (806,0);
},
{
name = top;
pos = (834,1500);
}
);
shapes = (
{
closed = 1;
nodes = (
(270,0,l),
(618,1500,l),
(428,1500,l),
(80,0,l)
);
},
{
closed = 1;
nodes = (
(970,0,l),
(1074,450,l),
(1070,450,l),
(1012,196,o),
(874,4,o),
(600,4,cs),
(-90,4,l),
(-90,0,l)
);
},
{
closed = 1;
nodes = (
(740,556,l),
(838,986,l),
(834,986,l),
(804,852,o),
(680,778,o),
(566,778,cs),
(424,778,l),
(424,774,l),
(566,774,ls),
(680,774,o),
(766,690,o),
(736,556,c)
);
},
{
closed = 1;
nodes = (
(1202,1090,l),
(1298,1500,l),
(248,1500,l),
(248,1496,l),
(948,1496,ls),
(1182,1496,o),
(1248,1304,o),
(1198,1090,c)
);
},
{
closed = 1;
nodes = (
(1036,1817,ls),
(1068,1836,o),
(1082,1882,o),
(1063,1915,cs),
(1044,1948,o),
(993,1967,o),
(951,1926,cs),
(762,1694,l),
(764,1692,l)
);
}
);
};
layerId = "F479A047-48C9-4D19-A0FD-B440837ED7E5";
shapes = (
{
ref = E;
},
{
pos = (111,0);
ref = acutecomb;
}
);
width = 1147;
},
{
background = {
anchors = (
{
name = bottom;
pos = (586,0);
},
{
name = ogonek;
pos = (996,0);
},
{
name = top;
pos = (904,1500);
}
);
shapes = (
{
closed = 1;
nodes = (
(500,0,l),
(848,1500,l),
(418,1500,l),
(70,0,l)
);
},
{
closed = 1;
nodes = (
(1174,0,l),
(1277,450,l),
(1204,450,l),
(1086,196,o),
(903,73,o),
(630,73,cs),
(-100,73,l),
(-100,0,l)
);
},
{
closed = 1;
nodes = (
(987,496,l),
(1115,1046,l),
(1042,1046,l),
(952,912,o),
(829,812,o),
(716,812,cs),
(594,812,l),
(594,739,l),
(716,739,ls),
(829,739,o),
(885,630,o),
(914,496,c)
);
},
{
closed = 1;
nodes = (
(1405,1090,l),
(1501,1500,l),
(238,1500,l),
(238,1427,l),
(979,1427,ls),
(1213,1427,o),
(1322,1304,o),
(1332,1090,c)
);
},
{
closed = 1;
nodes = (
(1130,1718,ls),
(1288,1752,o),
(1346,1905,o),
(1280,2001,cs),
(1226,2079,o),
(1061,2099,o),
(975,1956,cs),
(826,1708,l),
(858,1660,l)
);
}
);
};
layerId = "5A0F1DA2-36F1-48C5-B19D-79E54862F5ED";
shapes = (
{
ref = E;
},
{
pos = (257,0);
ref = acutecomb;
}
);
width = 1350;
}
);
unicode = 201;
},
{
color = 10;
glyphname = Ebreve;
lastChange = "2023-10-05 13:59:28 +0000";
layers = (
{
background = {
anchors = (
{
name = bottom;
pos = (586,0);
},
{
name = ogonek;
pos = (996,0);
},
{
name = top;
pos = (904,1500);
}
);
shapes = (
{
closed = 1;
nodes = (
(500,0,l),
(848,1500,l),
(418,1500,l),
(70,0,l)
);
},
{
closed = 1;
nodes = (
(1140,0,l),
(1244,450,l),
(1240,450,l),
(1122,196,o),
(904,4,o),
(630,4,cs),
(-100,4,l),
(-100,0,l)
);
},
{
closed = 1;
nodes = (
(954,496,l),
(1082,1046,l),
(1078,1046,l),
(988,912,o),
(830,778,o),
(716,778,cs),
(594,778,l),
(594,774,l),
(716,774,ls),
(830,774,o),
(920,630,o),
(950,496,c)
);
},
{
closed = 1;
nodes = (
(1372,1090,l),
(1468,1500,l),
(238,1500,l),
(238,1496,l),
(978,1496,ls),
(1212,1496,o),
(1358,1304,o),
(1368,1090,c)
);
},
{
closed = 1;
nodes = (
(1187,1682,o),
(1247,1938,o),
(1267,2060,c),
(1263,2060,l),
(1231,1962,o),
(1075,1952,o),
(967,1952,cs),
(859,1952,o),
(741,1986,o),
(751,2060,c),
(747,2060,l),
(727,1938,o),
(727,1682,o),
(947,1682,cs)
);
}
);
};
layerId = "C8A05DAB-080B-4AF9-9351-1A1E2A671399";
shapes = (
{
ref = E;
},
{
pos = (139,0);
ref = brevecomb;
}
);
width = 1317;
},
{
background = {
anchors = (
{
name = bottom;
pos = (516,0);
},
{
name = ogonek;
pos = (796,0);
},
{
name = top;
pos = (834,1500);
}
);
shapes = (
{
closed = 1;
nodes = (
(270,0,l),
(618,1500,l),
(428,1500,l),
(80,0,l)
);
},
{
closed = 1;
nodes = (
(1004,0,l),
(1107,450,l),
(1034,450,l),
(975,196,o),
(873,73,o),
(600,73,cs),
(-90,73,l),
(-90,0,l)
);
},
{
closed = 1;
nodes = (
(773,557,l),
(871,986,l),
(798,986,l),
(769,852,o),
(679,812,o),
(566,812,cs),
(424,812,l),
(424,739,l),
(566,739,ls),
(679,739,o),
(729,691,o),
(700,557,c)
);
},
{
closed = 1;
nodes = (
(1235,1090,l),
(1331,1500,l),
(248,1500,l),
(248,1427,l),
(948,1427,ls),
(1182,1427,o),
(1212,1304,o),
(1162,1090,c)
);
},
{
closed = 1;
nodes = (
(1057,1682,o),
(1137,1818,o),
(1157,1940,c),
(1085,1940,l),
(1065,1842,o),
(991,1792,o),
(897,1792,cs),
(803,1792,o),
(770,1842,o),
(790,1940,c),
(717,1940,l),
(697,1818,o),
(717,1682,o),
(877,1682,cs)
);
}
);
};
layerId = "E7986948-7A43-4A74-AC0C-4472ECCDAB04";
shapes = (
{
ref = E;
},
{
pos = (95,0);
ref = brevecomb;
}
);
width = 1180;
},
{
background = {
anchors = (
{
name = bottom;
pos = (516,0);
},
{
name = ogonek;
pos = (806,0);
},
{
name = top;
pos = (834,1500);
}
);
shapes = (
{
closed = 1;
nodes = (
(270,0,l),
(618,1500,l),
(428,1500,l),
(80,0,l)
);
},
{
closed = 1;
nodes = (
(970,0,l),
(1074,450,l),
(1070,450,l),
(1012,196,o),
(874,4,o),
(600,4,cs),
(-90,4,l),
(-90,0,l)
);
},
{
closed = 1;
nodes = (
(740,556,l),
(838,986,l),
(834,986,l),
(804,852,o),
(680,778,o),
(566,778,cs),
(424,778,l),
(424,774,l),
(566,774,ls),
(680,774,o),
(766,690,o),
(736,556,c)
);
},
{
closed = 1;
nodes = (
(1202,1090,l),
(1298,1500,l),
(248,1500,l),
(248,1496,l),
(948,1496,ls),
(1182,1496,o),
(1248,1304,o),
(1198,1090,c)
);
},
{
closed = 1;
nodes = (
(1057,1682,o),
(1137,1818,o),
(1157,1940,c),
(1153,1940,l),
(1133,1842,o),
(991,1792,o),
(897,1792,cs),
(803,1792,o),
(706,1842,o),
(721,1940,c),
(717,1940,l),
(697,1818,o),
(717,1682,o),
(877,1682,cs)
);
}
);
};
layerId = "F479A047-48C9-4D19-A0FD-B440837ED7E5";
shapes = (
{
ref = E;
},
{
pos = (95,0);
ref = brevecomb;
}
);
width = 1147;
},
{
background = {
anchors = (
{
name = bottom;
pos = (586,0);
},
{
name = ogonek;
pos = (996,0);
},
{
name = top;
pos = (904,1500);
}
);
shapes = (
{
closed = 1;
nodes = (
(500,0,l),
(848,1500,l),
(418,1500,l),
(70,0,l)
);
},
{
closed = 1;
nodes = (
(1174,0,l),
(1277,450,l),
(1204,450,l),
(1086,196,o),
(903,73,o),
(630,73,cs),
(-100,73,l),
(-100,0,l)
);
},
{
closed = 1;
nodes = (
(987,496,l),
(1115,1046,l),
(1042,1046,l),
(952,912,o),
(829,812,o),
(716,812,cs),
(594,812,l),
(594,739,l),
(716,739,ls),
(829,739,o),
(885,630,o),
(914,496,c)
);
},
{
closed = 1;
nodes = (
(1405,1090,l),
(1501,1500,l),
(238,1500,l),
(238,1427,l),
(979,1427,ls),
(1213,1427,o),
(1322,1304,o),
(1332,1090,c)
);
},
{
closed = 1;
nodes = (
(1187,1682,o),
(1247,1937,o),
(1267,2059,c),
(1194,2059,l),
(1162,1961,o),
(1074,1951,o),
(967,1951,cs),
(860,1951,o),
(810,1985,o),
(820,2059,c),
(747,2059,l),
(727,1937,o),
(726,1682,o),
(947,1682,cs)
);
}
);
};
layerId = "5A0F1DA2-36F1-48C5-B19D-79E54862F5ED";
shapes = (
{
ref = E;
},
{
pos = (139,0);
ref = brevecomb;
}
);
width = 1350;
}
);
unicode = 276;
},
{
color = 10;
glyphname = Ecaron;
lastChange = "2023-10-05 13:59:28 +0000";
layers = (
{
background = {
anchors = (
{
name = bottom;
pos = (586,0);
},
{
name = ogonek;
pos = (996,0);
},
{
name = top;
pos = (904,1500);
}
);
shapes = (
{
closed = 1;
nodes = (
(500,0,l),
(848,1500,l),
(418,1500,l),
(70,0,l)
);
},
{
closed = 1;
nodes = (
(1140,0,l),
(1244,450,l),
(1240,450,l),
(1122,196,o),
(904,4,o),
(630,4,cs),
(-100,4,l),
(-100,0,l)
);
},
{
closed = 1;
nodes = (
(954,496,l),
(1082,1046,l),
(1078,1046,l),
(988,912,o),
(830,778,o),
(716,778,cs),
(594,778,l),
(594,774,l),
(716,774,ls),
(830,774,o),
(920,630,o),
(950,496,c)
);
},
{
closed = 1;
nodes = (
(1372,1090,l),
(1468,1500,l),
(238,1500,l),
(238,1496,l),
(978,1496,ls),
(1212,1496,o),
(1358,1304,o),
(1368,1090,c)
);
},
{
closed = 1;
nodes = (
(1059,1700,l),
(1383,2020,l),
(1381,2022,l),
(959,1890,l),
(615,2022,l),
(613,2020,l),
(849,1700,l)
);
}
);
};
layerId = "C8A05DAB-080B-4AF9-9351-1A1E2A671399";
shapes = (
{
ref = E;
},
{
pos = (138,0);
ref = caroncomb;
}
);
width = 1317;
},
{
background = {
anchors = (
{
name = bottom;
pos = (516,0);
},
{
name = ogonek;
pos = (796,0);
},
{
name = top;
pos = (834,1500);
}
);
shapes = (
{
closed = 1;
nodes = (
(270,0,l),
(618,1500,l),
(428,1500,l),
(80,0,l)
);
},
{
closed = 1;
nodes = (
(1004,0,l),
(1107,450,l),
(1034,450,l),
(975,196,o),
(873,73,o),
(600,73,cs),
(-90,73,l),
(-90,0,l)
);
},
{
closed = 1;
nodes = (
(773,557,l),
(871,986,l),
(798,986,l),
(769,852,o),
(679,812,o),
(566,812,cs),
(424,812,l),
(424,739,l),
(566,739,ls),
(679,739,o),
(729,691,o),
(700,557,c)
);
},
{
closed = 1;
nodes = (
(1235,1090,l),
(1331,1500,l),
(248,1500,l),
(248,1427,l),
(948,1427,ls),
(1182,1427,o),
(1212,1304,o),
(1162,1090,c)
);
},
{
closed = 1;
nodes = (
(948,1700,l),
(1213,1921,l),
(1171,1962,l),
(889,1790,l),
(691,1967,l),
(643,1921,l),
(820,1700,l)
);
}
);
};
layerId = "E7986948-7A43-4A74-AC0C-4472ECCDAB04";
shapes = (
{
ref = E;
},
{
pos = (91,0);
ref = caroncomb;
}
);
width = 1180;
},
{
background = {
anchors = (
{
name = bottom;
pos = (516,0);
},
{
name = ogonek;
pos = (806,0);
},
{
name = top;
pos = (834,1500);
}
);
shapes = (
{
closed = 1;
nodes = (
(270,0,l),
(618,1500,l),
(428,1500,l),
(80,0,l)
);
},
{
closed = 1;
nodes = (
(970,0,l),
(1074,450,l),
(1070,450,l),
(1012,196,o),
(874,4,o),
(600,4,cs),
(-90,4,l),
(-90,0,l)
);
},
{
closed = 1;
nodes = (
(740,556,l),
(838,986,l),
(834,986,l),
(804,852,o),
(680,778,o),
(566,778,cs),
(424,778,l),
(424,774,l),
(566,774,ls),
(680,774,o),
(766,690,o),
(736,556,c)
);
},
{
closed = 1;
nodes = (
(1202,1090,l),
(1298,1500,l),
(248,1500,l),
(248,1496,l),
(948,1496,ls),
(1182,1496,o),
(1248,1304,o),
(1198,1090,c)
);
},
{
closed = 1;
nodes = (
(948,1700,l),
(1213,1921,l),
(1209,1925,l),
(889,1790,l),
(647,1925,l),
(643,1921,l),
(820,1700,l)
);
}
);
};
layerId = "F479A047-48C9-4D19-A0FD-B440837ED7E5";
shapes = (
{
ref = E;
},
{
pos = (91,0);
ref = caroncomb;
}
);
width = 1147;
},
{
background = {
anchors = (
{
name = bottom;
pos = (586,0);
},
{
name = ogonek;
pos = (996,0);
},
{
name = top;
pos = (904,1500);
}
);
shapes = (
{
closed = 1;
nodes = (
(500,0,l),
(848,1500,l),
(418,1500,l),
(70,0,l)
);
},
{
closed = 1;
nodes = (
(1174,0,l),
(1277,450,l),
(1204,450,l),
(1086,196,o),
(903,73,o),
(630,73,cs),
(-100,73,l),
(-100,0,l)
);
},
{
closed = 1;
nodes = (
(987,496,l),
(1115,1046,l),
(1042,1046,l),
(952,912,o),
(829,812,o),
(716,812,cs),
(594,812,l),
(594,739,l),
(716,739,ls),
(829,739,o),
(885,630,o),
(914,496,c)
);
},
{
closed = 1;
nodes = (
(1405,1090,l),
(1501,1500,l),
(238,1500,l),
(238,1427,l),
(979,1427,ls),
(1213,1427,o),
(1322,1304,o),
(1332,1090,c)
);
},
{
closed = 1;
nodes = (
(1059,1700,l),
(1384,2021,l),
(1349,2056,l),
(959,1892,l),
(653,2061,l),
(613,2021,l),
(849,1700,l)
);
}
);
};
layerId = "5A0F1DA2-36F1-48C5-B19D-79E54862F5ED";
shapes = (
{
ref = E;
},
{
pos = (138,0);
ref = caroncomb;
}
);
width = 1350;
}
);
unicode = 282;
},
{
color = 10;
glyphname = Ecircumflex;
lastChange = "2023-10-05 13:59:28 +0000";
layers = (
{
background = {
anchors = (
{
name = bottom;
pos = (586,0);
},
{
name = ogonek;
pos = (996,0);
},
{
name = top;
pos = (904,1500);
}
);
shapes = (
{
closed = 1;
nodes = (
(500,0,l),
(848,1500,l),
(418,1500,l),
(70,0,l)
);
},
{
closed = 1;
nodes = (
(1140,0,l),
(1244,450,l),
(1240,450,l),
(1122,196,o),
(904,4,o),
(630,4,cs),
(-100,4,l),
(-100,0,l)
);
},
{
closed = 1;
nodes = (
(954,496,l),
(1082,1046,l),
(1078,1046,l),
(988,912,o),
(830,778,o),
(716,778,cs),
(594,778,l),
(594,774,l),
(716,774,ls),
(830,774,o),
(920,630,o),
(950,496,c)
);
},
{
closed = 1;
nodes = (
(1372,1090,l),
(1468,1500,l),
(238,1500,l),
(238,1496,l),
(978,1496,ls),
(1212,1496,o),
(1358,1304,o),
(1368,1090,c)
);
},
{
closed = 1;
nodes = (
(992,1849,l),
(1336,1717,l),
(1338,1719,l),
(1102,2039,l),
(892,2039,l),
(568,1719,l),
(570,1717,l)
);
}
);
};
layerId = "C8A05DAB-080B-4AF9-9351-1A1E2A671399";
shapes = (
{
ref = E;
},
{
pos = (162,0);
ref = circumflexcomb;
}
);
width = 1317;
},
{
background = {
anchors = (
{
name = bottom;
pos = (516,0);
},
{
name = ogonek;
pos = (796,0);
},
{
name = top;
pos = (834,1500);
}
);
shapes = (
{
closed = 1;
nodes = (
(270,0,l),
(618,1500,l),
(428,1500,l),
(80,0,l)
);
},
{
closed = 1;
nodes = (
(1004,0,l),
(1107,450,l),
(1034,450,l),
(975,196,o),
(873,73,o),
(600,73,cs),
(-90,73,l),
(-90,0,l)
);
},
{
closed = 1;
nodes = (
(773,557,l),
(871,986,l),
(798,986,l),
(769,852,o),
(679,812,o),
(566,812,cs),
(424,812,l),
(424,739,l),
(566,739,ls),
(679,739,o),
(729,691,o),
(700,557,c)
);
},
{
closed = 1;
nodes = (
(1235,1090,l),
(1331,1500,l),
(248,1500,l),
(248,1427,l),
(948,1427,ls),
(1182,1427,o),
(1212,1304,o),
(1162,1090,c)
);
},
{
closed = 1;
nodes = (
(921,1849,l),
(1119,1672,l),
(1167,1719,l),
(990,1939,l),
(860,1939,l),
(596,1719,l),
(637,1677,l)
);
}
);
};
layerId = "E7986948-7A43-4A74-AC0C-4472ECCDAB04";
shapes = (
{
ref = E;
},
{
pos = (90,0);
ref = circumflexcomb;
}
);
width = 1180;
},
{
background = {
anchors = (
{
name = bottom;
pos = (516,0);
},
{
name = ogonek;
pos = (806,0);
},
{
name = top;
pos = (834,1500);
}
);
shapes = (
{
closed = 1;
nodes = (
(270,0,l),
(618,1500,l),
(428,1500,l),
(80,0,l)
);
},
{
closed = 1;
nodes = (
(970,0,l),
(1074,450,l),
(1070,450,l),
(1012,196,o),
(874,4,o),
(600,4,cs),
(-90,4,l),
(-90,0,l)
);
},
{
closed = 1;
nodes = (
(740,556,l),
(838,986,l),
(834,986,l),
(804,852,o),
(680,778,o),
(566,778,cs),
(424,778,l),
(424,774,l),
(566,774,ls),
(680,774,o),
(766,690,o),
(736,556,c)
);
},
{
closed = 1;
nodes = (
(1202,1090,l),
(1298,1500,l),
(248,1500,l),
(248,1496,l),
(948,1496,ls),
(1182,1496,o),
(1248,1304,o),
(1198,1090,c)
);
},
{
closed = 1;
nodes = (
(921,1849,l),
(1166,1716,l),
(1167,1719,l),
(990,1939,l),
(860,1939,l),
(596,1719,l),
(599,1716,l)
);
}
);
};
layerId = "F479A047-48C9-4D19-A0FD-B440837ED7E5";
shapes = (
{
ref = E;
},
{
pos = (90,0);
ref = circumflexcomb;
}
);
width = 1147;
},
{
background = {
anchors = (
{
name = bottom;
pos = (586,0);
},
{
name = ogonek;
pos = (996,0);
},
{
name = top;
pos = (904,1500);
}
);
shapes = (
{
closed = 1;
nodes = (
(500,0,l),
(848,1500,l),
(418,1500,l),
(70,0,l)
);
},
{
closed = 1;
nodes = (
(1174,0,l),
(1277,450,l),
(1204,450,l),
(1086,196,o),
(903,73,o),
(630,73,cs),
(-100,73,l),
(-100,0,l)
);
},
{
closed = 1;
nodes = (
(987,496,l),
(1115,1046,l),
(1042,1046,l),
(952,912,o),
(829,812,o),
(716,812,cs),
(594,812,l),
(594,739,l),
(716,739,ls),
(829,739,o),
(885,630,o),
(914,496,c)
);
},
{
closed = 1;
nodes = (
(1405,1090,l),
(1501,1500,l),
(238,1500,l),
(238,1427,l),
(979,1427,ls),
(1213,1427,o),
(1322,1304,o),
(1332,1090,c)
);
},
{
closed = 1;
nodes = (
(991,1849,l),
(1302,1685,l),
(1337,1720,l),
(1101,2039,l),
(892,2039,l),
(567,1720,l),
(606,1680,l)
);
}
);
};
layerId = "5A0F1DA2-36F1-48C5-B19D-79E54862F5ED";
shapes = (
{
ref = E;
},
{
pos = (161,0);
ref = circumflexcomb;
}
);
width = 1350;
}
);
unicode = 202;
},
{
color = 10;
glyphname = Edieresis;
lastChange = "2023-10-05 13:59:28 +0000";
layers = (
{
background = {
anchors = (
{
name = bottom;
pos = (586,0);
},
{
name = ogonek;
pos = (996,0);
},
{
name = top;
pos = (904,1500);
}
);
shapes = (
{
closed = 1;
nodes = (
(500,0,l),
(848,1500,l),
(418,1500,l),
(70,0,l)
);
},
{
closed = 1;
nodes = (
(1140,0,l),
(1244,450,l),
(1240,450,l),
(1122,196,o),
(904,4,o),
(630,4,cs),
(-100,4,l),
(-100,0,l)
);
},
{
closed = 1;
nodes = (
(954,496,l),
(1082,1046,l),
(1078,1046,l),
(988,912,o),
(830,778,o),
(716,778,cs),
(594,778,l),
(594,774,l),
(716,774,ls),
(830,774,o),
(920,630,o),
(950,496,c)
);
},
{
closed = 1;
nodes = (
(1372,1090,l),
(1468,1500,l),
(238,1500,l),
(238,1496,l),
(978,1496,ls),
(1212,1496,o),
(1358,1304,o),
(1368,1090,c)
);
},
{
closed = 1;
nodes = (
(1275,1682,o),
(1351,1758,o),
(1351,1851,cs),
(1351,1943,o),
(1275,2018,o),
(1183,2018,cs),
(1090,2018,o),
(1015,1943,o),
(1015,1851,cs),
(1015,1758,o),
(1090,1682,o),
(1183,1682,cs)
);
},
{
closed = 1;
nodes = (
(815,1682,o),
(891,1758,o),
(891,1851,cs),
(891,1943,o),
(815,2018,o),
(723,2018,cs),
(630,2018,o),
(555,1943,o),
(555,1851,cs),
(555,1758,o),
(630,1682,o),
(723,1682,cs)
);
}
);
};
layerId = "C8A05DAB-080B-4AF9-9351-1A1E2A671399";
shapes = (
{
ref = E;
},
{
pos = (132,0);
ref = dieresiscomb;
}
);
width = 1317;
},
{
background = {
anchors = (
{
name = bottom;
pos = (516,0);
},
{
name = ogonek;
pos = (796,0);
},
{
name = top;
pos = (834,1500);
}
);
shapes = (
{
closed = 1;
nodes = (
(270,0,l),
(618,1500,l),
(428,1500,l),
(80,0,l)
);
},
{
closed = 1;
nodes = (
(1004,0,l),
(1107,450,l),
(1034,450,l),
(975,196,o),
(873,73,o),
(600,73,cs),
(-90,73,l),
(-90,0,l)
);
},
{
closed = 1;
nodes = (
(773,557,l),
(871,986,l),
(798,986,l),
(769,852,o),
(679,812,o),
(566,812,cs),
(424,812,l),
(424,739,l),
(566,739,ls),
(679,739,o),
(729,691,o),
(700,557,c)
);
},
{
closed = 1;
nodes = (
(1235,1090,l),
(1331,1500,l),
(248,1500,l),
(248,1427,l),
(948,1427,ls),
(1182,1427,o),
(1212,1304,o),
(1162,1090,c)
);
},
{
closed = 1;
nodes = (
(1081,1690,o),
(1123,1733,o),
(1123,1786,cs),
(1123,1839,o),
(1081,1883,o),
(1028,1883,cs),
(975,1883,o),
(931,1839,o),
(931,1786,cs),
(931,1733,o),
(975,1690,o),
(1028,1690,cs)
);
},
{
closed = 1;
nodes = (
(761,1690,o),
(803,1733,o),
(803,1786,cs),
(803,1839,o),
(761,1883,o),
(708,1883,cs),
(655,1883,o),
(611,1839,o),
(611,1786,cs),
(611,1733,o),
(655,1690,o),
(708,1690,cs)
);
}
);
};
layerId = "E7986948-7A43-4A74-AC0C-4472ECCDAB04";
shapes = (
{
ref = E;
},
{
pos = (61,0);
ref = dieresiscomb;
}
);
width = 1180;
},
{
background = {
anchors = (
{
name = bottom;
pos = (516,0);
},
{
name = ogonek;
pos = (806,0);
},
{
name = top;
pos = (834,1500);
}
);
shapes = (
{
closed = 1;
nodes = (
(270,0,l),
(618,1500,l),
(428,1500,l),
(80,0,l)
);
},
{
closed = 1;
nodes = (
(970,0,l),
(1074,450,l),
(1070,450,l),
(1012,196,o),
(874,4,o),
(600,4,cs),
(-90,4,l),
(-90,0,l)
);
},
{
closed = 1;
nodes = (
(740,556,l),
(838,986,l),
(834,986,l),
(804,852,o),
(680,778,o),
(566,778,cs),
(424,778,l),
(424,774,l),
(566,774,ls),
(680,774,o),
(766,690,o),
(736,556,c)
);
},
{
closed = 1;
nodes = (
(1202,1090,l),
(1298,1500,l),
(248,1500,l),
(248,1496,l),
(948,1496,ls),
(1182,1496,o),
(1248,1304,o),
(1198,1090,c)
);
},
{
closed = 1;
nodes = (
(1081,1690,o),
(1123,1733,o),
(1123,1786,cs),
(1123,1839,o),
(1081,1883,o),
(1028,1883,cs),
(975,1883,o),
(931,1839,o),
(931,1786,cs),
(931,1733,o),
(975,1690,o),
(1028,1690,cs)
);
},
{
closed = 1;
nodes = (
(761,1690,o),
(803,1733,o),
(803,1786,cs),
(803,1839,o),
(761,1883,o),
(708,1883,cs),
(655,1883,o),
(611,1839,o),
(611,1786,cs),
(611,1733,o),
(655,1690,o),
(708,1690,cs)
);
}
);
};
layerId = "F479A047-48C9-4D19-A0FD-B440837ED7E5";
shapes = (
{
ref = E;
},
{
pos = (61,0);
ref = dieresiscomb;
}
);
width = 1147;
},
{
background = {
anchors = (
{
name = bottom;
pos = (586,0);
},
{
name = ogonek;
pos = (996,0);
},
{
name = top;
pos = (904,1500);
}
);
shapes = (
{
closed = 1;
nodes = (
(500,0,l),
(848,1500,l),
(418,1500,l),
(70,0,l)
);
},
{
closed = 1;
nodes = (
(1174,0,l),
(1277,450,l),
(1204,450,l),
(1086,196,o),
(903,73,o),
(630,73,cs),
(-100,73,l),
(-100,0,l)
);
},
{
closed = 1;
nodes = (
(987,496,l),
(1115,1046,l),
(1042,1046,l),
(952,912,o),
(829,812,o),
(716,812,cs),
(594,812,l),
(594,739,l),
(716,739,ls),
(829,739,o),
(885,630,o),
(914,496,c)
);
},
{
closed = 1;
nodes = (
(1405,1090,l),
(1501,1500,l),
(238,1500,l),
(238,1427,l),
(979,1427,ls),
(1213,1427,o),
(1322,1304,o),
(1332,1090,c)
);
},
{
closed = 1;
nodes = (
(1275,1682,o),
(1351,1758,o),
(1351,1851,cs),
(1351,1943,o),
(1275,2018,o),
(1183,2018,cs),
(1090,2018,o),
(1015,1943,o),
(1015,1851,cs),
(1015,1758,o),
(1090,1682,o),
(1183,1682,cs)
);
},
{
closed = 1;
nodes = (
(815,1682,o),
(891,1758,o),
(891,1851,cs),
(891,1943,o),
(815,2018,o),
(723,2018,cs),
(630,2018,o),
(555,1943,o),
(555,1851,cs),
(555,1758,o),
(630,1682,o),
(723,1682,cs)
);
}
);
};
layerId = "5A0F1DA2-36F1-48C5-B19D-79E54862F5ED";
shapes = (
{
ref = E;
},
{
pos = (132,0);
ref = dieresiscomb;
}
);
width = 1350;
}
);
unicode = 203;
},
{
color = 10;
glyphname = Edotaccent;
lastChange = "2023-10-05 13:59:28 +0000";
layers = (
{
background = {
anchors = (
{
name = bottom;
pos = (586,0);
},
{
name = ogonek;
pos = (996,0);
},
{
name = top;
pos = (904,1500);
}
);
shapes = (
{
closed = 1;
nodes = (
(500,0,l),
(848,1500,l),
(418,1500,l),
(70,0,l)
);
},
{
closed = 1;
nodes = (
(1140,0,l),
(1244,450,l),
(1240,450,l),
(1122,196,o),
(904,4,o),
(630,4,cs),
(-100,4,l),
(-100,0,l)
);
},
{
closed = 1;
nodes = (
(954,496,l),
(1082,1046,l),
(1078,1046,l),
(988,912,o),
(830,778,o),
(716,778,cs),
(594,778,l),
(594,774,l),
(716,774,ls),
(830,774,o),
(920,630,o),
(950,496,c)
);
},
{
closed = 1;
nodes = (
(1372,1090,l),
(1468,1500,l),
(238,1500,l),
(238,1496,l),
(978,1496,ls),
(1212,1496,o),
(1358,1304,o),
(1368,1090,c)
);
},
{
closed = 1;
nodes = (
(1118,1659,o),
(1213,1764,o),
(1213,1880,cs),
(1213,1996,o),
(1118,2100,o),
(992,2100,cs),
(866,2100,o),
(773,1996,o),
(773,1880,cs),
(773,1764,o),
(866,1659,o),
(992,1659,cs)
);
}
);
};
layerId = "C8A05DAB-080B-4AF9-9351-1A1E2A671399";
shapes = (
{
ref = E;
},
{
pos = (298,580);
ref = dotaccentcomb;
}
);
width = 1317;
},
{
background = {
anchors = (
{
name = bottom;
pos = (516,0);
},
{
name = ogonek;
pos = (796,0);
},
{
name = top;
pos = (834,1500);
}
);
shapes = (
{
closed = 1;
nodes = (
(270,0,l),
(618,1500,l),
(428,1500,l),
(80,0,l)
);
},
{
closed = 1;
nodes = (
(1004,0,l),
(1107,450,l),
(1034,450,l),
(975,196,o),
(873,73,o),
(600,73,cs),
(-90,73,l),
(-90,0,l)
);
},
{
closed = 1;
nodes = (
(773,557,l),
(871,986,l),
(798,986,l),
(769,852,o),
(679,812,o),
(566,812,cs),
(424,812,l),
(424,739,l),
(566,739,ls),
(679,739,o),
(729,691,o),
(700,557,c)
);
},
{
closed = 1;
nodes = (
(1235,1090,l),
(1331,1500,l),
(248,1500,l),
(248,1427,l),
(948,1427,ls),
(1182,1427,o),
(1212,1304,o),
(1162,1090,c)
);
},
{
closed = 1;
nodes = (
(1000,1851,o),
(1055,1906,o),
(1055,1972,cs),
(1055,2038,o),
(1000,2092,o),
(934,2092,cs),
(868,2092,o),
(815,2038,o),
(815,1972,cs),
(815,1906,o),
(868,1851,o),
(934,1851,cs)
);
}
);
};
layerId = "E7986948-7A43-4A74-AC0C-4472ECCDAB04";
shapes = (
{
ref = E;
},
{
pos = (228,580);
ref = dotaccentcomb;
}
);
width = 1180;
},
{
background = {
anchors = (
{
name = bottom;
pos = (516,0);
},
{
name = ogonek;
pos = (806,0);
},
{
name = top;
pos = (834,1500);
}
);
shapes = (
{
closed = 1;
nodes = (
(270,0,l),
(618,1500,l),
(428,1500,l),
(80,0,l)
);
},
{
closed = 1;
nodes = (
(970,0,l),
(1074,450,l),
(1070,450,l),
(1012,196,o),
(874,4,o),
(600,4,cs),
(-90,4,l),
(-90,0,l)
);
},
{
closed = 1;
nodes = (
(740,556,l),
(838,986,l),
(834,986,l),
(804,852,o),
(680,778,o),
(566,778,cs),
(424,778,l),
(424,774,l),
(566,774,ls),
(680,774,o),
(766,690,o),
(736,556,c)
);
},
{
closed = 1;
nodes = (
(1202,1090,l),
(1298,1500,l),
(248,1500,l),
(248,1496,l),
(948,1496,ls),
(1182,1496,o),
(1248,1304,o),
(1198,1090,c)
);
},
{
closed = 1;
nodes = (
(1010,1850,o),
(1065,1905,o),
(1065,1971,cs),
(1065,2037,o),
(1010,2091,o),
(944,2091,cs),
(878,2091,o),
(825,2037,o),
(825,1971,cs),
(825,1905,o),
(877,1850,o),
(944,1850,cs)
);
}
);
};
layerId = "F479A047-48C9-4D19-A0FD-B440837ED7E5";
shapes = (
{
ref = E;
},
{
pos = (228,580);
ref = dotaccentcomb;
}
);
width = 1147;
},
{
background = {
anchors = (
{
name = bottom;
pos = (586,0);
},
{
name = ogonek;
pos = (996,0);
},
{
name = top;
pos = (904,1500);
}
);
shapes = (
{
closed = 1;
nodes = (
(500,0,l),
(848,1500,l),
(418,1500,l),
(70,0,l)
);
},
{
closed = 1;
nodes = (
(1174,0,l),
(1277,450,l),
(1204,450,l),
(1086,196,o),
(903,73,o),
(630,73,cs),
(-100,73,l),
(-100,0,l)
);
},
{
closed = 1;
nodes = (
(987,496,l),
(1115,1046,l),
(1042,1046,l),
(952,912,o),
(829,812,o),
(716,812,cs),
(594,812,l),
(594,739,l),
(716,739,ls),
(829,739,o),
(885,630,o),
(914,496,c)
);
},
{
closed = 1;
nodes = (
(1405,1090,l),
(1501,1500,l),
(238,1500,l),
(238,1427,l),
(979,1427,ls),
(1213,1427,o),
(1322,1304,o),
(1332,1090,c)
);
},
{
closed = 1;
nodes = (
(1119,1659,o),
(1214,1764,o),
(1214,1880,cs),
(1214,1996,o),
(1119,2100,o),
(993,2100,cs),
(867,2100,o),
(774,1996,o),
(774,1880,cs),
(774,1764,o),
(867,1659,o),
(993,1659,cs)
);
}
);
};
layerId = "5A0F1DA2-36F1-48C5-B19D-79E54862F5ED";
shapes = (
{
ref = E;
},
{
pos = (298,580);
ref = dotaccentcomb;
}
);
width = 1350;
}
);
unicode = 278;
},
{
color = 10;
glyphname = Egrave;
lastChange = "2023-10-05 13:59:28 +0000";
layers = (
{
background = {
anchors = (
{
name = bottom;
pos = (586,0);
},
{
name = ogonek;
pos = (996,0);
},
{
name = top;
pos = (904,1500);
}
);
shapes = (
{
closed = 1;
nodes = (
(500,0,l),
(848,1500,l),
(418,1500,l),
(70,0,l)
);
},
{
closed = 1;
nodes = (
(1140,0,l),
(1244,450,l),
(1240,450,l),
(1122,196,o),
(904,4,o),
(630,4,cs),
(-100,4,l),
(-100,0,l)
);
},
{
closed = 1;
nodes = (
(954,496,l),
(1082,1046,l),
(1078,1046,l),
(988,912,o),
(830,778,o),
(716,778,cs),
(594,778,l),
(594,774,l),
(716,774,ls),
(830,774,o),
(920,630,o),
(950,496,c)
);
},
{
closed = 1;
nodes = (
(1372,1090,l),
(1468,1500,l),
(238,1500,l),
(238,1496,l),
(978,1496,ls),
(1212,1496,o),
(1358,1304,o),
(1368,1090,c)
);
},
{
closed = 1;
nodes = (
(1132,1686,l),
(997,1956,ls),
(922,2105,o),
(745,2079,o),
(692,2001,cs),
(626,1905,o),
(682,1737,o),
(842,1718,cs),
(1130,1684,l)
);
}
);
};
layerId = "C8A05DAB-080B-4AF9-9351-1A1E2A671399";
shapes = (
{
ref = E;
},
{
pos = (87,0);
ref = gravecomb;
}
);
width = 1317;
},
{
background = {
anchors = (
{
name = bottom;
pos = (516,0);
},
{
name = ogonek;
pos = (796,0);
},
{
name = top;
pos = (834,1500);
}
);
shapes = (
{
closed = 1;
nodes = (
(270,0,l),
(618,1500,l),
(428,1500,l),
(80,0,l)
);
},
{
closed = 1;
nodes = (
(1004,0,l),
(1107,450,l),
(1034,450,l),
(975,196,o),
(873,73,o),
(600,73,cs),
(-90,73,l),
(-90,0,l)
);
},
{
closed = 1;
nodes = (
(773,557,l),
(871,986,l),
(798,986,l),
(769,852,o),
(679,812,o),
(566,812,cs),
(424,812,l),
(424,739,l),
(566,739,ls),
(679,739,o),
(729,691,o),
(700,557,c)
);
},
{
closed = 1;
nodes = (
(1235,1090,l),
(1331,1500,l),
(248,1500,l),
(248,1427,l),
(948,1427,ls),
(1182,1427,o),
(1212,1304,o),
(1162,1090,c)
);
},
{
closed = 1;
nodes = (
(929,1719,l),
(717,1926,ls),
(675,1967,o),
(624,1948,o),
(605,1915,cs),
(586,1882,o),
(600,1836,o),
(632,1817,cs),
(884,1670,l)
);
}
);
};
layerId = "E7986948-7A43-4A74-AC0C-4472ECCDAB04";
shapes = (
{
ref = E;
},
{
pos = (-48,0);
ref = gravecomb;
}
);
width = 1180;
},
{
background = {
anchors = (
{
name = bottom;
pos = (516,0);
},
{
name = ogonek;
pos = (806,0);
},
{
name = top;
pos = (834,1500);
}
);
shapes = (
{
closed = 1;
nodes = (
(270,0,l),
(618,1500,l),
(428,1500,l),
(80,0,l)
);
},
{
closed = 1;
nodes = (
(970,0,l),
(1074,450,l),
(1070,450,l),
(1012,196,o),
(874,4,o),
(600,4,cs),
(-90,4,l),
(-90,0,l)
);
},
{
closed = 1;
nodes = (
(740,556,l),
(838,986,l),
(834,986,l),
(804,852,o),
(680,778,o),
(566,778,cs),
(424,778,l),
(424,774,l),
(566,774,ls),
(680,774,o),
(766,690,o),
(736,556,c)
);
},
{
closed = 1;
nodes = (
(1202,1090,l),
(1298,1500,l),
(248,1500,l),
(248,1496,l),
(948,1496,ls),
(1182,1496,o),
(1248,1304,o),
(1198,1090,c)
);
},
{
closed = 1;
nodes = (
(1057,1695,l),
(867,1926,ls),
(825,1967,o),
(774,1948,o),
(755,1915,cs),
(736,1882,o),
(750,1836,o),
(782,1817,cs),
(1055,1693,l)
);
}
);
};
layerId = "F479A047-48C9-4D19-A0FD-B440837ED7E5";
shapes = (
{
ref = E;
},
{
pos = (94,0);
ref = gravecomb;
}
);
width = 1147;
},
{
background = {
anchors = (
{
name = bottom;
pos = (586,0);
},
{
name = ogonek;
pos = (996,0);
},
{
name = top;
pos = (904,1500);
}
);
shapes = (
{
closed = 1;
nodes = (
(500,0,l),
(848,1500,l),
(418,1500,l),
(70,0,l)
);
},
{
closed = 1;
nodes = (
(1174,0,l),
(1277,450,l),
(1204,450,l),
(1086,196,o),
(903,73,o),
(630,73,cs),
(-100,73,l),
(-100,0,l)
);
},
{
closed = 1;
nodes = (
(987,496,l),
(1115,1046,l),
(1042,1046,l),
(952,912,o),
(829,812,o),
(716,812,cs),
(594,812,l),
(594,739,l),
(716,739,ls),
(829,739,o),
(885,630,o),
(914,496,c)
);
},
{
closed = 1;
nodes = (
(1405,1090,l),
(1501,1500,l),
(238,1500,l),
(238,1427,l),
(979,1427,ls),
(1213,1427,o),
(1322,1304,o),
(1332,1090,c)
);
},
{
closed = 1;
nodes = (
(1146,1708,l),
(997,1956,ls),
(911,2099,o),
(745,2079,o),
(692,2001,cs),
(626,1905,o),
(684,1752,o),
(842,1718,cs),
(1114,1660,l)
);
}
);
};
layerId = "5A0F1DA2-36F1-48C5-B19D-79E54862F5ED";
shapes = (
{
ref = E;
},
{
pos = (91,0);
ref = gravecomb;
}
);
width = 1350;
}
);
unicode = 200;
},
{
color = 10;
glyphname = Emacron;
lastChange = "2023-10-05 13:59:28 +0000";
layers = (
{
background = {
anchors = (
{
name = bottom;
pos = (586,0);
},
{
name = ogonek;
pos = (996,0);
},
{
name = top;
pos = (904,1500);
}
);
shapes = (
{
closed = 1;
nodes = (
(500,0,l),
(848,1500,l),
(418,1500,l),
(70,0,l)
);
},
{
closed = 1;
nodes = (
(1140,0,l),
(1244,450,l),
(1240,450,l),
(1122,196,o),
(904,4,o),
(630,4,cs),
(-100,4,l),
(-100,0,l)
);
},
{
closed = 1;
nodes = (
(954,496,l),
(1082,1046,l),
(1078,1046,l),
(988,912,o),
(830,778,o),
(716,778,cs),
(594,778,l),
(594,774,l),
(716,774,ls),
(830,774,o),
(920,630,o),
(950,496,c)
);
},
{
closed = 1;
nodes = (
(1372,1090,l),
(1468,1500,l),
(238,1500,l),
(238,1496,l),
(978,1496,ls),
(1212,1496,o),
(1358,1304,o),
(1368,1090,c)
);
},
{
closed = 1;
nodes = (
(1144,1700,l),
(1144,1704,l),
(664,1704,l),
(664,1700,l)
);
}
);
};
layerId = "C8A05DAB-080B-4AF9-9351-1A1E2A671399";
shapes = (
{
ref = E;
},
{
pos = (117,0);
ref = macroncomb;
}
);
width = 1317;
},
{
background = {
anchors = (
{
name = bottom;
pos = (516,0);
},
{
name = ogonek;
pos = (796,0);
},
{
name = top;
pos = (834,1500);
}
);
shapes = (
{
closed = 1;
nodes = (
(270,0,l),
(618,1500,l),
(428,1500,l),
(80,0,l)
);
},
{
closed = 1;
nodes = (
(1004,0,l),
(1107,450,l),
(1034,450,l),
(975,196,o),
(873,73,o),
(600,73,cs),
(-90,73,l),
(-90,0,l)
);
},
{
closed = 1;
nodes = (
(773,557,l),
(871,986,l),
(798,986,l),
(769,852,o),
(679,812,o),
(566,812,cs),
(424,812,l),
(424,739,l),
(566,739,ls),
(679,739,o),
(729,691,o),
(700,557,c)
);
},
{
closed = 1;
nodes = (
(1235,1090,l),
(1331,1500,l),
(248,1500,l),
(248,1427,l),
(948,1427,ls),
(1182,1427,o),
(1212,1304,o),
(1162,1090,c)
);
},
{
closed = 1;
nodes = (
(1074,1700,l),
(1074,1772,l),
(594,1772,l),
(594,1700,l)
);
}
);
};
layerId = "E7986948-7A43-4A74-AC0C-4472ECCDAB04";
shapes = (
{
ref = E;
},
{
pos = (39,0);
ref = macroncomb;
}
);
width = 1180;
},
{
background = {
anchors = (
{
name = bottom;
pos = (516,0);
},
{
name = ogonek;
pos = (806,0);
},
{
name = top;
pos = (834,1500);
}
);
shapes = (
{
closed = 1;
nodes = (
(270,0,l),
(618,1500,l),
(428,1500,l),
(80,0,l)
);
},
{
closed = 1;
nodes = (
(970,0,l),
(1074,450,l),
(1070,450,l),
(1012,196,o),
(874,4,o),
(600,4,cs),
(-90,4,l),
(-90,0,l)
);
},
{
closed = 1;
nodes = (
(740,556,l),
(838,986,l),
(834,986,l),
(804,852,o),
(680,778,o),
(566,778,cs),
(424,778,l),
(424,774,l),
(566,774,ls),
(680,774,o),
(766,690,o),
(736,556,c)
);
},
{
closed = 1;
nodes = (
(1202,1090,l),
(1298,1500,l),
(248,1500,l),
(248,1496,l),
(948,1496,ls),
(1182,1496,o),
(1248,1304,o),
(1198,1090,c)
);
},
{
closed = 1;
nodes = (
(1074,1700,l),
(1074,1704,l),
(594,1704,l),
(594,1700,l)
);
}
);
};
layerId = "F479A047-48C9-4D19-A0FD-B440837ED7E5";
shapes = (
{
ref = E;
},
{
pos = (47,0);
ref = macroncomb;
}
);
width = 1147;
},
{
background = {
anchors = (
{
name = bottom;
pos = (586,0);
},
{
name = ogonek;
pos = (996,0);
},
{
name = top;
pos = (904,1500);
}
);
shapes = (
{
closed = 1;
nodes = (
(500,0,l),
(848,1500,l),
(418,1500,l),
(70,0,l)
);
},
{
closed = 1;
nodes = (
(1174,0,l),
(1277,450,l),
(1204,450,l),
(1086,196,o),
(903,73,o),
(630,73,cs),
(-100,73,l),
(-100,0,l)
);
},
{
closed = 1;
nodes = (
(987,496,l),
(1115,1046,l),
(1042,1046,l),
(952,912,o),
(829,812,o),
(716,812,cs),
(594,812,l),
(594,739,l),
(716,739,ls),
(829,739,o),
(885,630,o),
(914,496,c)
);
},
{
closed = 1;
nodes = (
(1405,1090,l),
(1501,1500,l),
(238,1500,l),
(238,1427,l),
(979,1427,ls),
(1213,1427,o),
(1322,1304,o),
(1332,1090,c)
);
},
{
closed = 1;
nodes = (
(1144,1700,l),
(1144,1772,l),
(664,1772,l),
(664,1700,l)
);
}
);
};
layerId = "5A0F1DA2-36F1-48C5-B19D-79E54862F5ED";
shapes = (
{
ref = E;
},
{
pos = (109,0);
ref = macroncomb;
}
);
width = 1350;
}
);
unicode = 274;
},
{
color = 10;
glyphname = Eogonek;
lastChange = "2023-10-05 13:59:28 +0000";
layers = (
{
background = {
anchors = (
{
name = bottom;
pos = (586,0);
},
{
name = ogonek;
pos = (996,0);
},
{
name = top;
pos = (904,1500);
}
);
shapes = (
{
closed = 1;
nodes = (
(500,0,l),
(848,1500,l),
(418,1500,l),
(70,0,l)
);
},
{
closed = 1;
nodes = (
(1140,0,l),
(1244,450,l),
(1240,450,l),
(1122,196,o),
(904,4,o),
(630,4,cs),
(-100,4,l),
(-100,0,l)
);
},
{
closed = 1;
nodes = (
(954,496,l),
(1082,1046,l),
(1078,1046,l),
(988,912,o),
(830,778,o),
(716,778,cs),
(594,778,l),
(594,774,l),
(716,774,ls),
(830,774,o),
(920,630,o),
(950,496,c)
);
},
{
closed = 1;
nodes = (
(1372,1090,l),
(1468,1500,l),
(238,1500,l),
(238,1496,l),
(978,1496,ls),
(1212,1496,o),
(1358,1304,o),
(1368,1090,c)
);
},
{
closed = 1;
nodes = (
(1016,-474,o),
(1114,-344,o),
(1144,-288,c),
(1142,-286,l),
(1120,-328,o),
(1048,-420,o),
(978,-420,cs),
(940,-420,o),
(924,-366,o),
(924,-292,cs),
(924,-166,o),
(996,-20,o),
(1058,22,c),
(1056,24,l),
(854,-36,o),
(564,-164,o),
(564,-324,cs),
(564,-424,o),
(672,-474,o),
(814,-474,cs)
);
}
);
};
layerId = "C8A05DAB-080B-4AF9-9351-1A1E2A671399";
shapes = (
{
ref = E;
},
{
pos = (521,-32);
ref = ogonekcomb;
}
);
width = 1317;
},
{
background = {
anchors = (
{
name = bottom;
pos = (516,0);
},
{
name = ogonek;
pos = (796,0);
},
{
name = top;
pos = (834,1500);
}
);
shapes = (
{
closed = 1;
nodes = (
(270,0,l),
(618,1500,l),
(428,1500,l),
(80,0,l)
);
},
{
closed = 1;
nodes = (
(1004,0,l),
(1107,450,l),
(1034,450,l),
(975,196,o),
(873,73,o),
(600,73,cs),
(-90,73,l),
(-90,0,l)
);
},
{
closed = 1;
nodes = (
(773,557,l),
(871,986,l),
(798,986,l),
(769,852,o),
(679,812,o),
(566,812,cs),
(424,812,l),
(424,739,l),
(566,739,ls),
(679,739,o),
(729,691,o),
(700,557,c)
);
},
{
closed = 1;
nodes = (
(1235,1090,l),
(1331,1500,l),
(248,1500,l),
(248,1427,l),
(948,1427,ls),
(1182,1427,o),
(1212,1304,o),
(1162,1090,c)
);
},
{
closed = 1;
nodes = (
(856,-413,o),
(915,-325,o),
(944,-268,c),
(887,-243,l),
(866,-285,o),
(833,-318,o),
(780,-318,cs),
(732,-318,o),
(694,-290,o),
(694,-224,cs),
(694,-115,o),
(782,-32,o),
(859,14,c),
(840,42,l),
(718,6,o),
(507,-102,o),
(507,-262,cs),
(507,-382,o),
(611,-413,o),
(713,-413,cs)
);
}
);
};
layerId = "E7986948-7A43-4A74-AC0C-4472ECCDAB04";
shapes = (
{
ref = E;
},
{
pos = (383,-12);
ref = ogonekcomb;
}
);
width = 1180;
},
{
background = {
anchors = (
{
name = bottom;
pos = (516,0);
},
{
name = ogonek;
pos = (806,0);
},
{
name = top;
pos = (834,1500);
}
);
shapes = (
{
closed = 1;
nodes = (
(270,0,l),
(618,1500,l),
(428,1500,l),
(80,0,l)
);
},
{
closed = 1;
nodes = (
(970,0,l),
(1074,450,l),
(1070,450,l),
(1012,196,o),
(874,4,o),
(600,4,cs),
(-90,4,l),
(-90,0,l)
);
},
{
closed = 1;
nodes = (
(740,556,l),
(838,986,l),
(834,986,l),
(804,852,o),
(680,778,o),
(566,778,cs),
(424,778,l),
(424,774,l),
(566,774,ls),
(680,774,o),
(766,690,o),
(736,556,c)
);
},
{
closed = 1;
nodes = (
(1202,1090,l),
(1298,1500,l),
(248,1500,l),
(248,1496,l),
(948,1496,ls),
(1182,1496,o),
(1248,1304,o),
(1198,1090,c)
);
},
{
closed = 1;
nodes = (
(840,-454,o),
(898,-364,o),
(928,-308,c),
(924,-306,l),
(896,-358,o),
(844,-432,o),
(764,-432,cs),
(716,-432,o),
(678,-386,o),
(678,-292,cs),
(678,-126,o),
(780,-34,o),
(842,0,c),
(840,4,l),
(718,-36,o),
(492,-142,o),
(492,-302,cs),
(492,-422,o),
(596,-454,o),
(698,-454,cs)
);
}
);
};
layerId = "F479A047-48C9-4D19-A0FD-B440837ED7E5";
shapes = (
{
ref = E;
},
{
pos = (377,-32);
ref = ogonekcomb;
}
);
width = 1147;
},
{
background = {
anchors = (
{
name = bottom;
pos = (586,0);
},
{
name = ogonek;
pos = (996,0);
},
{
name = top;
pos = (904,1500);
}
);
shapes = (
{
closed = 1;
nodes = (
(500,0,l),
(848,1500,l),
(418,1500,l),
(70,0,l)
);
},
{
closed = 1;
nodes = (
(1174,0,l),
(1277,450,l),
(1204,450,l),
(1086,196,o),
(903,73,o),
(630,73,cs),
(-100,73,l),
(-100,0,l)
);
},
{
closed = 1;
nodes = (
(987,496,l),
(1115,1046,l),
(1042,1046,l),
(952,912,o),
(829,812,o),
(716,812,cs),
(594,812,l),
(594,739,l),
(716,739,ls),
(829,739,o),
(885,630,o),
(914,496,c)
);
},
{
closed = 1;
nodes = (
(1405,1090,l),
(1501,1500,l),
(238,1500,l),
(238,1427,l),
(979,1427,ls),
(1213,1427,o),
(1322,1304,o),
(1332,1090,c)
);
},
{
closed = 1;
nodes = (
(1016,-473,o),
(1115,-345,o),
(1144,-288,c),
(1084,-258,l),
(1063,-300,o),
(1016,-356,o),
(970,-356,cs),
(941,-356,o),
(926,-328,o),
(926,-291,cs),
(926,-177,o),
(1002,-64,o),
(1064,3,c),
(1051,39,l),
(814,-43,o),
(564,-163,o),
(564,-323,cs),
(564,-423,o),
(671,-473,o),
(814,-473,cs)
);
}
);
};
layerId = "5A0F1DA2-36F1-48C5-B19D-79E54862F5ED";
shapes = (
{
ref = E;
},
{
pos = (521,-32);
ref = ogonekcomb;
}
);
width = 1350;
}
);
unicode = 280;
},
{
color = (0,171,232,255);
glyphname = F;
lastChange = "2023-10-05 13:59:01 +0000";
layers = (
{
anchors = (
{
name = bottom;
pos = (286,0);
},
{
name = top;
pos = (894,1500);
}
);
background = {
anchors = (
{
name = bottom;
pos = (286,0);
},
{
name = top;
pos = (894,1500);
}
);
shapes = (
{
closed = 1;
nodes = (
(500,0,l),
(848,1500,l),
(418,1500,l),
(70,0,l)
);
},
{
closed = 1;
nodes = (
(700,0,l),
(700,4,l),
(-100,4,l),
(-100,0,l)
);
},
{
closed = 1;
nodes = (
(926,456,l),
(1056,1026,l),
(1052,1026,l),
(966,892,o),
(810,748,o),
(678,748,cs),
(608,748,l),
(608,744,l),
(678,744,ls),
(812,744,o),
(892,590,o),
(922,456,c)
);
},
{
closed = 1;
nodes = (
(1332,1090,l),
(1428,1500,l),
(238,1500,l),
(238,1496,l),
(958,1496,ls),
(1192,1496,o),
(1318,1304,o),
(1328,1090,c)
);
}
);
};
layerId = "C8A05DAB-080B-4AF9-9351-1A1E2A671399";
shapes = (
{
closed = 1;
nodes = (
(500,0,l),
(848,1500,l),
(418,1500,l),
(70,0,l)
);
},
{
closed = 1;
nodes = (
(700,0,l),
(700,4,l),
(-100,4,l),
(-100,0,l)
);
},
{
closed = 1;
nodes = (
(926,456,l),
(1056,1026,l),
(1052,1026,l),
(966,892,o),
(810,748,o),
(678,748,cs),
(608,748,l),
(608,744,l),
(678,744,ls),
(812,744,o),
(892,590,o),
(922,456,c)
);
},
{
closed = 1;
nodes = (
(1332,1090,l),
(1428,1500,l),
(238,1500,l),
(238,1496,l),
(958,1496,ls),
(1192,1496,o),
(1318,1304,o),
(1328,1090,c)
);
}
);
width = 1257;
},
{
anchors = (
{
name = bottom;
pos = (176,0);
},
{
name = top;
pos = (824,1500);
}
);
background = {
anchors = (
{
name = bottom;
pos = (176,0);
},
{
name = top;
pos = (824,1500);
}
);
shapes = (
{
closed = 1;
nodes = (
(270,0,l),
(618,1500,l),
(428,1500,l),
(80,0,l)
);
},
{
closed = 1;
nodes = (
(471,0,l),
(471,73,l),
(-90,73,l),
(-90,0,l)
);
},
{
closed = 1;
nodes = (
(787,536,l),
(883,945,l),
(811,945,l),
(786,811,o),
(699,783,o),
(527,783,cs),
(418,783,l),
(418,711,l),
(527,711,ls),
(701,711,o),
(743,670,o),
(714,536,c)
);
},
{
closed = 1;
nodes = (
(1215,1090,l),
(1311,1500,l),
(248,1500,l),
(248,1427,l),
(928,1427,ls),
(1162,1427,o),
(1193,1304,o),
(1143,1090,c)
);
}
);
};
layerId = "E7986948-7A43-4A74-AC0C-4472ECCDAB04";
shapes = (
{
closed = 1;
nodes = (
(270,0,l),
(618,1500,l),
(428,1500,l),
(80,0,l)
);
},
{
closed = 1;
nodes = (
(471,0,l),
(471,73,l),
(-90,73,l),
(-90,0,l)
);
},
{
closed = 1;
nodes = (
(787,536,l),
(883,945,l),
(811,945,l),
(786,811,o),
(699,783,o),
(527,783,cs),
(418,783,l),
(418,711,l),
(527,711,ls),
(701,711,o),
(743,670,o),
(714,536,c)
);
},
{
closed = 1;
nodes = (
(1215,1090,l),
(1311,1500,l),
(248,1500,l),
(248,1427,l),
(928,1427,ls),
(1162,1427,o),
(1193,1304,o),
(1143,1090,c)
);
}
);
width = 1140;
},
{
anchors = (
{
name = bottom;
pos = (176,0);
},
{
name = top;
pos = (824,1500);
}
);
background = {
anchors = (
{
name = bottom;
pos = (176,0);
},
{
name = top;
pos = (824,1500);
}
);
shapes = (
{
closed = 1;
nodes = (
(270,0,l),
(618,1500,l),
(428,1500,l),
(80,0,l)
);
},
{
closed = 1;
nodes = (
(470,0,l),
(470,4,l),
(-90,4,l),
(-90,0,l)
);
},
{
closed = 1;
nodes = (
(754,536,l),
(850,946,l),
(846,946,l),
(820,812,o),
(700,748,o),
(528,748,cs),
(418,748,l),
(418,744,l),
(528,744,ls),
(702,744,o),
(780,670,o),
(750,536,c)
);
},
{
closed = 1;
nodes = (
(1182,1090,l),
(1278,1500,l),
(248,1500,l),
(248,1496,l),
(928,1496,ls),
(1162,1496,o),
(1228,1304,o),
(1178,1090,c)
);
}
);
};
layerId = "F479A047-48C9-4D19-A0FD-B440837ED7E5";
shapes = (
{
closed = 1;
nodes = (
(270,0,l),
(618,1500,l),
(428,1500,l),
(80,0,l)
);
},
{
closed = 1;
nodes = (
(470,0,l),
(470,4,l),
(-90,4,l),
(-90,0,l)
);
},
{
closed = 1;
nodes = (
(754,536,l),
(850,946,l),
(846,946,l),
(820,812,o),
(700,748,o),
(528,748,cs),
(418,748,l),
(418,744,l),
(528,744,ls),
(702,744,o),
(780,670,o),
(750,536,c)
);
},
{
closed = 1;
nodes = (
(1182,1090,l),
(1278,1500,l),
(248,1500,l),
(248,1496,l),
(928,1496,ls),
(1162,1496,o),
(1228,1304,o),
(1178,1090,c)
);
}
);
width = 1107;
},
{
anchors = (
{
name = bottom;
pos = (286,0);
},
{
name = top;
pos = (894,1500);
}
);
background = {
anchors = (
{
name = bottom;
pos = (286,0);
},
{
name = top;
pos = (894,1500);
}
);
shapes = (
{
closed = 1;
nodes = (
(500,0,l),
(848,1500,l),
(418,1500,l),
(70,0,l)
);
},
{
closed = 1;
nodes = (
(700,0,l),
(700,73,l),
(-100,73,l),
(-100,0,l)
);
},
{
closed = 1;
nodes = (
(959,456,l),
(1090,1025,l),
(1016,1025,l),
(930,891,o),
(810,783,o),
(678,783,cs),
(607,783,l),
(607,709,l),
(678,709,ls),
(812,709,o),
(858,590,o),
(887,456,c)
);
},
{
closed = 1;
nodes = (
(1365,1090,l),
(1461,1500,l),
(238,1500,l),
(238,1427,l),
(958,1427,ls),
(1192,1427,o),
(1282,1304,o),
(1292,1090,c)
);
}
);
};
layerId = "5A0F1DA2-36F1-48C5-B19D-79E54862F5ED";
shapes = (
{
closed = 1;
nodes = (
(500,0,l),
(848,1500,l),
(418,1500,l),
(70,0,l)
);
},
{
closed = 1;
nodes = (
(700,0,l),
(700,73,l),
(-100,73,l),
(-100,0,l)
);
},
{
closed = 1;
nodes = (
(959,456,l),
(1090,1025,l),
(1016,1025,l),
(930,891,o),
(810,783,o),
(678,783,cs),
(607,783,l),
(607,709,l),
(678,709,ls),
(812,709,o),
(858,590,o),
(887,456,c)
);
},
{
closed = 1;
nodes = (
(1365,1090,l),
(1461,1500,l),
(238,1500,l),
(238,1427,l),
(958,1427,ls),
(1192,1427,o),
(1282,1304,o),
(1292,1090,c)
);
}
);
width = 1291;
}
);
unicode = 70;
},
{
color = (0,171,232,255);
glyphname = G;
lastChange = "2023-10-05 13:59:01 +0000";
layers = (
{
anchors = (
{
name = bottom;
pos = (717,0);
},
{
name = cedilla;
pos = (716,0);
},
{
name = top;
pos = (1076,1500);
}
);
background = {
anchors = (
{
name = bottom;
pos = (717,0);
},
{
name = cedilla;
pos = (716,0);
},
{
name = top;
pos = (1076,1500);
}
);
shapes = (
{
closed = 1;
nodes = (
(1036,-20,o),
(1354,204,o),
(1444,330,c),
(1506,568,l),
(1058,568,l),
(974,250,l),
(904,126,o),
(828,-16,o),
(720,-16,cs),
(572,-16,o),
(540,186,o),
(540,390,cs),
(540,794,o),
(762,1496,o),
(1150,1496,cs),
(1338,1496,o),
(1510,1322,o),
(1554,1030,c),
(1558,1030,l),
(1514,1316,o),
(1346,1520,o),
(1070,1520,cs),
(584,1520,o),
(100,1096,o),
(100,510,cs),
(100,144,o),
(364,-20,o),
(710,-20,cs)
);
},
{
closed = 1;
nodes = (
(1580,568,l),
(1580,572,l),
(840,572,l),
(840,568,l)
);
},
{
closed = 1;
nodes = (
(1558,1030,l),
(1666,1500,l),
(1662,1500,l),
(1394,1388,l),
(1472,1312,o),
(1526,1182,o),
(1544,1096,c),
(1558,1030,l)
);
}
);
};
layerId = "C8A05DAB-080B-4AF9-9351-1A1E2A671399";
shapes = (
{
closed = 1;
nodes = (
(1036,-20,o),
(1354,204,o),
(1444,330,c),
(1506,568,l),
(1058,568,l),
(974,250,l),
(904,126,o),
(828,-16,o),
(720,-16,cs),
(572,-16,o),
(540,186,o),
(540,390,cs),
(540,794,o),
(762,1496,o),
(1150,1496,cs),
(1338,1496,o),
(1510,1322,o),
(1554,1030,c),
(1558,1030,l),
(1514,1316,o),
(1346,1520,o),
(1070,1520,cs),
(584,1520,o),
(100,1096,o),
(100,510,cs),
(100,144,o),
(364,-20,o),
(710,-20,cs)
);
},
{
closed = 1;
nodes = (
(1580,568,l),
(1580,572,l),
(840,572,l),
(840,568,l)
);
},
{
closed = 1;
nodes = (
(1558,1030,l),
(1666,1500,l),
(1662,1500,l),
(1394,1388,l),
(1472,1312,o),
(1526,1182,o),
(1544,1096,c),
(1558,1030,l)
);
}
);
width = 1665;
},
{
anchors = (
{
name = bottom;
pos = (597,0);
},
{
name = cedilla;
pos = (596,0);
},
{
name = top;
pos = (976,1500);
}
);
background = {
anchors = (
{
name = bottom;
pos = (597,0);
},
{
name = cedilla;
pos = (596,0);
},
{
name = top;
pos = (976,1500);
}
);
shapes = (
{
closed = 1;
nodes = (
(946,-20,o),
(1144,204,o),
(1234,330,c),
(1294,561,l),
(1086,561,l),
(1004,250,l),
(975,206,o),
(848,53,o),
(600,53,cs),
(392,53,o),
(330,187,o),
(330,391,cs),
(330,855,o),
(572,1433,o),
(1000,1433,cs),
(1168,1433,o),
(1356,1354,o),
(1320,1090,c),
(1359,1090,l),
(1395,1376,o),
(1216,1520,o),
(980,1520,cs),
(514,1520,o),
(109,1056,o),
(109,510,cs),
(109,184,o),
(313,-20,o),
(620,-20,cs)
);
},
{
closed = 1;
nodes = (
(1450,533,l),
(1450,606,l),
(910,606,l),
(910,533,l)
);
},
{
closed = 1;
nodes = (
(1393,1090,l),
(1489,1500,l),
(1426,1500,l),
(1300,1350,l),
(1333,1302,o),
(1340,1247,o),
(1346,1191,c),
(1320,1090,l)
);
}
);
};
layerId = "E7986948-7A43-4A74-AC0C-4472ECCDAB04";
shapes = (
{
closed = 1;
nodes = (
(946,-20,o),
(1144,204,o),
(1234,330,c),
(1294,561,l),
(1086,561,l),
(1004,250,l),
(975,206,o),
(848,53,o),
(600,53,cs),
(392,53,o),
(330,187,o),
(330,391,cs),
(330,855,o),
(572,1433,o),
(1000,1433,cs),
(1168,1433,o),
(1356,1354,o),
(1320,1090,c),
(1359,1090,l),
(1395,1376,o),
(1216,1520,o),
(980,1520,cs),
(514,1520,o),
(109,1056,o),
(109,510,cs),
(109,184,o),
(313,-20,o),
(620,-20,cs)
);
},
{
closed = 1;
nodes = (
(1450,533,l),
(1450,606,l),
(910,606,l),
(910,533,l)
);
},
{
closed = 1;
nodes = (
(1393,1090,l),
(1489,1500,l),
(1426,1500,l),
(1300,1350,l),
(1333,1302,o),
(1340,1247,o),
(1346,1191,c),
(1320,1090,l)
);
}
);
width = 1488;
},
{
anchors = (
{
name = bottom;
pos = (597,0);
},
{
name = cedilla;
pos = (596,0);
},
{
name = top;
pos = (976,1500);
}
);
background = {
anchors = (
{
name = bottom;
pos = (597,0);
},
{
name = cedilla;
pos = (596,0);
},
{
name = top;
pos = (976,1500);
}
);
shapes = (
{
closed = 1;
nodes = (
(946,-20,o),
(1144,204,o),
(1234,330,c),
(1296,570,l),
(1088,570,l),
(1004,250,l),
(974,206,o),
(850,-16,o),
(602,-16,cs),
(394,-16,o),
(330,186,o),
(330,390,cs),
(330,854,o),
(572,1512,o),
(1000,1512,cs),
(1216,1512,o),
(1390,1370,o),
(1356,1090,c),
(1360,1090,l),
(1396,1376,o),
(1216,1520,o),
(980,1520,cs),
(514,1520,o),
(110,1056,o),
(110,510,cs),
(110,184,o),
(314,-20,o),
(620,-20,cs)
);
},
{
closed = 1;
nodes = (
(1450,568,l),
(1450,572,l),
(910,572,l),
(910,568,l)
);
},
{
closed = 1;
nodes = (
(1360,1090,l),
(1456,1500,l),
(1452,1500,l),
(1310,1360,l),
(1352,1292,o),
(1366,1212,o),
(1362,1136,c),
(1356,1090,l)
);
}
);
};
layerId = "F479A047-48C9-4D19-A0FD-B440837ED7E5";
shapes = (
{
closed = 1;
nodes = (
(946,-20,o),
(1144,204,o),
(1234,330,c),
(1296,570,l),
(1088,570,l),
(1004,250,l),
(974,206,o),
(850,-16,o),
(602,-16,cs),
(394,-16,o),
(330,186,o),
(330,390,cs),
(330,854,o),
(572,1512,o),
(1000,1512,cs),
(1216,1512,o),
(1390,1370,o),
(1356,1090,c),
(1360,1090,l),
(1396,1376,o),
(1216,1520,o),
(980,1520,cs),
(514,1520,o),
(110,1056,o),
(110,510,cs),
(110,184,o),
(314,-20,o),
(620,-20,cs)
);
},
{
closed = 1;
nodes = (
(1450,568,l),
(1450,572,l),
(910,572,l),
(910,568,l)
);
},
{
closed = 1;
nodes = (
(1360,1090,l),
(1456,1500,l),
(1452,1500,l),
(1310,1360,l),
(1352,1292,o),
(1366,1212,o),
(1362,1136,c),
(1356,1090,l)
);
}
);
width = 1455;
},
{
anchors = (
{
name = bottom;
pos = (717,0);
},
{
name = cedilla;
pos = (716,0);
},
{
name = top;
pos = (1076,1500);
}
);
background = {
anchors = (
{
name = bottom;
pos = (717,0);
},
{
name = cedilla;
pos = (716,0);
},
{
name = top;
pos = (1076,1500);
}
);
shapes = (
{
closed = 1;
nodes = (
(1036,-20,o),
(1353,204,o),
(1443,330,c),
(1504,561,l),
(1057,561,l),
(975,250,l),
(905,126,o),
(837,54,o),
(730,54,cs),
(582,54,o),
(540,187,o),
(540,391,cs),
(540,795,o),
(761,1427,o),
(1150,1427,cs),
(1318,1427,o),
(1463,1293,o),
(1518,1029,c),
(1559,1029,l),
(1549,1315,o),
(1351,1520,o),
(1070,1520,cs),
(584,1520,o),
(100,1096,o),
(100,510,cs),
(100,144,o),
(364,-20,o),
(710,-20,cs)
);
},
{
closed = 1;
nodes = (
(1580,533,l),
(1580,606,l),
(840,606,l),
(840,533,l)
);
},
{
closed = 1;
nodes = (
(1592,1029,l),
(1699,1500,l),
(1637,1500,l),
(1378,1380,l),
(1417,1318,o),
(1455,1256,o),
(1496,1191,c),
(1518,1029,l)
);
}
);
};
layerId = "5A0F1DA2-36F1-48C5-B19D-79E54862F5ED";
shapes = (
{
closed = 1;
nodes = (
(1036,-20,o),
(1353,204,o),
(1443,330,c),
(1504,561,l),
(1057,561,l),
(975,250,l),
(905,126,o),
(837,54,o),
(730,54,cs),
(582,54,o),
(540,187,o),
(540,391,cs),
(540,795,o),
(761,1427,o),
(1150,1427,cs),
(1318,1427,o),
(1463,1293,o),
(1518,1029,c),
(1559,1029,l),
(1549,1315,o),
(1351,1520,o),
(1070,1520,cs),
(584,1520,o),
(100,1096,o),
(100,510,cs),
(100,144,o),
(364,-20,o),
(710,-20,cs)
);
},
{
closed = 1;
nodes = (
(1580,533,l),
(1580,606,l),
(840,606,l),
(840,533,l)
);
},
{
closed = 1;
nodes = (
(1592,1029,l),
(1699,1500,l),
(1637,1500,l),
(1378,1380,l),
(1417,1318,o),
(1455,1256,o),
(1496,1191,c),
(1518,1029,l)
);
}
);
width = 1665;
}
);
unicode = 71;
},
{
color = 10;
glyphname = Gbreve;
lastChange = "2023-10-05 13:59:28 +0000";
layers = (
{
background = {
anchors = (
{
name = bottom;
pos = (717,0);
},
{
name = cedilla;
pos = (716,0);
},
{
name = top;
pos = (1076,1500);
}
);
shapes = (
{
closed = 1;
nodes = (
(1036,-20,o),
(1354,204,o),
(1444,330,c),
(1506,568,l),
(1058,568,l),
(974,250,l),
(904,126,o),
(828,-16,o),
(720,-16,cs),
(572,-16,o),
(540,186,o),
(540,390,cs),
(540,794,o),
(762,1496,o),
(1150,1496,cs),
(1338,1496,o),
(1510,1322,o),
(1554,1030,c),
(1558,1030,l),
(1514,1316,o),
(1346,1520,o),
(1070,1520,cs),
(584,1520,o),
(100,1096,o),
(100,510,cs),
(100,144,o),
(364,-20,o),
(710,-20,cs)
);
},
{
closed = 1;
nodes = (
(1580,568,l),
(1580,572,l),
(840,572,l),
(840,568,l)
);
},
{
closed = 1;
nodes = (
(1558,1030,l),
(1666,1500,l),
(1662,1500,l),
(1394,1388,l),
(1472,1312,o),
(1526,1182,o),
(1544,1096,c),
(1558,1030,l)
);
},
{
closed = 1;
nodes = (
(1359,1682,o),
(1419,1938,o),
(1439,2060,c),
(1435,2060,l),
(1403,1962,o),
(1247,1952,o),
(1139,1952,cs),
(1031,1952,o),
(913,1986,o),
(923,2060,c),
(919,2060,l),
(899,1938,o),
(899,1682,o),
(1119,1682,cs)
);
}
);
};
layerId = "C8A05DAB-080B-4AF9-9351-1A1E2A671399";
shapes = (
{
ref = G;
},
{
pos = (311,0);
ref = brevecomb;
}
);
width = 1665;
},
{
background = {
anchors = (
{
name = bottom;
pos = (597,0);
},
{
name = cedilla;
pos = (596,0);
},
{
name = top;
pos = (976,1500);
}
);
shapes = (
{
closed = 1;
nodes = (
(946,-20,o),
(1144,204,o),
(1234,330,c),
(1294,561,l),
(1086,561,l),
(1004,250,l),
(975,206,o),
(848,53,o),
(600,53,cs),
(392,53,o),
(330,187,o),
(330,391,cs),
(330,855,o),
(572,1433,o),
(1000,1433,cs),
(1168,1433,o),
(1356,1354,o),
(1320,1090,c),
(1359,1090,l),
(1395,1376,o),
(1216,1520,o),
(980,1520,cs),
(514,1520,o),
(109,1056,o),
(109,510,cs),
(109,184,o),
(313,-20,o),
(620,-20,cs)
);
},
{
closed = 1;
nodes = (
(1450,533,l),
(1450,606,l),
(910,606,l),
(910,533,l)
);
},
{
closed = 1;
nodes = (
(1393,1090,l),
(1489,1500,l),
(1426,1500,l),
(1300,1350,l),
(1333,1302,o),
(1340,1247,o),
(1346,1191,c),
(1320,1090,l)
);
},
{
closed = 1;
nodes = (
(1199,1682,o),
(1279,1818,o),
(1299,1940,c),
(1227,1940,l),
(1207,1842,o),
(1133,1792,o),
(1039,1792,cs),
(945,1792,o),
(912,1842,o),
(932,1940,c),
(859,1940,l),
(839,1818,o),
(859,1682,o),
(1019,1682,cs)
);
}
);
};
layerId = "E7986948-7A43-4A74-AC0C-4472ECCDAB04";
shapes = (
{
ref = G;
},
{
pos = (237,0);
ref = brevecomb;
}
);
width = 1488;
},
{
background = {
anchors = (
{
name = bottom;
pos = (597,0);
},
{
name = cedilla;
pos = (596,0);
},
{
name = top;
pos = (976,1500);
}
);
shapes = (
{
closed = 1;
nodes = (
(946,-20,o),
(1144,204,o),
(1234,330,c),
(1296,570,l),
(1088,570,l),
(1004,250,l),
(974,206,o),
(850,-16,o),
(602,-16,cs),
(394,-16,o),
(330,186,o),
(330,390,cs),
(330,854,o),
(572,1512,o),
(1000,1512,cs),
(1216,1512,o),
(1390,1370,o),
(1356,1090,c),
(1360,1090,l),
(1396,1376,o),
(1216,1520,o),
(980,1520,cs),
(514,1520,o),
(110,1056,o),
(110,510,cs),
(110,184,o),
(314,-20,o),
(620,-20,cs)
);
},
{
closed = 1;
nodes = (
(1450,568,l),
(1450,572,l),
(910,572,l),
(910,568,l)
);
},
{
closed = 1;
nodes = (
(1360,1090,l),
(1456,1500,l),
(1452,1500,l),
(1310,1360,l),
(1352,1292,o),
(1366,1212,o),
(1362,1136,c),
(1356,1090,l)
);
},
{
closed = 1;
nodes = (
(1199,1682,o),
(1279,1818,o),
(1299,1940,c),
(1295,1940,l),
(1275,1842,o),
(1133,1792,o),
(1039,1792,cs),
(945,1792,o),
(848,1842,o),
(863,1940,c),
(859,1940,l),
(839,1818,o),
(859,1682,o),
(1019,1682,cs)
);
}
);
};
layerId = "F479A047-48C9-4D19-A0FD-B440837ED7E5";
shapes = (
{
ref = G;
},
{
pos = (237,0);
ref = brevecomb;
}
);
width = 1455;
},
{
background = {
anchors = (
{
name = bottom;
pos = (717,0);
},
{
name = cedilla;
pos = (716,0);
},
{
name = top;
pos = (1076,1500);
}
);
shapes = (
{
closed = 1;
nodes = (
(1036,-20,o),
(1353,204,o),
(1443,330,c),
(1504,561,l),
(1057,561,l),
(975,250,l),
(905,126,o),
(837,54,o),
(730,54,cs),
(582,54,o),
(540,187,o),
(540,391,cs),
(540,795,o),
(761,1427,o),
(1150,1427,cs),
(1318,1427,o),
(1463,1293,o),
(1518,1029,c),
(1559,1029,l),
(1549,1315,o),
(1351,1520,o),
(1070,1520,cs),
(584,1520,o),
(100,1096,o),
(100,510,cs),
(100,144,o),
(364,-20,o),
(710,-20,cs)
);
},
{
closed = 1;
nodes = (
(1580,533,l),
(1580,606,l),
(840,606,l),
(840,533,l)
);
},
{
closed = 1;
nodes = (
(1592,1029,l),
(1699,1500,l),
(1637,1500,l),
(1378,1380,l),
(1417,1318,o),
(1455,1256,o),
(1496,1191,c),
(1518,1029,l)
);
},
{
closed = 1;
nodes = (
(1359,1682,o),
(1419,1937,o),
(1439,2059,c),
(1366,2059,l),
(1334,1961,o),
(1246,1951,o),
(1139,1951,cs),
(1032,1951,o),
(982,1985,o),
(992,2059,c),
(919,2059,l),
(899,1937,o),
(898,1682,o),
(1119,1682,cs)
);
}
);
};
layerId = "5A0F1DA2-36F1-48C5-B19D-79E54862F5ED";
shapes = (
{
ref = G;
},
{
pos = (311,0);
ref = brevecomb;
}
);
width = 1665;
}
);
unicode = 286;
},
{
color = 10;
glyphname = Gcircumflex;
lastChange = "2023-10-05 13:59:28 +0000";
layers = (
{
background = {
anchors = (
{
name = bottom;
pos = (717,0);
},
{
name = cedilla;
pos = (716,0);
},
{
name = top;
pos = (1076,1500);
}
);
shapes = (
{
closed = 1;
nodes = (
(1036,-20,o),
(1354,204,o),
(1444,330,c),
(1506,568,l),
(1058,568,l),
(974,250,l),
(904,126,o),
(828,-16,o),
(720,-16,cs),
(572,-16,o),
(540,186,o),
(540,390,cs),
(540,794,o),
(762,1496,o),
(1150,1496,cs),
(1338,1496,o),
(1510,1322,o),
(1554,1030,c),
(1558,1030,l),
(1514,1316,o),
(1346,1520,o),
(1070,1520,cs),
(584,1520,o),
(100,1096,o),
(100,510,cs),
(100,144,o),
(364,-20,o),
(710,-20,cs)
);
},
{
closed = 1;
nodes = (
(1580,568,l),
(1580,572,l),
(840,572,l),
(840,568,l)
);
},
{
closed = 1;
nodes = (
(1558,1030,l),
(1666,1500,l),
(1662,1500,l),
(1394,1388,l),
(1472,1312,o),
(1526,1182,o),
(1544,1096,c),
(1558,1030,l)
);
},
{
closed = 1;
nodes = (
(1164,1849,l),
(1508,1717,l),
(1510,1719,l),
(1274,2039,l),
(1064,2039,l),
(740,1719,l),
(742,1717,l)
);
}
);
};
layerId = "C8A05DAB-080B-4AF9-9351-1A1E2A671399";
shapes = (
{
ref = G;
},
{
pos = (334,0);
ref = circumflexcomb;
}
);
width = 1665;
},
{
background = {
anchors = (
{
name = bottom;
pos = (597,0);
},
{
name = cedilla;
pos = (596,0);
},
{
name = top;
pos = (976,1500);
}
);
shapes = (
{
closed = 1;
nodes = (
(946,-20,o),
(1144,204,o),
(1234,330,c),
(1294,561,l),
(1086,561,l),
(1004,250,l),
(975,206,o),
(848,53,o),
(600,53,cs),
(392,53,o),
(330,187,o),
(330,391,cs),
(330,855,o),
(572,1433,o),
(1000,1433,cs),
(1168,1433,o),
(1356,1354,o),
(1320,1090,c),
(1359,1090,l),
(1395,1376,o),
(1216,1520,o),
(980,1520,cs),
(514,1520,o),
(109,1056,o),
(109,510,cs),
(109,184,o),
(313,-20,o),
(620,-20,cs)
);
},
{
closed = 1;
nodes = (
(1450,533,l),
(1450,606,l),
(910,606,l),
(910,533,l)
);
},
{
closed = 1;
nodes = (
(1393,1090,l),
(1489,1500,l),
(1426,1500,l),
(1300,1350,l),
(1333,1302,o),
(1340,1247,o),
(1346,1191,c),
(1320,1090,l)
);
},
{
closed = 1;
nodes = (
(1063,1849,l),
(1261,1672,l),
(1309,1719,l),
(1132,1939,l),
(1002,1939,l),
(738,1719,l),
(779,1677,l)
);
}
);
};
layerId = "E7986948-7A43-4A74-AC0C-4472ECCDAB04";
shapes = (
{
ref = G;
},
{
pos = (232,0);
ref = circumflexcomb;
}
);
width = 1488;
},
{
background = {
anchors = (
{
name = bottom;
pos = (597,0);
},
{
name = cedilla;
pos = (596,0);
},
{
name = top;
pos = (976,1500);
}
);
shapes = (
{
closed = 1;
nodes = (
(946,-20,o),
(1144,204,o),
(1234,330,c),
(1296,570,l),
(1088,570,l),
(1004,250,l),
(974,206,o),
(850,-16,o),
(602,-16,cs),
(394,-16,o),
(330,186,o),
(330,390,cs),
(330,854,o),
(572,1512,o),
(1000,1512,cs),
(1216,1512,o),
(1390,1370,o),
(1356,1090,c),
(1360,1090,l),
(1396,1376,o),
(1216,1520,o),
(980,1520,cs),
(514,1520,o),
(110,1056,o),
(110,510,cs),
(110,184,o),
(314,-20,o),
(620,-20,cs)
);
},
{
closed = 1;
nodes = (
(1450,568,l),
(1450,572,l),
(910,572,l),
(910,568,l)
);
},
{
closed = 1;
nodes = (
(1360,1090,l),
(1456,1500,l),
(1452,1500,l),
(1310,1360,l),
(1352,1292,o),
(1366,1212,o),
(1362,1136,c),
(1356,1090,l)
);
},
{
closed = 1;
nodes = (
(1063,1849,l),
(1308,1716,l),
(1309,1719,l),
(1132,1939,l),
(1002,1939,l),
(738,1719,l),
(741,1716,l)
);
}
);
};
layerId = "F479A047-48C9-4D19-A0FD-B440837ED7E5";
shapes = (
{
ref = G;
},
{
pos = (232,0);
ref = circumflexcomb;
}
);
width = 1455;
},
{
background = {
anchors = (
{
name = bottom;
pos = (717,0);
},
{
name = cedilla;
pos = (716,0);
},
{
name = top;
pos = (1076,1500);
}
);
shapes = (
{
closed = 1;
nodes = (
(1036,-20,o),
(1353,204,o),
(1443,330,c),
(1504,561,l),
(1057,561,l),
(975,250,l),
(905,126,o),
(837,54,o),
(730,54,cs),
(582,54,o),
(540,187,o),
(540,391,cs),
(540,795,o),
(761,1427,o),
(1150,1427,cs),
(1318,1427,o),
(1463,1293,o),
(1518,1029,c),
(1559,1029,l),
(1549,1315,o),
(1351,1520,o),
(1070,1520,cs),
(584,1520,o),
(100,1096,o),
(100,510,cs),
(100,144,o),
(364,-20,o),
(710,-20,cs)
);
},
{
closed = 1;
nodes = (
(1580,533,l),
(1580,606,l),
(840,606,l),
(840,533,l)
);
},
{
closed = 1;
nodes = (
(1592,1029,l),
(1699,1500,l),
(1637,1500,l),
(1378,1380,l),
(1417,1318,o),
(1455,1256,o),
(1496,1191,c),
(1518,1029,l)
);
},
{
closed = 1;
nodes = (
(1163,1849,l),
(1474,1685,l),
(1509,1720,l),
(1273,2039,l),
(1064,2039,l),
(739,1720,l),
(778,1680,l)
);
}
);
};
layerId = "5A0F1DA2-36F1-48C5-B19D-79E54862F5ED";
shapes = (
{
ref = G;
},
{
pos = (333,0);
ref = circumflexcomb;
}
);
width = 1665;
}
);
unicode = 284;
},
{
color = 10;
glyphname = Gcommaaccent;
lastChange = "2023-10-05 13:59:28 +0000";
layers = (
{
background = {
anchors = (
{
name = bottom;
pos = (717,0);
},
{
name = cedilla;
pos = (716,0);
},
{
name = top;
pos = (1076,1500);
}
);
shapes = (
{
closed = 1;
nodes = (
(1036,-20,o),
(1354,204,o),
(1444,330,c),
(1506,568,l),
(1058,568,l),
(974,250,l),
(904,126,o),
(828,-16,o),
(720,-16,cs),
(572,-16,o),
(540,186,o),
(540,390,cs),
(540,794,o),
(762,1496,o),
(1150,1496,cs),
(1338,1496,o),
(1510,1322,o),
(1554,1030,c),
(1558,1030,l),
(1514,1316,o),
(1346,1520,o),
(1070,1520,cs),
(584,1520,o),
(100,1096,o),
(100,510,cs),
(100,144,o),
(364,-20,o),
(710,-20,cs)
);
},
{
closed = 1;
nodes = (
(1580,568,l),
(1580,572,l),
(840,572,l),
(840,568,l)
);
},
{
closed = 1;
nodes = (
(1558,1030,l),
(1666,1500,l),
(1662,1500,l),
(1394,1388,l),
(1472,1312,o),
(1526,1182,o),
(1544,1096,c),
(1558,1030,l)
);
},
{
closed = 1;
nodes = (
(596,-794,o),
(874,-662,o),
(874,-398,cs),
(874,-266,o),
(777,-179,o),
(667,-179,cs),
(558,-179,o),
(464,-274,o),
(464,-374,cs),
(464,-479,o),
(543,-560,o),
(668,-560,cs),
(754,-560,o),
(873,-510,o),
(873,-398,c),
(871,-398,l),
(871,-659,o),
(597,-790,o),
(348,-790,c),
(348,-794,l)
);
}
);
};
layerId = "C8A05DAB-080B-4AF9-9351-1A1E2A671399";
shapes = (
{
ref = G;
},
{
pos = (359,0);
ref = commaaccentcomb;
}
);
width = 1665;
},
{
background = {
anchors = (
{
name = bottom;
pos = (597,0);
},
{
name = cedilla;
pos = (596,0);
},
{
name = top;
pos = (976,1500);
}
);
shapes = (
{
closed = 1;
nodes = (
(946,-20,o),
(1144,204,o),
(1234,330,c),
(1294,561,l),
(1086,561,l),
(1004,250,l),
(975,206,o),
(848,53,o),
(600,53,cs),
(392,53,o),
(330,187,o),
(330,391,cs),
(330,855,o),
(572,1433,o),
(1000,1433,cs),
(1168,1433,o),
(1356,1354,o),
(1320,1090,c),
(1359,1090,l),
(1395,1376,o),
(1216,1520,o),
(980,1520,cs),
(514,1520,o),
(109,1056,o),
(109,510,cs),
(109,184,o),
(313,-20,o),
(620,-20,cs)
);
},
{
closed = 1;
nodes = (
(1450,533,l),
(1450,606,l),
(910,606,l),
(910,533,l)
);
},
{
closed = 1;
nodes = (
(1393,1090,l),
(1489,1500,l),
(1426,1500,l),
(1300,1350,l),
(1333,1302,o),
(1340,1247,o),
(1346,1191,c),
(1320,1090,l)
);
},
{
closed = 1;
nodes = (
(514,-623,o),
(659,-467,o),
(659,-323,cs),
(659,-239,o),
(615,-200,o),
(552,-200,cs),
(491,-200,o),
(445,-247,o),
(445,-299,cs),
(445,-348,o),
(476,-389,o),
(545,-389,cs),
(591,-389,o),
(658,-363,o),
(658,-323,c),
(599,-323,l),
(599,-435,o),
(475,-563,o),
(370,-563,c),
(370,-623,l)
);
}
);
};
layerId = "E7986948-7A43-4A74-AC0C-4472ECCDAB04";
shapes = (
{
ref = G;
},
{
pos = (226,0);
ref = commaaccentcomb;
}
);
width = 1488;
},
{
background = {
anchors = (
{
name = bottom;
pos = (597,0);
},
{
name = cedilla;
pos = (596,0);
},
{
name = top;
pos = (976,1500);
}
);
shapes = (
{
closed = 1;
nodes = (
(946,-20,o),
(1144,204,o),
(1234,330,c),
(1296,570,l),
(1088,570,l),
(1004,250,l),
(974,206,o),
(850,-16,o),
(602,-16,cs),
(394,-16,o),
(330,186,o),
(330,390,cs),
(330,854,o),
(572,1512,o),
(1000,1512,cs),
(1216,1512,o),
(1390,1370,o),
(1356,1090,c),
(1360,1090,l),
(1396,1376,o),
(1216,1520,o),
(980,1520,cs),
(514,1520,o),
(110,1056,o),
(110,510,cs),
(110,184,o),
(314,-20,o),
(620,-20,cs)
);
},
{
closed = 1;
nodes = (
(1450,568,l),
(1450,572,l),
(910,572,l),
(910,568,l)
);
},
{
closed = 1;
nodes = (
(1360,1090,l),
(1456,1500,l),
(1452,1500,l),
(1310,1360,l),
(1352,1292,o),
(1366,1212,o),
(1362,1136,c),
(1356,1090,l)
);
},
{
closed = 1;
nodes = (
(514,-623,o),
(659,-467,o),
(659,-323,cs),
(659,-239,o),
(615,-200,o),
(552,-200,cs),
(491,-200,o),
(445,-247,o),
(445,-299,cs),
(445,-348,o),
(476,-389,o),
(545,-389,cs),
(607,-389,o),
(655,-346,o),
(655,-287,c),
(653,-287,l),
(680,-448,o),
(515,-619,o),
(370,-619,c),
(370,-623,l)
);
}
);
};
layerId = "F479A047-48C9-4D19-A0FD-B440837ED7E5";
shapes = (
{
ref = G;
},
{
pos = (232,0);
ref = commaaccentcomb;
}
);
width = 1455;
},
{
background = {
anchors = (
{
name = bottom;
pos = (717,0);
},
{
name = cedilla;
pos = (716,0);
},
{
name = top;
pos = (1076,1500);
}
);
shapes = (
{
closed = 1;
nodes = (
(1036,-20,o),
(1353,204,o),
(1443,330,c),
(1504,561,l),
(1057,561,l),
(975,250,l),
(905,126,o),
(837,54,o),
(730,54,cs),
(582,54,o),
(540,187,o),
(540,391,cs),
(540,795,o),
(761,1427,o),
(1150,1427,cs),
(1318,1427,o),
(1463,1293,o),
(1518,1029,c),
(1559,1029,l),
(1549,1315,o),
(1351,1520,o),
(1070,1520,cs),
(584,1520,o),
(100,1096,o),
(100,510,cs),
(100,144,o),
(364,-20,o),
(710,-20,cs)
);
},
{
closed = 1;
nodes = (
(1580,533,l),
(1580,606,l),
(840,606,l),
(840,533,l)
);
},
{
closed = 1;
nodes = (
(1592,1029,l),
(1699,1500,l),
(1637,1500,l),
(1378,1380,l),
(1417,1318,o),
(1455,1256,o),
(1496,1191,c),
(1518,1029,l)
);
},
{
closed = 1;
nodes = (
(595,-794,o),
(874,-662,o),
(874,-398,cs),
(874,-266,o),
(777,-179,o),
(667,-179,cs),
(558,-179,o),
(463,-274,o),
(463,-374,cs),
(463,-479,o),
(543,-560,o),
(667,-560,cs),
(754,-560,o),
(872,-510,o),
(872,-398,c),
(814,-398,l),
(814,-638,o),
(541,-734,o),
(347,-734,c),
(347,-794,l)
);
}
);
};
layerId = "5A0F1DA2-36F1-48C5-B19D-79E54862F5ED";
shapes = (
{
ref = G;
},
{
pos = (352,0);
ref = commaaccentcomb;
}
);
width = 1665;
}
);
unicode = 290;
},
{
color = 10;
glyphname = Gdotaccent;
lastChange = "2023-10-05 13:59:28 +0000";
layers = (
{
background = {
anchors = (
{
name = bottom;
pos = (717,0);
},
{
name = cedilla;
pos = (716,0);
},
{
name = top;
pos = (1076,1500);
}
);
shapes = (
{
closed = 1;
nodes = (
(1036,-20,o),
(1354,204,o),
(1444,330,c),
(1506,568,l),
(1058,568,l),
(974,250,l),
(904,126,o),
(828,-16,o),
(720,-16,cs),
(572,-16,o),
(540,186,o),
(540,390,cs),
(540,794,o),
(762,1496,o),
(1150,1496,cs),
(1338,1496,o),
(1510,1322,o),
(1554,1030,c),
(1558,1030,l),
(1514,1316,o),
(1346,1520,o),
(1070,1520,cs),
(584,1520,o),
(100,1096,o),
(100,510,cs),
(100,144,o),
(364,-20,o),
(710,-20,cs)
);
},
{
closed = 1;
nodes = (
(1580,568,l),
(1580,572,l),
(840,572,l),
(840,568,l)
);
},
{
closed = 1;
nodes = (
(1558,1030,l),
(1666,1500,l),
(1662,1500,l),
(1394,1388,l),
(1472,1312,o),
(1526,1182,o),
(1544,1096,c),
(1558,1030,l)
);
},
{
closed = 1;
nodes = (
(1290,1659,o),
(1385,1764,o),
(1385,1880,cs),
(1385,1996,o),
(1290,2100,o),
(1164,2100,cs),
(1038,2100,o),
(945,1996,o),
(945,1880,cs),
(945,1764,o),
(1038,1659,o),
(1164,1659,cs)
);
}
);
};
layerId = "C8A05DAB-080B-4AF9-9351-1A1E2A671399";
shapes = (
{
ref = G;
},
{
pos = (470,580);
ref = dotaccentcomb;
}
);
width = 1665;
},
{
background = {
anchors = (
{
name = bottom;
pos = (597,0);
},
{
name = cedilla;
pos = (596,0);
},
{
name = top;
pos = (976,1500);
}
);
shapes = (
{
closed = 1;
nodes = (
(946,-20,o),
(1144,204,o),
(1234,330,c),
(1294,561,l),
(1086,561,l),
(1004,250,l),
(975,206,o),
(848,53,o),
(600,53,cs),
(392,53,o),
(330,187,o),
(330,391,cs),
(330,855,o),
(572,1433,o),
(1000,1433,cs),
(1168,1433,o),
(1356,1354,o),
(1320,1090,c),
(1359,1090,l),
(1395,1376,o),
(1216,1520,o),
(980,1520,cs),
(514,1520,o),
(109,1056,o),
(109,510,cs),
(109,184,o),
(313,-20,o),
(620,-20,cs)
);
},
{
closed = 1;
nodes = (
(1450,533,l),
(1450,606,l),
(910,606,l),
(910,533,l)
);
},
{
closed = 1;
nodes = (
(1393,1090,l),
(1489,1500,l),
(1426,1500,l),
(1300,1350,l),
(1333,1302,o),
(1340,1247,o),
(1346,1191,c),
(1320,1090,l)
);
},
{
closed = 1;
nodes = (
(1142,1851,o),
(1197,1906,o),
(1197,1972,cs),
(1197,2038,o),
(1142,2092,o),
(1076,2092,cs),
(1010,2092,o),
(957,2038,o),
(957,1972,cs),
(957,1906,o),
(1010,1851,o),
(1076,1851,cs)
);
}
);
};
layerId = "E7986948-7A43-4A74-AC0C-4472ECCDAB04";
shapes = (
{
ref = G;
},
{
pos = (370,580);
ref = dotaccentcomb;
}
);
width = 1488;
},
{
background = {
anchors = (
{
name = bottom;
pos = (597,0);
},
{
name = cedilla;
pos = (596,0);
},
{
name = top;
pos = (976,1500);
}
);
shapes = (
{
closed = 1;
nodes = (
(946,-20,o),
(1144,204,o),
(1234,330,c),
(1296,570,l),
(1088,570,l),
(1004,250,l),
(974,206,o),
(850,-16,o),
(602,-16,cs),
(394,-16,o),
(330,186,o),
(330,390,cs),
(330,854,o),
(572,1512,o),
(1000,1512,cs),
(1216,1512,o),
(1390,1370,o),
(1356,1090,c),
(1360,1090,l),
(1396,1376,o),
(1216,1520,o),
(980,1520,cs),
(514,1520,o),
(110,1056,o),
(110,510,cs),
(110,184,o),
(314,-20,o),
(620,-20,cs)
);
},
{
closed = 1;
nodes = (
(1450,568,l),
(1450,572,l),
(910,572,l),
(910,568,l)
);
},
{
closed = 1;
nodes = (
(1360,1090,l),
(1456,1500,l),
(1452,1500,l),
(1310,1360,l),
(1352,1292,o),
(1366,1212,o),
(1362,1136,c),
(1356,1090,l)
);
},
{
closed = 1;
nodes = (
(1152,1850,o),
(1207,1905,o),
(1207,1971,cs),
(1207,2037,o),
(1152,2091,o),
(1086,2091,cs),
(1020,2091,o),
(967,2037,o),
(967,1971,cs),
(967,1905,o),
(1019,1850,o),
(1086,1850,cs)
);
}
);
};
layerId = "F479A047-48C9-4D19-A0FD-B440837ED7E5";
shapes = (
{
ref = G;
},
{
pos = (370,580);
ref = dotaccentcomb;
}
);
width = 1455;
},
{
background = {
anchors = (
{
name = bottom;
pos = (717,0);
},
{
name = cedilla;
pos = (716,0);
},
{
name = top;
pos = (1076,1500);
}
);
shapes = (
{
closed = 1;
nodes = (
(1036,-20,o),
(1353,204,o),
(1443,330,c),
(1504,561,l),
(1057,561,l),
(975,250,l),
(905,126,o),
(837,54,o),
(730,54,cs),
(582,54,o),
(540,187,o),
(540,391,cs),
(540,795,o),
(761,1427,o),
(1150,1427,cs),
(1318,1427,o),
(1463,1293,o),
(1518,1029,c),
(1559,1029,l),
(1549,1315,o),
(1351,1520,o),
(1070,1520,cs),
(584,1520,o),
(100,1096,o),
(100,510,cs),
(100,144,o),
(364,-20,o),
(710,-20,cs)
);
},
{
closed = 1;
nodes = (
(1580,533,l),
(1580,606,l),
(840,606,l),
(840,533,l)
);
},
{
closed = 1;
nodes = (
(1592,1029,l),
(1699,1500,l),
(1637,1500,l),
(1378,1380,l),
(1417,1318,o),
(1455,1256,o),
(1496,1191,c),
(1518,1029,l)
);
},
{
closed = 1;
nodes = (
(1291,1659,o),
(1386,1764,o),
(1386,1880,cs),
(1386,1996,o),
(1291,2100,o),
(1165,2100,cs),
(1039,2100,o),
(946,1996,o),
(946,1880,cs),
(946,1764,o),
(1039,1659,o),
(1165,1659,cs)
);
}
);
};
layerId = "5A0F1DA2-36F1-48C5-B19D-79E54862F5ED";
shapes = (
{
ref = G;
},
{
pos = (470,580);
ref = dotaccentcomb;
}
);
width = 1665;
}
);
unicode = 288;
},
{
color = (0,171,232,255);
glyphname = H;
lastChange = "2023-10-05 13:59:01 +0000";
layers = (
{
anchors = (
{
name = bottom;
pos = (721,0);
},
{
name = cedilla;
pos = (278,0);
},
{
name = top;
pos = (1049,1500);
}
);
background = {
anchors = (
{
name = bottom;
pos = (721,0);
},
{
name = cedilla;
pos = (278,0);
},
{
name = top;
pos = (1049,1500);
}
);
shapes = (
{
closed = 1;
nodes = (
(1184,738,l),
(1184,742,l),
(464,742,l),
(464,738,l)
);
},
{
closed = 1;
nodes = (
(1000,1500,l),
(240,1500,l),
(240,1496,l),
(419,1496,l),
(81,4,l),
(-90,4,l),
(-90,0,l),
(670,0,l),
(670,4,l),
(511,4,l),
(849,1496,l),
(1000,1496,l)
);
},
{
closed = 1;
nodes = (
(1100,1500,l),
(1100,1496,l),
(1259,1496,l),
(921,4,l),
(770,4,l),
(770,0,l),
(1530,0,l),
(1530,4,l),
(1351,4,l),
(1689,1496,l),
(1860,1496,l),
(1860,1500,l)
);
}
);
};
layerId = "C8A05DAB-080B-4AF9-9351-1A1E2A671399";
shapes = (
{
closed = 1;
nodes = (
(1184,738,l),
(1184,742,l),
(464,742,l),
(464,738,l)
);
},
{
closed = 1;
nodes = (
(1000,1500,l),
(240,1500,l),
(240,1496,l),
(419,1496,l),
(81,4,l),
(-90,4,l),
(-90,0,l),
(670,0,l),
(670,4,l),
(511,4,l),
(849,1496,l),
(1000,1496,l)
);
},
{
closed = 1;
nodes = (
(1100,1500,l),
(1100,1496,l),
(1259,1496,l),
(921,4,l),
(770,4,l),
(770,0,l),
(1530,0,l),
(1530,4,l),
(1351,4,l),
(1689,1496,l),
(1860,1496,l),
(1860,1500,l)
);
}
);
width = 1669;
},
{
anchors = (
{
name = bottom;
pos = (606,0);
},
{
name = cedilla;
pos = (178,0);
},
{
name = top;
pos = (939,1500);
}
);
background = {
anchors = (
{
name = bottom;
pos = (606,0);
},
{
name = cedilla;
pos = (178,0);
},
{
name = top;
pos = (939,1500);
}
);
shapes = (
{
closed = 1;
nodes = (
(1134,703,l),
(1134,776,l),
(414,776,l),
(414,703,l)
);
},
{
closed = 1;
nodes = (
(790,1500,l),
(250,1500,l),
(250,1427,l),
(413,1427,l),
(107,73,l),
(-80,73,l),
(-80,0,l),
(460,0,l),
(460,73,l),
(296,73,l),
(603,1427,l),
(790,1427,l)
);
},
{
closed = 1;
nodes = (
(1090,1500,l),
(1090,1427,l),
(1253,1427,l),
(947,73,l),
(760,73,l),
(760,0,l),
(1300,0,l),
(1300,73,l),
(1137,73,l),
(1443,1427,l),
(1630,1427,l),
(1630,1500,l)
);
}
);
};
layerId = "E7986948-7A43-4A74-AC0C-4472ECCDAB04";
shapes = (
{
closed = 1;
nodes = (
(1134,703,l),
(1134,776,l),
(414,776,l),
(414,703,l)
);
},
{
closed = 1;
nodes = (
(790,1500,l),
(250,1500,l),
(250,1427,l),
(413,1427,l),
(107,73,l),
(-80,73,l),
(-80,0,l),
(460,0,l),
(460,73,l),
(296,73,l),
(603,1427,l),
(790,1427,l)
);
},
{
closed = 1;
nodes = (
(1090,1500,l),
(1090,1427,l),
(1253,1427,l),
(947,73,l),
(760,73,l),
(760,0,l),
(1300,0,l),
(1300,73,l),
(1137,73,l),
(1443,1427,l),
(1630,1427,l),
(1630,1500,l)
);
}
);
width = 1439;
},
{
anchors = (
{
name = bottom;
pos = (606,0);
},
{
name = cedilla;
pos = (178,0);
},
{
name = top;
pos = (939,1500);
}
);
background = {
anchors = (
{
name = bottom;
pos = (606,0);
},
{
name = cedilla;
pos = (178,0);
},
{
name = top;
pos = (939,1500);
}
);
shapes = (
{
closed = 1;
nodes = (
(1134,738,l),
(1134,742,l),
(414,742,l),
(414,738,l)
);
},
{
closed = 1;
nodes = (
(790,1500,l),
(250,1500,l),
(250,1496,l),
(429,1496,l),
(91,4,l),
(-80,4,l),
(-80,0,l),
(460,0,l),
(460,4,l),
(281,4,l),
(619,1496,l),
(790,1496,l)
);
},
{
closed = 1;
nodes = (
(1090,1500,l),
(1090,1496,l),
(1269,1496,l),
(931,4,l),
(760,4,l),
(760,0,l),
(1300,0,l),
(1300,4,l),
(1121,4,l),
(1459,1496,l),
(1630,1496,l),
(1630,1500,l)
);
}
);
};
layerId = "F479A047-48C9-4D19-A0FD-B440837ED7E5";
shapes = (
{
closed = 1;
nodes = (
(1134,738,l),
(1134,742,l),
(414,742,l),
(414,738,l)
);
},
{
closed = 1;
nodes = (
(790,1500,l),
(250,1500,l),
(250,1496,l),
(429,1496,l),
(91,4,l),
(-80,4,l),
(-80,0,l),
(460,0,l),
(460,4,l),
(281,4,l),
(619,1496,l),
(790,1496,l)
);
},
{
closed = 1;
nodes = (
(1090,1500,l),
(1090,1496,l),
(1269,1496,l),
(931,4,l),
(760,4,l),
(760,0,l),
(1300,0,l),
(1300,4,l),
(1121,4,l),
(1459,1496,l),
(1630,1496,l),
(1630,1500,l)
);
}
);
width = 1439;
},
{
anchors = (
{
name = bottom;
pos = (721,0);
},
{
name = cedilla;
pos = (278,0);
},
{
name = top;
pos = (1049,1500);
}
);
background = {
anchors = (
{
name = bottom;
pos = (721,0);
},
{
name = cedilla;
pos = (278,0);
},
{
name = top;
pos = (1049,1500);
}
);
shapes = (
{
closed = 1;
nodes = (
(1124,703,l),
(1124,776,l),
(404,776,l),
(404,703,l)
);
},
{
closed = 1;
nodes = (
(1000,1500,l),
(240,1500,l),
(240,1427,l),
(403,1427,l),
(97,73,l),
(-90,73,l),
(-90,0,l),
(670,0,l),
(670,73,l),
(527,73,l),
(833,1427,l),
(1000,1427,l)
);
},
{
closed = 1;
nodes = (
(1100,1500,l),
(1100,1427,l),
(1243,1427,l),
(937,73,l),
(770,73,l),
(770,0,l),
(1529,0,l),
(1529,73,l),
(1366,73,l),
(1673,1427,l),
(1859,1427,l),
(1859,1500,l)
);
}
);
};
layerId = "5A0F1DA2-36F1-48C5-B19D-79E54862F5ED";
shapes = (
{
closed = 1;
nodes = (
(1124,703,l),
(1124,776,l),
(404,776,l),
(404,703,l)
);
},
{
closed = 1;
nodes = (
(1000,1500,l),
(240,1500,l),
(240,1427,l),
(403,1427,l),
(97,73,l),
(-90,73,l),
(-90,0,l),
(670,0,l),
(670,73,l),
(527,73,l),
(833,1427,l),
(1000,1427,l)
);
},
{
closed = 1;
nodes = (
(1100,1500,l),
(1100,1427,l),
(1243,1427,l),
(937,73,l),
(770,73,l),
(770,0,l),
(1529,0,l),
(1529,73,l),
(1366,73,l),
(1673,1427,l),
(1859,1427,l),
(1859,1500,l)
);
}
);
width = 1669;
}
);
unicode = 72;
},
{
color = (247,255,0,255);
glyphname = Hbar;
lastChange = "2023-10-05 14:13:38 +0000";
layers = (
{
background = {
anchors = (
{
name = bottom;
pos = (721,0);
},
{
name = cedilla;
pos = (278,0);
},
{
name = top;
pos = (1049,1500);
}
);
shapes = (
{
closed = 1;
nodes = (
(1738,1109.055,l),
(1738,1112.943,l),
(200.167,1112.943,l),
(200.167,1109.055,l)
);
},
{
closed = 1;
nodes = (
(1184,738,l),
(1184,742,l),
(464,742,l),
(464,738,l)
);
},
{
closed = 1;
nodes = (
(1000,1500,l),
(240,1500,l),
(240,1496,l),
(419,1496,l),
(81,4,l),
(-90,4,l),
(-90,0,l),
(670,0,l),
(670,4,l),
(511,4,l),
(849,1496,l),
(1000,1496,l)
);
},
{
closed = 1;
nodes = (
(1100,1500,l),
(1100,1496,l),
(1259,1496,l),
(921,4,l),
(770,4,l),
(770,0,l),
(1530,0,l),
(1530,4,l),
(1351,4,l),
(1689,1496,l),
(1860,1496,l),
(1860,1500,l)
);
}
);
};
layerId = "C8A05DAB-080B-4AF9-9351-1A1E2A671399";
shapes = (
{
closed = 1;
nodes = (
(1738,1109,l),
(1738,1113,l),
(200,1113,l),
(200,1109,l)
);
},
{
ref = H;
}
);
width = 1669;
},
{
background = {
anchors = (
{
name = bottom;
pos = (606,0);
},
{
name = cedilla;
pos = (178,0);
},
{
name = top;
pos = (939,1500);
}
);
shapes = (
{
closed = 1;
nodes = (
(1620.169,1074,l),
(1620.169,1146,l),
(220.167,1146,l),
(220.167,1074,l)
);
},
{
closed = 1;
nodes = (
(1134,703,l),
(1134,776,l),
(414,776,l),
(414,703,l)
);
},
{
closed = 1;
nodes = (
(790,1500,l),
(250,1500,l),
(250,1427,l),
(413,1427,l),
(107,73,l),
(-80,73,l),
(-80,0,l),
(460,0,l),
(460,73,l),
(296,73,l),
(603,1427,l),
(790,1427,l)
);
},
{
closed = 1;
nodes = (
(1090,1500,l),
(1090,1427,l),
(1253,1427,l),
(947,73,l),
(760,73,l),
(760,0,l),
(1300,0,l),
(1300,73,l),
(1137,73,l),
(1443,1427,l),
(1630,1427,l),
(1630,1500,l)
);
}
);
};
layerId = "E7986948-7A43-4A74-AC0C-4472ECCDAB04";
shapes = (
{
closed = 1;
nodes = (
(1620,1074,l),
(1620,1146,l),
(220,1146,l),
(220,1074,l)
);
},
{
ref = H;
}
);
width = 1439;
},
{
background = {
anchors = (
{
name = bottom;
pos = (606,0);
},
{
name = cedilla;
pos = (178,0);
},
{
name = top;
pos = (939,1500);
}
);
shapes = (
{
closed = 1;
nodes = (
(1620.169,1108,l),
(1620.169,1112,l),
(220.167,1112,l),
(220.167,1108,l)
);
},
{
closed = 1;
nodes = (
(1134,738,l),
(1134,742,l),
(414,742,l),
(414,738,l)
);
},
{
closed = 1;
nodes = (
(790,1500,l),
(250,1500,l),
(250,1496,l),
(429,1496,l),
(91,4,l),
(-80,4,l),
(-80,0,l),
(460,0,l),
(460,4,l),
(281,4,l),
(619,1496,l),
(790,1496,l)
);
},
{
closed = 1;
nodes = (
(1090,1500,l),
(1090,1496,l),
(1269,1496,l),
(931,4,l),
(760,4,l),
(760,0,l),
(1300,0,l),
(1300,4,l),
(1121,4,l),
(1459,1496,l),
(1630,1496,l),
(1630,1500,l)
);
}
);
};
layerId = "F479A047-48C9-4D19-A0FD-B440837ED7E5";
shapes = (
{
closed = 1;
nodes = (
(1620,1108,l),
(1620,1112,l),
(220,1112,l),
(220,1108,l)
);
},
{
ref = H;
}
);
width = 1439;
},
{
background = {
anchors = (
{
name = bottom;
pos = (721,0);
},
{
name = cedilla;
pos = (278,0);
},
{
name = top;
pos = (1049,1500);
}
);
shapes = (
{
closed = 1;
nodes = (
(1738,1076,l),
(1738,1145.999,l),
(200.167,1145.999,l),
(200.167,1076,l)
);
},
{
closed = 1;
nodes = (
(1124,703,l),
(1124,776,l),
(404,776,l),
(404,703,l)
);
},
{
closed = 1;
nodes = (
(1000,1500,l),
(240,1500,l),
(240,1427,l),
(403,1427,l),
(97,73,l),
(-90,73,l),
(-90,0,l),
(670,0,l),
(670,73,l),
(527,73,l),
(833,1427,l),
(1000,1427,l)
);
},
{
closed = 1;
nodes = (
(1100,1500,l),
(1100,1427,l),
(1243,1427,l),
(937,73,l),
(770,73,l),
(770,0,l),
(1529,0,l),
(1529,73,l),
(1366,73,l),
(1673,1427,l),
(1859,1427,l),
(1859,1500,l)
);
}
);
};
layerId = "5A0F1DA2-36F1-48C5-B19D-79E54862F5ED";
shapes = (
{
closed = 1;
nodes = (
(1738,1076,l),
(1738,1146,l),
(200,1146,l),
(200,1076,l)
);
},
{
ref = H;
}
);
width = 1669;
}
);
unicode = 294;
},
{
color = 10;
glyphname = Hcircumflex;
lastChange = "2023-10-05 13:59:28 +0000";
layers = (
{
background = {
anchors = (
{
name = bottom;
pos = (721,0);
},
{
name = cedilla;
pos = (278,0);
},
{
name = top;
pos = (1049,1500);
}
);
shapes = (
{
closed = 1;
nodes = (
(1184,738,l),
(1184,742,l),
(464,742,l),
(464,738,l)
);
},
{
closed = 1;
nodes = (
(1000,1500,l),
(240,1500,l),
(240,1496,l),
(419,1496,l),
(81,4,l),
(-90,4,l),
(-90,0,l),
(670,0,l),
(670,4,l),
(511,4,l),
(849,1496,l),
(1000,1496,l)
);
},
{
closed = 1;
nodes = (
(1100,1500,l),
(1100,1496,l),
(1259,1496,l),
(921,4,l),
(770,4,l),
(770,0,l),
(1530,0,l),
(1530,4,l),
(1351,4,l),
(1689,1496,l),
(1860,1496,l),
(1860,1500,l)
);
},
{
closed = 1;
nodes = (
(1137,1849,l),
(1481,1717,l),
(1483,1719,l),
(1247,2039,l),
(1037,2039,l),
(713,1719,l),
(715,1717,l)
);
}
);
};
layerId = "C8A05DAB-080B-4AF9-9351-1A1E2A671399";
shapes = (
{
ref = H;
},
{
pos = (307,0);
ref = circumflexcomb;
}
);
width = 1669;
},
{
background = {
anchors = (
{
name = bottom;
pos = (606,0);
},
{
name = cedilla;
pos = (178,0);
},
{
name = top;
pos = (939,1500);
}
);
shapes = (
{
closed = 1;
nodes = (
(1134,703,l),
(1134,776,l),
(414,776,l),
(414,703,l)
);
},
{
closed = 1;
nodes = (
(790,1500,l),
(250,1500,l),
(250,1427,l),
(413,1427,l),
(107,73,l),
(-80,73,l),
(-80,0,l),
(460,0,l),
(460,73,l),
(296,73,l),
(603,1427,l),
(790,1427,l)
);
},
{
closed = 1;
nodes = (
(1090,1500,l),
(1090,1427,l),
(1253,1427,l),
(947,73,l),
(760,73,l),
(760,0,l),
(1300,0,l),
(1300,73,l),
(1137,73,l),
(1443,1427,l),
(1630,1427,l),
(1630,1500,l)
);
},
{
closed = 1;
nodes = (
(1026,1849,l),
(1224,1672,l),
(1272,1719,l),
(1095,1939,l),
(965,1939,l),
(701,1719,l),
(742,1677,l)
);
}
);
};
layerId = "E7986948-7A43-4A74-AC0C-4472ECCDAB04";
shapes = (
{
ref = H;
},
{
pos = (195,0);
ref = circumflexcomb;
}
);
width = 1439;
},
{
background = {
anchors = (
{
name = bottom;
pos = (606,0);
},
{
name = cedilla;
pos = (178,0);
},
{
name = top;
pos = (939,1500);
}
);
shapes = (
{
closed = 1;
nodes = (
(1134,738,l),
(1134,742,l),
(414,742,l),
(414,738,l)
);
},
{
closed = 1;
nodes = (
(790,1500,l),
(250,1500,l),
(250,1496,l),
(429,1496,l),
(91,4,l),
(-80,4,l),
(-80,0,l),
(460,0,l),
(460,4,l),
(281,4,l),
(619,1496,l),
(790,1496,l)
);
},
{
closed = 1;
nodes = (
(1090,1500,l),
(1090,1496,l),
(1269,1496,l),
(931,4,l),
(760,4,l),
(760,0,l),
(1300,0,l),
(1300,4,l),
(1121,4,l),
(1459,1496,l),
(1630,1496,l),
(1630,1500,l)
);
},
{
closed = 1;
nodes = (
(1026,1849,l),
(1271,1716,l),
(1272,1719,l),
(1095,1939,l),
(965,1939,l),
(701,1719,l),
(704,1716,l)
);
}
);
};
layerId = "F479A047-48C9-4D19-A0FD-B440837ED7E5";
shapes = (
{
ref = H;
},
{
pos = (195,0);
ref = circumflexcomb;
}
);
width = 1439;
},
{
background = {
anchors = (
{
name = bottom;
pos = (721,0);
},
{
name = cedilla;
pos = (278,0);
},
{
name = top;
pos = (1049,1500);
}
);
shapes = (
{
closed = 1;
nodes = (
(1124,703,l),
(1124,776,l),
(404,776,l),
(404,703,l)
);
},
{
closed = 1;
nodes = (
(1000,1500,l),
(240,1500,l),
(240,1427,l),
(403,1427,l),
(97,73,l),
(-90,73,l),
(-90,0,l),
(670,0,l),
(670,73,l),
(527,73,l),
(833,1427,l),
(1000,1427,l)
);
},
{
closed = 1;
nodes = (
(1100,1500,l),
(1100,1427,l),
(1243,1427,l),
(937,73,l),
(770,73,l),
(770,0,l),
(1529,0,l),
(1529,73,l),
(1366,73,l),
(1673,1427,l),
(1859,1427,l),
(1859,1500,l)
);
},
{
closed = 1;
nodes = (
(1136,1849,l),
(1447,1685,l),
(1482,1720,l),
(1246,2039,l),
(1037,2039,l),
(712,1720,l),
(751,1680,l)
);
}
);
};
layerId = "5A0F1DA2-36F1-48C5-B19D-79E54862F5ED";
shapes = (
{
ref = H;
},
{
pos = (306,0);
ref = circumflexcomb;
}
);
width = 1669;
}
);
unicode = 292;
},
{
color = (0,171,232,255);
glyphname = I;
lastChange = "2023-10-05 13:59:01 +0000";
layers = (
{
anchors = (
{
name = bottom;
pos = (348,0);
},
{
name = ogonek;
pos = (348,0);
},
{
name = top;
pos = (682,1500);
}
);
background = {
anchors = (
{
name = bottom;
pos = (348,0);
},
{
name = ogonek;
pos = (348,0);
},
{
name = top;
pos = (682,1500);
}
);
shapes = (
{
closed = 1;
nodes = (
(560,0,l),
(900,1500,l),
(470,1500,l),
(130,0,l)
);
},
{
closed = 1;
nodes = (
(790,0,l),
(790,4,l),
(-90,4,l),
(-90,0,l)
);
},
{
closed = 1;
nodes = (
(1120,1496,l),
(1120,1500,l),
(240,1500,l),
(240,1496,l)
);
}
);
};
layerId = "C8A05DAB-080B-4AF9-9351-1A1E2A671399";
shapes = (
{
closed = 1;
nodes = (
(560,0,l),
(900,1500,l),
(470,1500,l),
(130,0,l)
);
},
{
closed = 1;
nodes = (
(790,0,l),
(790,4,l),
(-90,4,l),
(-90,0,l)
);
},
{
closed = 1;
nodes = (
(1120,1496,l),
(1120,1500,l),
(240,1500,l),
(240,1496,l)
);
}
);
width = 929;
},
{
anchors = (
{
name = bottom;
pos = (238,0);
},
{
name = ogonek;
pos = (238,0);
},
{
name = top;
pos = (572,1500);
}
);
background = {
anchors = (
{
name = bottom;
pos = (238,0);
},
{
name = ogonek;
pos = (238,0);
},
{
name = top;
pos = (572,1500);
}
);
shapes = (
{
closed = 1;
nodes = (
(330,0,l),
(670,1500,l),
(480,1500,l),
(141,0,l)
);
},
{
closed = 1;
nodes = (
(561,0,l),
(561,73,l),
(-80,73,l),
(-80,0,l)
);
},
{
closed = 1;
nodes = (
(891,1427,l),
(891,1500,l),
(250,1500,l),
(250,1427,l)
);
}
);
};
layerId = "E7986948-7A43-4A74-AC0C-4472ECCDAB04";
shapes = (
{
closed = 1;
nodes = (
(330,0,l),
(670,1500,l),
(480,1500,l),
(141,0,l)
);
},
{
closed = 1;
nodes = (
(561,0,l),
(561,73,l),
(-80,73,l),
(-80,0,l)
);
},
{
closed = 1;
nodes = (
(891,1427,l),
(891,1500,l),
(250,1500,l),
(250,1427,l)
);
}
);
width = 699;
},
{
anchors = (
{
name = bottom;
pos = (238,0);
},
{
name = ogonek;
pos = (238,0);
},
{
name = top;
pos = (572,1500);
}
);
background = {
anchors = (
{
name = bottom;
pos = (238,0);
},
{
name = ogonek;
pos = (238,0);
},
{
name = top;
pos = (572,1500);
}
);
shapes = (
{
closed = 1;
nodes = (
(330,0,l),
(670,1500,l),
(480,1500,l),
(140,0,l)
);
},
{
closed = 1;
nodes = (
(560,0,l),
(560,4,l),
(-80,4,l),
(-80,0,l)
);
},
{
closed = 1;
nodes = (
(890,1496,l),
(890,1500,l),
(250,1500,l),
(250,1496,l)
);
}
);
};
layerId = "F479A047-48C9-4D19-A0FD-B440837ED7E5";
shapes = (
{
closed = 1;
nodes = (
(330,0,l),
(670,1500,l),
(480,1500,l),
(140,0,l)
);
},
{
closed = 1;
nodes = (
(560,0,l),
(560,4,l),
(-80,4,l),
(-80,0,l)
);
},
{
closed = 1;
nodes = (
(890,1496,l),
(890,1500,l),
(250,1500,l),
(250,1496,l)
);
}
);
width = 699;
},
{
anchors = (
{
name = bottom;
pos = (348,0);
},
{
name = ogonek;
pos = (348,0);
},
{
name = top;
pos = (682,1500);
}
);
background = {
anchors = (
{
name = bottom;
pos = (348,0);
},
{
name = ogonek;
pos = (348,0);
},
{
name = top;
pos = (682,1500);
}
);
shapes = (
{
closed = 1;
nodes = (
(561,0,l),
(900,1500,l),
(471,1500,l),
(130,0,l)
);
},
{
closed = 1;
nodes = (
(790,0,l),
(790,73,l),
(-90,73,l),
(-90,0,l)
);
},
{
closed = 1;
nodes = (
(1120,1427,l),
(1120,1500,l),
(240,1500,l),
(240,1427,l)
);
}
);
};
layerId = "5A0F1DA2-36F1-48C5-B19D-79E54862F5ED";
shapes = (
{
closed = 1;
nodes = (
(561,0,l),
(900,1500,l),
(471,1500,l),
(130,0,l)
);
},
{
closed = 1;
nodes = (
(790,0,l),
(790,73,l),
(-90,73,l),
(-90,0,l)
);
},
{
closed = 1;
nodes = (
(1120,1427,l),
(1120,1500,l),
(240,1500,l),
(240,1427,l)
);
}
);
width = 929;
}
);
unicode = 73;
},
{
color = 10;
glyphname = IJ;
lastChange = "2023-10-05 13:59:28 +0000";
layers = (
{
background = {
anchors = (
{
name = bottom;
pos = (1208,0);
},
{
name = ogonek;
pos = (348,0);
},
{
name = top;
pos = (1846,1500);
}
);
shapes = (
{
closed = 1;
nodes = (
(560,0,l),
(900,1500,l),
(470,1500,l),
(130,0,l)
);
},
{
closed = 1;
nodes = (
(790,0,l),
(790,4,l),
(-90,4,l),
(-90,0,l)
);
},
{
closed = 1;
nodes = (
(1120,1496,l),
(1120,1500,l),
(240,1500,l),
(240,1496,l)
);
},
{
closed = 1;
nodes = (
(1496,-61,o),
(1732,109,o),
(1882,340,c),
(2142,1500,l),
(1714,1500,l),
(1454,380,ls),
(1392,115,o),
(1282,-42,o),
(1169,-42,cs),
(1013,-42,o),
(842,58,o),
(840,255,c),
(838,255,l),
(838,145,o),
(954,43,o),
(1075,43,cs),
(1194,43,o),
(1313,142,o),
(1313,268,cs),
(1313,410,o),
(1185,500,o),
(1075,500,cs),
(954,500,o),
(836,399,o),
(836,255,cs),
(836,55,o),
(1014,-61,o),
(1238,-61,cs)
);
},
{
closed = 1;
nodes = (
(2342,1496,l),
(2342,1500,l),
(1444,1500,l),
(1444,1496,l)
);
}
);
};
layerId = "C8A05DAB-080B-4AF9-9351-1A1E2A671399";
shapes = (
{
alignment = -1;
ref = I;
},
{
alignment = -1;
pos = (900,0);
ref = J;
}
);
width = 2151;
},
{
background = {
anchors = (
{
name = bottom;
pos = (938,0);
},
{
name = ogonek;
pos = (238,0);
},
{
name = top;
pos = (1511,1500);
}
);
shapes = (
{
closed = 1;
nodes = (
(330,0,l),
(670,1500,l),
(480,1500,l),
(141,0,l)
);
},
{
closed = 1;
nodes = (
(561,0,l),
(561,73,l),
(-80,73,l),
(-80,0,l)
);
},
{
closed = 1;
nodes = (
(891,1427,l),
(891,1500,l),
(250,1500,l),
(250,1427,l)
);
},
{
closed = 1;
nodes = (
(1136,-61,o),
(1268,199,o),
(1348,340,c),
(1608,1500,l),
(1419,1500,l),
(1159,380,ls),
(1097,115,o),
(1052,14,o),
(929,14,cs),
(850,14,o),
(773,84,o),
(771,155,c),
(698,155,l),
(698,95,o),
(759,58,o),
(810,58,cs),
(869,58,o),
(923,92,o),
(923,168,cs),
(923,250,o),
(860,285,o),
(810,285,cs),
(749,285,o),
(696,239,o),
(696,155,cs),
(696,55,o),
(784,-61,o),
(938,-61,cs)
);
},
{
closed = 1;
nodes = (
(1808,1427,l),
(1808,1500,l),
(1149,1500,l),
(1149,1427,l)
);
}
);
};
layerId = "E7986948-7A43-4A74-AC0C-4472ECCDAB04";
shapes = (
{
alignment = -1;
ref = I;
},
{
alignment = -1;
pos = (760,0);
ref = J;
}
);
width = 1713;
},
{
background = {
anchors = (
{
name = bottom;
pos = (938,0);
},
{
name = ogonek;
pos = (238,0);
},
{
name = top;
pos = (1511,1500);
}
);
shapes = (
{
closed = 1;
nodes = (
(330,0,l),
(670,1500,l),
(480,1500,l),
(140,0,l)
);
},
{
closed = 1;
nodes = (
(560,0,l),
(560,4,l),
(-80,4,l),
(-80,0,l)
);
},
{
closed = 1;
nodes = (
(890,1496,l),
(890,1500,l),
(250,1500,l),
(250,1496,l)
);
},
{
closed = 1;
nodes = (
(1136,-61,o),
(1268,199,o),
(1348,340,c),
(1608,1500,l),
(1419,1500,l),
(1159,380,ls),
(1097,115,o),
(1061,-57,o),
(938,-57,cs),
(785,-57,o),
(700,56,o),
(700,155,c),
(698,155,l),
(698,95,o),
(759,58,o),
(810,58,cs),
(869,58,o),
(923,92,o),
(923,168,cs),
(923,250,o),
(860,285,o),
(810,285,cs),
(749,285,o),
(696,239,o),
(696,155,cs),
(696,55,o),
(784,-61,o),
(938,-61,cs)
);
},
{
closed = 1;
nodes = (
(1808,1496,l),
(1808,1500,l),
(1159,1500,l),
(1159,1496,l)
);
}
);
};
layerId = "F479A047-48C9-4D19-A0FD-B440837ED7E5";
shapes = (
{
alignment = -1;
ref = I;
},
{
alignment = -1;
pos = (760,0);
ref = J;
}
);
width = 1713;
},
{
background = {
anchors = (
{
name = bottom;
pos = (1208,0);
},
{
name = ogonek;
pos = (348,0);
},
{
name = top;
pos = (1846,1500);
}
);
shapes = (
{
closed = 1;
nodes = (
(561,0,l),
(900,1500,l),
(471,1500,l),
(130,0,l)
);
},
{
closed = 1;
nodes = (
(790,0,l),
(790,73,l),
(-90,73,l),
(-90,0,l)
);
},
{
closed = 1;
nodes = (
(1120,1427,l),
(1120,1500,l),
(240,1500,l),
(240,1427,l)
);
},
{
closed = 1;
nodes = (
(1496,-61,o),
(1732,109,o),
(1882,340,c),
(2142,1500,l),
(1714,1500,l),
(1454,380,ls),
(1392,115,o),
(1312,14,o),
(1199,14,cs),
(1110,14,o),
(913,74,o),
(911,255,c),
(838,255,l),
(838,145,o),
(964,43,o),
(1075,43,cs),
(1194,43,o),
(1313,142,o),
(1313,268,cs),
(1313,410,o),
(1185,500,o),
(1075,500,cs),
(954,500,o),
(836,399,o),
(836,255,cs),
(836,55,o),
(1014,-61,o),
(1238,-61,cs)
);
},
{
closed = 1;
nodes = (
(2342,1427,l),
(2342,1500,l),
(1444,1500,l),
(1444,1427,l)
);
}
);
};
layerId = "5A0F1DA2-36F1-48C5-B19D-79E54862F5ED";
shapes = (
{
alignment = -1;
ref = I;
},
{
alignment = -1;
pos = (900,0);
ref = J;
}
);
width = 2151;
}
);
unicode = 306;
},
{
color = 10;
glyphname = Iacute;
lastChange = "2023-10-05 13:59:28 +0000";
layers = (
{
background = {
anchors = (
{
name = bottom;
pos = (348,0);
},
{
name = ogonek;
pos = (348,0);
},
{
name = top;
pos = (682,1500);
}
);
shapes = (
{
closed = 1;
nodes = (
(560,0,l),
(900,1500,l),
(470,1500,l),
(130,0,l)
);
},
{
closed = 1;
nodes = (
(790,0,l),
(790,4,l),
(-90,4,l),
(-90,0,l)
);
},
{
closed = 1;
nodes = (
(1120,1496,l),
(1120,1500,l),
(240,1500,l),
(240,1496,l)
);
},
{
closed = 1;
nodes = (
(908,1718,ls),
(1068,1737,o),
(1124,1905,o),
(1058,2001,cs),
(1004,2079,o),
(826,2105,o),
(753,1956,cs),
(620,1685,l),
(621,1683,l)
);
}
);
};
layerId = "C8A05DAB-080B-4AF9-9351-1A1E2A671399";
shapes = (
{
ref = I;
},
{
pos = (46,0);
ref = acutecomb;
}
);
width = 929;
},
{
background = {
anchors = (
{
name = bottom;
pos = (238,0);
},
{
name = ogonek;
pos = (238,0);
},
{
name = top;
pos = (572,1500);
}
);
shapes = (
{
closed = 1;
nodes = (
(330,0,l),
(670,1500,l),
(480,1500,l),
(141,0,l)
);
},
{
closed = 1;
nodes = (
(561,0,l),
(561,73,l),
(-80,73,l),
(-80,0,l)
);
},
{
closed = 1;
nodes = (
(891,1427,l),
(891,1500,l),
(250,1500,l),
(250,1427,l)
);
},
{
closed = 1;
nodes = (
(774,1817,ls),
(806,1836,o),
(820,1882,o),
(801,1915,cs),
(782,1948,o),
(731,1967,o),
(689,1926,cs),
(477,1719,l),
(522,1670,l)
);
}
);
};
layerId = "E7986948-7A43-4A74-AC0C-4472ECCDAB04";
shapes = (
{
ref = I;
},
{
pos = (-166,0);
ref = acutecomb;
}
);
width = 699;
},
{
background = {
anchors = (
{
name = bottom;
pos = (238,0);
},
{
name = ogonek;
pos = (238,0);
},
{
name = top;
pos = (572,1500);
}
);
shapes = (
{
closed = 1;
nodes = (
(330,0,l),
(670,1500,l),
(480,1500,l),
(140,0,l)
);
},
{
closed = 1;
nodes = (
(560,0,l),
(560,4,l),
(-80,4,l),
(-80,0,l)
);
},
{
closed = 1;
nodes = (
(890,1496,l),
(890,1500,l),
(250,1500,l),
(250,1496,l)
);
},
{
closed = 1;
nodes = (
(774,1817,ls),
(806,1836,o),
(820,1882,o),
(801,1915,cs),
(782,1948,o),
(731,1967,o),
(689,1926,cs),
(500,1694,l),
(502,1692,l)
);
}
);
};
layerId = "F479A047-48C9-4D19-A0FD-B440837ED7E5";
shapes = (
{
ref = I;
},
{
pos = (-151,0);
ref = acutecomb;
}
);
width = 699;
},
{
background = {
anchors = (
{
name = bottom;
pos = (348,0);
},
{
name = ogonek;
pos = (348,0);
},
{
name = top;
pos = (682,1500);
}
);
shapes = (
{
closed = 1;
nodes = (
(561,0,l),
(900,1500,l),
(471,1500,l),
(130,0,l)
);
},
{
closed = 1;
nodes = (
(790,0,l),
(790,73,l),
(-90,73,l),
(-90,0,l)
);
},
{
closed = 1;
nodes = (
(1120,1427,l),
(1120,1500,l),
(240,1500,l),
(240,1427,l)
);
},
{
closed = 1;
nodes = (
(908,1718,ls),
(1066,1752,o),
(1124,1905,o),
(1058,2001,cs),
(1004,2079,o),
(839,2099,o),
(753,1956,cs),
(604,1708,l),
(636,1660,l)
);
}
);
};
layerId = "5A0F1DA2-36F1-48C5-B19D-79E54862F5ED";
shapes = (
{
ref = I;
},
{
pos = (35,0);
ref = acutecomb;
}
);
width = 929;
}
);
unicode = 205;
},
{
color = 10;
glyphname = Ibreve;
lastChange = "2023-10-05 13:59:28 +0000";
layers = (
{
background = {
anchors = (
{
name = bottom;
pos = (348,0);
},
{
name = ogonek;
pos = (348,0);
},
{
name = top;
pos = (682,1500);
}
);
shapes = (
{
closed = 1;
nodes = (
(560,0,l),
(900,1500,l),
(470,1500,l),
(130,0,l)
);
},
{
closed = 1;
nodes = (
(790,0,l),
(790,4,l),
(-90,4,l),
(-90,0,l)
);
},
{
closed = 1;
nodes = (
(1120,1496,l),
(1120,1500,l),
(240,1500,l),
(240,1496,l)
);
},
{
closed = 1;
nodes = (
(965,1682,o),
(1025,1938,o),
(1045,2060,c),
(1041,2060,l),
(1009,1962,o),
(853,1952,o),
(745,1952,cs),
(637,1952,o),
(519,1986,o),
(529,2060,c),
(525,2060,l),
(505,1938,o),
(505,1682,o),
(725,1682,cs)
);
}
);
};
layerId = "C8A05DAB-080B-4AF9-9351-1A1E2A671399";
shapes = (
{
ref = I;
},
{
pos = (-83,0);
ref = brevecomb;
}
);
width = 929;
},
{
background = {
anchors = (
{
name = bottom;
pos = (238,0);
},
{
name = ogonek;
pos = (238,0);
},
{
name = top;
pos = (572,1500);
}
);
shapes = (
{
closed = 1;
nodes = (
(330,0,l),
(670,1500,l),
(480,1500,l),
(141,0,l)
);
},
{
closed = 1;
nodes = (
(561,0,l),
(561,73,l),
(-80,73,l),
(-80,0,l)
);
},
{
closed = 1;
nodes = (
(891,1427,l),
(891,1500,l),
(250,1500,l),
(250,1427,l)
);
},
{
closed = 1;
nodes = (
(795,1682,o),
(875,1818,o),
(895,1940,c),
(823,1940,l),
(803,1842,o),
(729,1792,o),
(635,1792,cs),
(541,1792,o),
(508,1842,o),
(528,1940,c),
(455,1940,l),
(435,1818,o),
(455,1682,o),
(615,1682,cs)
);
}
);
};
layerId = "E7986948-7A43-4A74-AC0C-4472ECCDAB04";
shapes = (
{
ref = I;
},
{
pos = (-167,0);
ref = brevecomb;
}
);
width = 699;
},
{
background = {
anchors = (
{
name = bottom;
pos = (238,0);
},
{
name = ogonek;
pos = (238,0);
},
{
name = top;
pos = (572,1500);
}
);
shapes = (
{
closed = 1;
nodes = (
(330,0,l),
(670,1500,l),
(480,1500,l),
(140,0,l)
);
},
{
closed = 1;
nodes = (
(560,0,l),
(560,4,l),
(-80,4,l),
(-80,0,l)
);
},
{
closed = 1;
nodes = (
(890,1496,l),
(890,1500,l),
(250,1500,l),
(250,1496,l)
);
},
{
closed = 1;
nodes = (
(795,1682,o),
(875,1818,o),
(895,1940,c),
(891,1940,l),
(871,1842,o),
(729,1792,o),
(635,1792,cs),
(541,1792,o),
(444,1842,o),
(459,1940,c),
(455,1940,l),
(435,1818,o),
(455,1682,o),
(615,1682,cs)
);
}
);
};
layerId = "F479A047-48C9-4D19-A0FD-B440837ED7E5";
shapes = (
{
ref = I;
},
{
pos = (-167,0);
ref = brevecomb;
}
);
width = 699;
},
{
background = {
anchors = (
{
name = bottom;
pos = (348,0);
},
{
name = ogonek;
pos = (348,0);
},
{
name = top;
pos = (682,1500);
}
);
shapes = (
{
closed = 1;
nodes = (
(561,0,l),
(900,1500,l),
(471,1500,l),
(130,0,l)
);
},
{
closed = 1;
nodes = (
(790,0,l),
(790,73,l),
(-90,73,l),
(-90,0,l)
);
},
{
closed = 1;
nodes = (
(1120,1427,l),
(1120,1500,l),
(240,1500,l),
(240,1427,l)
);
},
{
closed = 1;
nodes = (
(965,1682,o),
(1025,1937,o),
(1045,2059,c),
(972,2059,l),
(940,1961,o),
(852,1951,o),
(745,1951,cs),
(638,1951,o),
(588,1985,o),
(598,2059,c),
(525,2059,l),
(505,1937,o),
(504,1682,o),
(725,1682,cs)
);
}
);
};
layerId = "5A0F1DA2-36F1-48C5-B19D-79E54862F5ED";
shapes = (
{
ref = I;
},
{
pos = (-83,0);
ref = brevecomb;
}
);
width = 929;
}
);
unicode = 300;
},
{
color = 10;
glyphname = Icircumflex;
lastChange = "2023-10-05 13:59:28 +0000";
layers = (
{
background = {
anchors = (
{
name = bottom;
pos = (348,0);
},
{
name = ogonek;
pos = (348,0);
},
{
name = top;
pos = (682,1500);
}
);
shapes = (
{
closed = 1;
nodes = (
(560,0,l),
(900,1500,l),
(470,1500,l),
(130,0,l)
);
},
{
closed = 1;
nodes = (
(790,0,l),
(790,4,l),
(-90,4,l),
(-90,0,l)
);
},
{
closed = 1;
nodes = (
(1120,1496,l),
(1120,1500,l),
(240,1500,l),
(240,1496,l)
);
},
{
closed = 1;
nodes = (
(770,1849,l),
(1114,1717,l),
(1116,1719,l),
(880,2039,l),
(670,2039,l),
(346,1719,l),
(348,1717,l)
);
}
);
};
layerId = "C8A05DAB-080B-4AF9-9351-1A1E2A671399";
shapes = (
{
ref = I;
},
{
pos = (-60,0);
ref = circumflexcomb;
}
);
width = 929;
},
{
background = {
anchors = (
{
name = bottom;
pos = (238,0);
},
{
name = ogonek;
pos = (238,0);
},
{
name = top;
pos = (572,1500);
}
);
shapes = (
{
closed = 1;
nodes = (
(330,0,l),
(670,1500,l),
(480,1500,l),
(141,0,l)
);
},
{
closed = 1;
nodes = (
(561,0,l),
(561,73,l),
(-80,73,l),
(-80,0,l)
);
},
{
closed = 1;
nodes = (
(891,1427,l),
(891,1500,l),
(250,1500,l),
(250,1427,l)
);
},
{
closed = 1;
nodes = (
(659,1849,l),
(857,1672,l),
(905,1719,l),
(728,1939,l),
(598,1939,l),
(334,1719,l),
(375,1677,l)
);
}
);
};
layerId = "E7986948-7A43-4A74-AC0C-4472ECCDAB04";
shapes = (
{
ref = I;
},
{
pos = (-172,0);
ref = circumflexcomb;
}
);
width = 699;
},
{
background = {
anchors = (
{
name = bottom;
pos = (238,0);
},
{
name = ogonek;
pos = (238,0);
},
{
name = top;
pos = (572,1500);
}
);
shapes = (
{
closed = 1;
nodes = (
(330,0,l),
(670,1500,l),
(480,1500,l),
(140,0,l)
);
},
{
closed = 1;
nodes = (
(560,0,l),
(560,4,l),
(-80,4,l),
(-80,0,l)
);
},
{
closed = 1;
nodes = (
(890,1496,l),
(890,1500,l),
(250,1500,l),
(250,1496,l)
);
},
{
closed = 1;
nodes = (
(659,1849,l),
(904,1716,l),
(905,1719,l),
(728,1939,l),
(598,1939,l),
(334,1719,l),
(337,1716,l)
);
}
);
};
layerId = "F479A047-48C9-4D19-A0FD-B440837ED7E5";
shapes = (
{
ref = I;
},
{
pos = (-172,0);
ref = circumflexcomb;
}
);
width = 699;
},
{
background = {
anchors = (
{
name = bottom;
pos = (348,0);
},
{
name = ogonek;
pos = (348,0);
},
{
name = top;
pos = (682,1500);
}
);
shapes = (
{
closed = 1;
nodes = (
(561,0,l),
(900,1500,l),
(471,1500,l),
(130,0,l)
);
},
{
closed = 1;
nodes = (
(790,0,l),
(790,73,l),
(-90,73,l),
(-90,0,l)
);
},
{
closed = 1;
nodes = (
(1120,1427,l),
(1120,1500,l),
(240,1500,l),
(240,1427,l)
);
},
{
closed = 1;
nodes = (
(769,1849,l),
(1080,1685,l),
(1115,1720,l),
(879,2039,l),
(670,2039,l),
(345,1720,l),
(384,1680,l)
);
}
);
};
layerId = "5A0F1DA2-36F1-48C5-B19D-79E54862F5ED";
shapes = (
{
ref = I;
},
{
pos = (-61,0);
ref = circumflexcomb;
}
);
width = 929;
}
);
unicode = 206;
},
